<?xml version="1.0" encoding="UTF-8"?>
<svg id="Layer_1" xmlns="http://www.w3.org/2000/svg" version="1.1" xmlns:xlink="http://www.w3.org/1999/xlink" viewBox="0 0 286.6 245.7">
  <!-- Generator: Adobe Illustrator 29.2.1, SVG Export Plug-In . SVG Version: 2.1.0 Build 116)  -->
  <defs>
    <style>
      .st0 {
        fill: #d9f0a3;
      }

      .st1 {
        fill: #fff;
      }

      .st2 {
        stroke: #fff;
      }

      .st2, .st3, .st4 {
        stroke-width: .4px;
      }

      .st2, .st3, .st4, .st5 {
        fill: none;
      }

      .st6 {
        fill: #78c679;
      }

      .st3 {
        stroke: #bdbdbd;
      }

      .st7 {
        fill: #007fae;
      }

      .st7, .st8, .st9 {
        isolation: isolate;
      }

      .st7, .st9 {
        font-family: SegoeUI-Bold, 'Segoe UI';
        font-size: 7.2px;
        font-weight: 700;
      }

      .st4 {
        stroke: #4b4b4b;
      }

      .st10 {
        fill: #e3e3e3;
      }

      .st8 {
        font-family: SegoeUI, 'Segoe UI';
        font-size: 7.9px;
      }

      .st8, .st9 {
        fill: #4b4b4b;
      }

      .st11 {
        fill: #addd8e;
      }

      .st5 {
        stroke: #007fae;
        stroke-width: 1.3px;
      }
    </style>
  </defs>
  <path class="st11" d="M154.5,15.4l8.5.4.4,14.4.4,1.3h-9.5v-2.3l.2-13.4v-.4Z"/>
  <path class="st2" d="M154.5,15.4l8.5.4.4,14.4.4,1.3h-9.5v-2.3l.2-13.4v-.4Z"/>
  <path class="st10" d="M98.9,24l3.9-1.4,5.3-.2.8,3.4-1.2,4-2.2,3-1-2-5.9,1.1.3-7.9Z"/>
  <path class="st2" d="M98.9,24l3.9-1.4,5.3-.2.8,3.4-1.2,4-2.2,3-1-2-5.9,1.1.3-7.9Z"/>
  <path class="st10" d="M112.3,2.2l-2.4,4.5.3,1.7-.5,1.1h-1.4c0-.1-1.7-2.4-1.7-2.4l-1.9.4-.6-.7-2.6,2.8-3.1-8.4h2.8c0,.1.4.1.4.1h1.3c0,.1.9.2.9.2h.8c0,0,.3,0,.3,0h.5l1.3.2h.7l1.7.2h1.8c0,0,1.4.2,1.4.2Z"/>
  <path class="st2" d="M112.3,2.2l-2.4,4.5.3,1.7-.5,1.1h-1.4c0-.1-1.7-2.4-1.7-2.4l-1.9.4-.6-.7-2.6,2.8-3.1-8.4h2.8c0,.1.4.1.4.1h1.3c0,.1.9.2.9.2h.8c0,0,.3,0,.3,0h.5l1.3.2h.7l1.7.2h1.8c0,0,1.4.2,1.4.2Z"/>
  <path class="st10" d="M131.4,56.5l.7-.6.9,2.2,1.9.4,1.6-1.8,1.2,2,.2,1.3,2.2,1,2.2-1.2,1.7,3-.8,1.4,1.1,1,.6,3-2.5,3.9h-2.4c0-.1-.7-.2-.7-.2h-2.3c0-.1-1.2-.1-1.2-.1h-.8c0-.1-.1-.1-.1-.1h-2.1c0,0-1.5,0-1.5,0h-1.2c0-.1,1.3-15.1,1.3-15.1Z"/>
  <path class="st2" d="M131.4,56.5l.7-.6.9,2.2,1.9.4,1.6-1.8,1.2,2,.2,1.3,2.2,1,2.2-1.2,1.7,3-.8,1.4,1.1,1,.6,3-2.5,3.9h-2.4c0-.1-.7-.2-.7-.2h-2.3c0-.1-1.2-.1-1.2-.1h-.8c0-.1-.1-.1-.1-.1h-2.1c0,0-1.5,0-1.5,0h-1.2c0-.1,1.3-15.1,1.3-15.1Z"/>
  <path class="st0" d="M98.4,1.2l3.1,8.4-3.4-.3-.3,3.3-1.4-.5-2,2.1-2.7-1.4-2.2-3.1-2.8-1.8h-.1c0-.1.5-1.2.5-1.2v-.2l.7-1.4h0c0,0,.1-.2.1-.2v-.6c-.1,0,0-.3,0-.3l-.2-.9v-.2h0c0-.1-.1-.2-.1-.2h-.1v-.3l.7-1.4h.3v-.4c-.1,0-.1-.3-.1-.3h.1c0-.1,2.3.1,2.3.1l2.5.3h.6c0,.1.4.1.4.1h.4l.9.2h.1l2.7.2Z"/>
  <path class="st2" d="M98.4,1.2l3.1,8.4-3.4-.3-.3,3.3-1.4-.5-2,2.1-2.7-1.4-2.2-3.1-2.8-1.8h-.1c0-.1.5-1.2.5-1.2v-.2l.7-1.4h0c0,0,.1-.2.1-.2v-.6c-.1,0,0-.3,0-.3l-.2-.9v-.2h0c0-.1-.1-.2-.1-.2h-.1v-.3l.7-1.4h.3v-.4c-.1,0-.1-.3-.1-.3h.1c0-.1,2.3.1,2.3.1l2.5.3h.6c0,.1.4.1.4.1h.4l.9.2h.1l2.7.2Z"/>
  <path class="st10" d="M80.9,11.8l.7.9-.5,1.9,2.4,2,.5,2.3,2.4,1.8-2.3,4.1-2.8-1.7-1.4,1.6-1.2,1.8-2.1-2.1.4-1.8-1.2-3.9h0l.8-.8h.3c0,.1.2.3.2.3h.1l.2-.2h0v-.2l1.2-2,1-1.8.8-1.4.5-.8Z"/>
  <path class="st2" d="M80.9,11.8l.7.9-.5,1.9,2.4,2,.5,2.3,2.4,1.8-2.3,4.1-2.8-1.7-1.4,1.6-1.2,1.8-2.1-2.1.4-1.8-1.2-3.9h0l.8-.8h.3c0,.1.2.3.2.3h.1l.2-.2h0v-.2l1.2-2,1-1.8.8-1.4.5-.8Z"/>
  <path class="st11" d="M238.6,36.5l6.4-.2,1.7,3.3,3.9,2.4-.7,1.4-3.5.3,1.9,4.9-2.3.5.6,1.6-.7,4-6.7.9-1.6-1.4-9.5-6.3.3-3.9,1.5-1.4h1.4l-2.9-3.2v-1.9l-.8-.6.7-1.3,5.9,2.8,4.4-1.9Z"/>
  <path class="st2" d="M238.6,36.5l6.4-.2,1.7,3.3,3.9,2.4-.7,1.4-3.5.3,1.9,4.9-2.3.5.6,1.6-.7,4-6.7.9-1.6-1.4-9.5-6.3.3-3.9,1.5-1.4h1.4l-2.9-3.2v-1.9l-.8-.6.7-1.3,5.9,2.8,4.4-1.9Z"/>
  <path class="st10" d="M226.6,15.5l15.6-.2-.8,3.9,2.3,4.8-.7,3-2,3.2-2.2-.8-1.5,3-1.5-3.5-3.3,1.8-.4-3.4-1.5.8-3-.3-.7-2.9-3.8-2.6,3-1.2-2-2.5-.2-1.5,2-.3.7-1.3Z"/>
  <path class="st2" d="M226.6,15.5l15.6-.2-.8,3.9,2.3,4.8-.7,3-2,3.2-2.2-.8-1.5,3-1.5-3.5-3.3,1.8-.4-3.4-1.5.8-3-.3-.7-2.9-3.8-2.6,3-1.2-2-2.5-.2-1.5,2-.3.7-1.3Z"/>
  <path class="st0" d="M174.8,71.2l12.7-.8,7.9,11.8-.6.6.7,1.3,2.4,1.6-2.4,2.6-2.6,1.3-3.4-.4-7.1-3.6-5,.3-1.5-.8.9-1-.5-2.4,1.6-4.6-3.1-5.9Z"/>
  <path class="st2" d="M174.8,71.2l12.7-.8,7.9,11.8-.6.6.7,1.3,2.4,1.6-2.4,2.6-2.6,1.3-3.4-.4-7.1-3.6-5,.3-1.5-.8.9-1-.5-2.4,1.6-4.6-3.1-5.9Z"/>
  <path class="st0" d="M198.5,89.9l.8-.6,3.4,1.6,2.6,3.8.8,11.9-1,3.4-1.6-1.7-5.1-1-6.5.5-5,2.1-1.1-1.2-1.3-1.4-.5-.5-.6-.6.8-1.1-.5-1.5,2.5-2,.4-3.3,1.3-.9,2.5,1.1,1.5-2.6,3.8-.4,2.8-5.6Z"/>
  <path class="st2" d="M198.5,89.9l.8-.6,3.4,1.6,2.6,3.8.8,11.9-1,3.4-1.6-1.7-5.1-1-6.5.5-5,2.1-1.1-1.2-1.3-1.4-.5-.5-.6-.6.8-1.1-.5-1.5,2.5-2,.4-3.3,1.3-.9,2.5,1.1,1.5-2.6,3.8-.4,2.8-5.6Z"/>
  <path class="st11" d="M65.4,29.6l1.8.3.4,2.5,1.8,1.9-.6.8.9,2.7-.8.9,3.7,2.7-2,.2-.3,2.1h-.7c0-.1-2.1-1.4-2.1-1.4l-1.1.5v1c.1,0-1.5-.7-1.5-.7l-1.7,1.1h-2c0-.1.1.8.1.8l-.5-.9-2.3.3-1.5-1.1-2.3,1.3-1.7-1.9,1.2-3.8-1.4-2.4-1.2.3-1-2.5,1.1-.9,1.3.7,3.3-1.7,1,.4,4.9-2.8,3.2-.4Z"/>
  <path class="st2" d="M65.4,29.6l1.8.3.4,2.5,1.8,1.9-.6.8.9,2.7-.8.9,3.7,2.7-2,.2-.3,2.1h-.7c0-.1-2.1-1.4-2.1-1.4l-1.1.5v1c.1,0-1.5-.7-1.5-.7l-1.7,1.1h-2c0-.1.1.8.1.8l-.5-.9-2.3.3-1.5-1.1-2.3,1.3-1.7-1.9,1.2-3.8-1.4-2.4-1.2.3-1-2.5,1.1-.9,1.3.7,3.3-1.7,1,.4,4.9-2.8,3.2-.4Z"/>
  <path class="st0" d="M84.1,24.8l7.6,7.6,6,.6-5.4,7.6v.2c-.1,0-4.9-.8-4.9-.8l-1.9-1.4-2.2,1.4-1.3-5.7-3.6-3.7,2.1-1.5.5-1.4-1.1-3,1.4-1.6,2.8,1.7Z"/>
  <path class="st2" d="M84.1,24.8l7.6,7.6,6,.6-5.4,7.6v.2c-.1,0-4.9-.8-4.9-.8l-1.9-1.4-2.2,1.4-1.3-5.7-3.6-3.7,2.1-1.5.5-1.4-1.1-3,1.4-1.6,2.8,1.7Z"/>
  <path class="st0" d="M115.6,43.9h1.5l13.7.5-6.5,12.4-1.4-1-3.7-2.4-.8-3.1-2.3-2.3-.5-4.1Z"/>
  <path class="st2" d="M115.6,43.9h1.5l13.7.5-6.5,12.4-1.4-1-3.7-2.4-.8-3.1-2.3-2.3-.5-4.1Z"/>
  <path class="st0" d="M84,18.9h8.3c0,.1,4.1,2,4.1,2l2.5,3.1-.3,7.9-.9,1.1-6-.6-7.6-7.6,2.3-4.1-2.4-1.8Z"/>
  <path class="st2" d="M84,18.9h8.3c0,.1,4.1,2,4.1,2l2.5,3.1-.3,7.9-.9,1.1-6-.6-7.6-7.6,2.3-4.1-2.4-1.8Z"/>
  <path class="st10" d="M254,3.1l5,4.7,1.5,2.7h2.4l2.1,1.7.7.9-.4,1.1,2.5,3.7-5-.7-2.8-3.4-2.6-1,1-.9-1-.2-.6-1.7-.8.4-2-2.5h-1.4c0-.1-4-3.1-4-3.1l-1.6-1.5h1.5c0-.1.8-.1.8-.1h4.7Z"/>
  <path class="st2" d="M254,3.1l5,4.7,1.5,2.7h2.4l2.1,1.7.7.9-.4,1.1,2.5,3.7-5-.7-2.8-3.4-2.6-1,1-.9-1-.2-.6-1.7-.8.4-2-2.5h-1.4c0-.1-4-3.1-4-3.1l-1.6-1.5h1.5c0-.1.8-.1.8-.1h4.7Z"/>
  <path class="st0" d="M243.7,64.7l2.1-1.6.5,1,4-.6,1.1-2.7,2.3,3.9h2.2c0,0-1.3-2.4-1.3-2.4l2.4,1.1.5,2.5-2.1,2.8-1.7.7-.4,1.6.8.3,9.7-10.9,1.1.7-10.6,11-4.5,7.8-.5-2.2-4.1-1.8-7.2.6-6.5,1.9v-2.9c.1,0-1.9-2.8-1.9-2.8l2.4-.7,12.5-2.9,1.1-2.6-1.9-1.8Z"/>
  <path class="st2" d="M243.7,64.7l2.1-1.6.5,1,4-.6,1.1-2.7,2.3,3.9h2.2c0,0-1.3-2.4-1.3-2.4l2.4,1.1.5,2.5-2.1,2.8-1.7.7-.4,1.6.8.3,9.7-10.9,1.1.7-10.6,11-4.5,7.8-.5-2.2-4.1-1.8-7.2.6-6.5,1.9v-2.9c.1,0-1.9-2.8-1.9-2.8l2.4-.7,12.5-2.9,1.1-2.6-1.9-1.8Z"/>
  <path class="st10" d="M166.6,4.1l-.4,11.8h-3.2c0-.1-8.5-.5-8.5-.5l.7-11.4h2.5c0,0,2.6,0,2.6,0h6.3Z"/>
  <path class="st2" d="M166.6,4.1l-.4,11.8h-3.2c0-.1-8.5-.5-8.5-.5l.7-11.4h2.5c0,0,2.6,0,2.6,0h6.3Z"/>
  <path class="st6" d="M105.5,32.8l1.5,2.8,2,.3,2.3,3.3-1.2,2.9-17.8-1.5,5.4-7.6.9-1.1,5.9-1.1,1,2Z"/>
  <path class="st2" d="M105.5,32.8l1.5,2.8,2,.3,2.3,3.3-1.2,2.9-17.8-1.5,5.4-7.6.9-1.1,5.9-1.1,1,2Z"/>
  <path class="st11" d="M170.6,30.8l3.5-.2-2.7,10.1,2.5,1.1-1.7,2.4-4.7-4.2-2.5,2.7-1.2-.4-.8,1.4-1-.8-1.6,1.4h-6.5l.4-12.9h9.5c0,.1-.4-1.2-.4-1.2l7.2.6Z"/>
  <path class="st2" d="M170.6,30.8l3.5-.2-2.7,10.1,2.5,1.1-1.7,2.4-4.7-4.2-2.5,2.7-1.2-.4-.8,1.4-1-.8-1.6,1.4h-6.5l.4-12.9h9.5c0,.1-.4-1.2-.4-1.2l7.2.6Z"/>
  <path class="st10" d="M14.7,47.3l.7,2.3,1.1.8,3.8-1.2,4.4.5-1.2,3.6-3.7.5-4.8,5.7h-.5c0-.1-.2-.1-.2-.1l-3.1-.2h-.5c0,0-2-.2-2-.2h-1.1c0-.1-2.4-.3-2.4-.3l.2-1.3.3-2.3.5-3.5v-.5c.1,0,.2-1,.2-1l2.6-2.2.2.3h0v.2c0,0,0,.3,0,.3l1.3.2h0c0-.1.1-.1.1-.1h.5c0,.1,1.2.1,1.2.1h.3c0-.1.3-.3.3-.3h0v-.2h.2l1.3-1h.2Z"/>
  <path class="st2" d="M14.7,47.3l.7,2.3,1.1.8,3.8-1.2,4.4.5-1.2,3.6-3.7.5-4.8,5.7h-.5c0-.1-.2-.1-.2-.1l-3.1-.2h-.5c0,0-2-.2-2-.2h-1.1c0-.1-2.4-.3-2.4-.3l.2-1.3.3-2.3.5-3.5v-.5c.1,0,.2-1,.2-1l2.6-2.2.2.3h0v.2c0,0,0,.3,0,.3l1.3.2h0c0-.1.1-.1.1-.1h.5c0,.1,1.2.1,1.2.1h.3c0-.1.3-.3.3-.3h0v-.2h.2l1.3-1h.2Z"/>
  <path class="st11" d="M242.5,13.3l4.2-2.3-.8,4.5.7,5,5,1.2-3.1,2.8h-2.1l-1.1-1.2-1.6.7-2.3-4.8.8-3.9.3-2Z"/>
  <path class="st2" d="M242.5,13.3l4.2-2.3-.8,4.5.7,5,5,1.2-3.1,2.8h-2.1l-1.1-1.2-1.6.7-2.3-4.8.8-3.9.3-2Z"/>
  <path class="st10" d="M23.5,53.3l2.7.2,3.9,6.6,1.2.2h-2.1c0-.1-2.2-.2-2.2-.2v.2l-3.2-.2h-.8c0-.1-.9-.2-.9-.2h-1.7c0-.1-3.2-.3-3.2-.3h-2.2c0-.1,4.8-5.8,4.8-5.8l3.7-.5Z"/>
  <path class="st2" d="M23.5,53.3l2.7.2,3.9,6.6,1.2.2h-2.1c0-.1-2.2-.2-2.2-.2v.2l-3.2-.2h-.8c0-.1-.9-.2-.9-.2h-1.7c0-.1-3.2-.3-3.2-.3h-2.2c0-.1,4.8-5.8,4.8-5.8l3.7-.5Z"/>
  <path class="st11" d="M92.2,40.8l.9.8,1.6,5,3,3.6v2.1c.1,0,1.2.8,1.2.8l-.3,3.8h-1.2c0-.1-2.6-.3-2.6-.3h-.4c0-.1-.2-.1-.2-.1h-.8c0-.1-1.5-.2-1.5-.2h-1c0-.1-.2-.1-.2-.1l-3.2-.3h-1c0-.1-.2-.1-.2-.1h-1.4c0-.1,2.1-7,2.1-7l.4-8.8,4.8.8Z"/>
  <path class="st2" d="M92.2,40.8l.9.8,1.6,5,3,3.6v2.1c.1,0,1.2.8,1.2.8l-.3,3.8h-1.2c0-.1-2.6-.3-2.6-.3h-.4c0-.1-.2-.1-.2-.1h-.8c0-.1-1.5-.2-1.5-.2h-1c0-.1-.2-.1-.2-.1l-3.2-.3h-1c0-.1-.2-.1-.2-.1h-1.4c0-.1,2.1-7,2.1-7l.4-8.8,4.8.8Z"/>
  <path class="st11" d="M195.5,88.3l1.8,1.8,1.2-.2-2.8,5.6-3.8.4-1.5,2.6-2.5-1.1-1.3.9-.4,3.3-2.5,2,.5,1.5-.8,1.1h-.1c0-.1-1.9-2-1.9-2h0l-2.6-2.7-1.8-1.8-.9-.9-1.6-1.7-2.1-2.1-.6-.6-2.1-2.1,2-2.1v-1.2c-.1,0,1.2-.6,1.2-.6l.3-1.8,2.7-1.5,1.5.8,5-.3,7.1,3.6,3.4.4,2.6-1.3Z"/>
  <path class="st2" d="M195.5,88.3l1.8,1.8,1.2-.2-2.8,5.6-3.8.4-1.5,2.6-2.5-1.1-1.3.9-.4,3.3-2.5,2,.5,1.5-.8,1.1h-.1c0-.1-1.9-2-1.9-2h0l-2.6-2.7-1.8-1.8-.9-.9-1.6-1.7-2.1-2.1-.6-.6-2.1-2.1,2-2.1v-1.2c-.1,0,1.2-.6,1.2-.6l.3-1.8,2.7-1.5,1.5.8,5-.3,7.1,3.6,3.4.4,2.6-1.3Z"/>
  <path class="st11" d="M221.9,51.1l1.2.5,1.7-2.1,1.3,1.1,2-2.7,9.5,6.3-2.8,3.9,1.7,1.9-.9,2.6,4.8,3.3,3.3-1.2,1.9,1.8-1.1,2.6-12.5,2.9,1.2-1.3-1.9.2-.4-9.5-2,.7-.3-1-9.2-5.6,1.5-1.2-.8-1.6.5-1.2,1.3-.4Z"/>
  <path class="st2" d="M221.9,51.1l1.2.5,1.7-2.1,1.3,1.1,2-2.7,9.5,6.3-2.8,3.9,1.7,1.9-.9,2.6,4.8,3.3,3.3-1.2,1.9,1.8-1.1,2.6-12.5,2.9,1.2-1.3-1.9.2-.4-9.5-2,.7-.3-1-9.2-5.6,1.5-1.2-.8-1.6.5-1.2,1.3-.4Z"/>
  <path class="st11" d="M168.4,57.2l6.7-1.5,2.8-1.4,5.5.8-.9,1.9.3,3.2-1,1.2.9,3.6,4.8,5.4-12.7.8-1.4-2.7-2.9-2-1.8-3.7-.3-4.9v-.7Z"/>
  <path class="st2" d="M168.4,57.2l6.7-1.5,2.8-1.4,5.5.8-.9,1.9.3,3.2-1,1.2.9,3.6,4.8,5.4-12.7.8-1.4-2.7-2.9-2-1.8-3.7-.3-4.9v-.7Z"/>
  <path class="st10" d="M271.3,15l-.7.2-1.7-3-.4-4.3-1.6-2.5-3.8-.6.4,2,1.6,1.2,1.2-.4v2.5c.1,0,2.2,3.1,2.2,3.1l2.4,8.1-3.1-3.4-2.5-3.7.4-1.1-.7-.9-2.1-1.7h-2.4l-1.5-2.7-5-4.7h3.8c0,0,2.2-.2,2.2-.2h2.7c0-.1,4-.2,4-.2h1.2l3.4,12.3Z"/>
  <path class="st2" d="M271.3,15l-.7.2-1.7-3-.4-4.3-1.6-2.5-3.8-.6.4,2,1.6,1.2,1.2-.4v2.5c.1,0,2.2,3.1,2.2,3.1l2.4,8.1-3.1-3.4-2.5-3.7.4-1.1-.7-.9-2.1-1.7h-2.4l-1.5-2.7-5-4.7h3.8c0,0,2.2-.2,2.2-.2h2.7c0-.1,4-.2,4-.2h1.2l3.4,12.3Z"/>
  <path class="st11" d="M271.3,15l8.1,17.3-3.8-7.1-2.4-1.4-2.6-8.7.6-.2h.1ZM273.6,55.3l4.8-2.9,1.9-.2,1.3-11-2.1-8.5,1.9,3.6.7,4.9-1.4,12.5-7,2.2-.2-.6h.1ZM275.4,29.9l-2-3.6,2.9,2.1.5,2.6-1.7-.2.2-.9h.1ZM264.2,37.2l.5-9.2h1c0,0,1.1-1.1,1.1-1.1l-.3-1.4,2.7-.5,2.2,1.5,1.9,4.3.2,7.7-1.4,1.9h-3l-1.1-3.4h-4l.2.2Z"/>
  <path class="st2" d="M271.3,15l8.1,17.3-3.8-7.1-2.4-1.4-2.6-8.7.6-.2h.1ZM273.6,55.3l4.8-2.9,1.9-.2,1.3-11-2.1-8.5,1.9,3.6.7,4.9-1.4,12.5-7,2.2-.2-.6h.1ZM275.4,29.9l-2-3.6,2.9,2.1.5,2.6-1.7-.2.2-.9h.1ZM264.2,37.2l.5-9.2h1c0,0,1.1-1.1,1.1-1.1l-.3-1.4,2.7-.5,2.2,1.5,1.9,4.3.2,7.7-1.4,1.9h-3l-1.1-3.4h-4l.2.2Z"/>
  <path class="st0" d="M127.7,25.8l5.6-.8v-1.2c.1,0,5.3.8,5.3.8v3.5c-.1,0-.7,16.3-.7,16.3h-3.6l-.8-3-3.8-4v-1.5l-4-1.1-.9-3.5,3.1-.5-.8-1.3,1.6-.5-1-3.2Z"/>
  <path class="st2" d="M127.7,25.8l5.6-.8v-1.2c.1,0,5.3.8,5.3.8v3.5c-.1,0-.7,16.3-.7,16.3h-3.6l-.8-3-3.8-4v-1.5l-4-1.1-.9-3.5,3.1-.5-.8-1.3,1.6-.5-1-3.2Z"/>
  <path class="st10" d="M118.5,22.5l6.1.3,1.1-.5,2,3.5,1,3.2-1.6.5.8,1.3-3.1.5.9,3.5-.6-1.2-4.7-3-2.4-.3.5-7.8Z"/>
  <path class="st2" d="M118.5,22.5l6.1.3,1.1-.5,2,3.5,1,3.2-1.6.5.8,1.3-3.1.5.9,3.5-.6-1.2-4.7-3-2.4-.3.5-7.8Z"/>
  <path class="st11" d="M197.7,57.3l2.7.5,1.8-.7,4.1,1.8,1.7-1.3,2.1,1.3,1.4,5.4,1.6,1.3,1,1.9-.7,8h-13.7c0,.1-.7.6-.7.6l-2.1-1.1,1.6-6.5-.8-11.2Z"/>
  <path class="st2" d="M197.7,57.3l2.7.5,1.8-.7,4.1,1.8,1.7-1.3,2.1,1.3,1.4,5.4,1.6,1.3,1,1.9-.7,8h-13.7c0,.1-.7.6-.7.6l-2.1-1.1,1.6-6.5-.8-11.2Z"/>
  <path class="st11" d="M172.5,16.1h4.6v5.9l1.7.7v1.5c-.1,0,1.6.8,1.6.8l-.9,2.6-.9,1.1-1.5-.4-.8,2.4h-2.2c0-.1-3.5.1-3.5.1l1.9-14.7Z"/>
  <path class="st2" d="M172.5,16.1h4.6v5.9l1.7.7v1.5c-.1,0,1.6.8,1.6.8l-.9,2.6-.9,1.1-1.5-.4-.8,2.4h-2.2c0-.1-3.5.1-3.5.1l1.9-14.7Z"/>
  <path class="st10" d="M211.4,19.4l4.9,2.2.5,2.3,3.9,1.2,2,3.8-.2,3.4-1.2-.5-2.5,1.3-5.8,4.9-1.9-2-1.1-3.9-2.4-1.5,3.8-11.2Z"/>
  <path class="st2" d="M211.4,19.4l4.9,2.2.5,2.3,3.9,1.2,2,3.8-.2,3.4-1.2-.5-2.5,1.3-5.8,4.9-1.9-2-1.1-3.9-2.4-1.5,3.8-11.2Z"/>
  <path class="st11" d="M126,14.4l12.9.5-.3,9.7-5.2-.8v1.2c-.1,0-5.7.8-5.7.8l-2-3.5-1.1.5-.3-2.3,2.1-1.2-.4-4.1v-.8Z"/>
  <path class="st2" d="M126,14.4l12.9.5-.3,9.7-5.2-.8v1.2c-.1,0-5.7.8-5.7.8l-2-3.5-1.1.5-.3-2.3,2.1-1.2-.4-4.1v-.8Z"/>
  <path class="st0" d="M192.4,15.1l4.2.4,2.2,1.8,3,.2-7.4,15.1-3.2-4.4-6-3.6,1.4-6,2.3.4,1.4-2.7h1.2l.9-1.2Z"/>
  <path class="st2" d="M192.4,15.1l4.2.4,2.2,1.8,3,.2-7.4,15.1-3.2-4.4-6-3.6,1.4-6,2.3.4,1.4-2.7h1.2l.9-1.2Z"/>
  <path class="st11" d="M94.7,46.6l15.5,1.3-.8,1.3,1.8.3-1.9.7-.9,2.8.2,4.5-1.1.3h0c0-.1-.1-.1-.1-.1h-1.1c0,0-.9-.2-.9-.2h-.6c0-.1-1.4-.2-1.4-.2h-.6c0-.1-1.5-.2-1.5-.2h-.8c0-.1-.6-.1-.6-.1h-1c0-.1-.3-.1-.3-.1l.3-3.8-1.1-.8v-2.1c-.1,0-3.1-3.6-3.1-3.6Z"/>
  <path class="st2" d="M94.7,46.6l15.5,1.3-.8,1.3,1.8.3-1.9.7-.9,2.8.2,4.5-1.1.3h0c0-.1-.1-.1-.1-.1h-1.1c0,0-.9-.2-.9-.2h-.6c0-.1-1.4-.2-1.4-.2h-.6c0-.1-1.5-.2-1.5-.2h-.8c0-.1-.6-.1-.6-.1h-1c0-.1-.3-.1-.3-.1l.3-3.8-1.1-.8v-2.1c-.1,0-3.1-3.6-3.1-3.6Z"/>
  <path class="st10" d="M247,3.3l1.6,1.5,1.3,5.1-3.2,1.1-4.2,2.3-2.6-2.5-5.3-1.9-.2-2.3,1.3-1.5-.3-1.3v-.4h7.1c0-.1,1-.1,1-.1h3.5Z"/>
  <path class="st2" d="M247,3.3l1.6,1.5,1.3,5.1-3.2,1.1-4.2,2.3-2.6-2.5-5.3-1.9-.2-2.3,1.3-1.5-.3-1.3v-.4h7.1c0-.1,1-.1,1-.1h3.5Z"/>
  <path class="st10" d="M17.3,40.8l11.3,1.8-1.1,3.3-2.1.9v1.8c.1,0-.7,1.1-.7,1.1l-4.4-.5-3.8,1.2-1.1-.8-.7-2.3h0l-.2-2.2.7-.6.3-.3v-.3c-.1,0-.1,0-.1,0h0c0-.1-.3-1.1-.3-1.1l1.9-2.1.3.2Z"/>
  <path class="st2" d="M17.3,40.8l11.3,1.8-1.1,3.3-2.1.9v1.8c.1,0-.7,1.1-.7,1.1l-4.4-.5-3.8,1.2-1.1-.8-.7-2.3h0l-.2-2.2.7-.6.3-.3v-.3c-.1,0-.1,0-.1,0h0c0-.1-.3-1.1-.3-1.1l1.9-2.1.3.2Z"/>
  <path class="st11" d="M187.6,4.2l-1.2,1.1-.4,2.4.6,10.9-1.4,6-4.3-2h-2.1c0,.1-1.7-.6-1.7-.6V4.2h6c0,.1,2.2.1,2.2.1h1.9c0-.1.4-.1.4-.1Z"/>
  <path class="st2" d="M187.6,4.2l-1.2,1.1-.4,2.4.6,10.9-1.4,6-4.3-2h-2.1c0,.1-1.7-.6-1.7-.6V4.2h6c0,.1,2.2.1,2.2.1h1.9c0-.1.4-.1.4-.1Z"/>
  <path class="st10" d="M208,42.2l3.8-3.2,2.9,3.3,3.4,1.9.9,3.5-6,3.2-1-1.3-3.2.5-.8-7.9Z"/>
  <path class="st2" d="M208,42.2l3.8-3.2,2.9,3.3,3.4,1.9.9,3.5-6,3.2-1-1.3-3.2.5-.8-7.9Z"/>
  <path class="st11" d="M139,14.9l15.5.9-.2,13.4-15.7-1.1v-3.5c.1,0,.4-9.7.4-9.7Z"/>
  <path class="st2" d="M139,14.9l15.5.9-.2,13.4-15.7-1.1v-3.5c.1,0,.4-9.7.4-9.7Z"/>
  <path class="st0" d="M201.8,17.5l2.8-7,.3-4.9,7.9.9.6,1.4,2.4,1.3v1.5c.1,0-1,1.3-1,1.3l.4,1,4-.4,2.1,3-.2,1.5,2.9,1.5,2,2.5-3,1.2-2.3,2.8-3.9-1.2-.5-2.3-4.9-2.2-.7.7-.9-.9-4.3.6-1.1-1.8-1.6-.2v.8c-.1,0-1-1.1-1-1.1Z"/>
  <path class="st2" d="M201.8,17.5l2.8-7,.3-4.9,7.9.9.6,1.4,2.4,1.3v1.5c.1,0-1,1.3-1,1.3l.4,1,4-.4,2.1,3-.2,1.5,2.9,1.5,2,2.5-3,1.2-2.3,2.8-3.9-1.2-.5-2.3-4.9-2.2-.7.7-.9-.9-4.3.6-1.1-1.8-1.6-.2v.8c-.1,0-1-1.1-1-1.1Z"/>
  <path class="st0" d="M173.9,41.8l6.5,2.6,2.6,2.4,3.1,4.7-.3.9-2.4,2.7-5.5-.8-2.8,1.4-6.7,1.5-4-3.1,1.3-1.5,6.5-8.4,1.7-2.4Z"/>
  <path class="st2" d="M173.9,41.8l6.5,2.6,2.6,2.4,3.1,4.7-.3.9-2.4,2.7-5.5-.8-2.8,1.4-6.7,1.5-4-3.1,1.3-1.5,6.5-8.4,1.7-2.4Z"/>
  <path class="st0" d="M48.3,29.7l.3,2h1c0-.1,1,2.6,1,2.6l1,2.5,1.2-.3,1.4,2.4-1.2,3.8,1.7,1.9-2.8,4-2.8.9-4.8-6.4-1.7-.8v-1l-1.5-1.1,1-1.4-1.3-3.7.6-1.1-2.2-1.1h0v-.7l4.8-2.1h.1c0,0,.6-.6.6-.6h.2l1,.2h.4c0,.1.2.2.2.2h.3c0,.1,1.5-.2,1.5-.2h0Z"/>
  <path class="st2" d="M48.3,29.7l.3,2h1c0-.1,1,2.6,1,2.6l1,2.5,1.2-.3,1.4,2.4-1.2,3.8,1.7,1.9-2.8,4-2.8.9-4.8-6.4-1.7-.8v-1l-1.5-1.1,1-1.4-1.3-3.7.6-1.1-2.2-1.1h0v-.7l4.8-2.1h.1c0,0,.6-.6.6-.6h.2l1,.2h.4c0,.1.2.2.2.2h.3c0,.1,1.5-.2,1.5-.2h0Z"/>
  <path class="st0" d="M69.6,43.6v3l-2.6,4.1-.4,3.7h0l-.7-.2h0c0,0-.2-.6-.2-.6l-.2-.2h-.1c0,.1-1,.9-1,.9v.3c-.1,0-.3.5-.3.5h-.6v-.2l-3.6,1h-.1c0,.1-1.3-6.3-1.3-6.3l-3.8-5,2.3-1.3,1.5,1.1,2.3-.3.5.9v-.9c-.1,0,1.9.1,1.9.1l1.7-1.1,1.6.7v-1c-.1,0,1-.5,1-.5l2.1,1.3Z"/>
  <path class="st2" d="M69.6,43.6v3l-2.6,4.1-.4,3.7h0l-.7-.2h0c0,0-.2-.6-.2-.6l-.2-.2h-.1c0,.1-1,.9-1,.9v.3c-.1,0-.3.5-.3.5h-.6v-.2l-3.6,1h-.1c0,.1-1.3-6.3-1.3-6.3l-3.8-5,2.3-1.3,1.5,1.1,2.3-.3.5.9v-.9c-.1,0,1.9.1,1.9.1l1.7-1.1,1.6.7v-1c-.1,0,1-.5,1-.5l2.1,1.3Z"/>
  <path class="st11" d="M235.4,3.8l.3,1.3-1.3,1.5.2,2.3,5.3,1.9,2.6,2.5-.3,2-15.6.2,2-8.2,2.2-1.2-3.1-2.3h1.2c0,.1.8,0,.8,0h5.7Z"/>
  <path class="st2" d="M235.4,3.8l.3,1.3-1.3,1.5.2,2.3,5.3,1.9,2.6,2.5-.3,2-15.6.2,2-8.2,2.2-1.2-3.1-2.3h1.2c0,.1.8,0,.8,0h5.7Z"/>
  <path class="st10" d="M157.1,62.9l6.6-6.6,3.3,1.8,1.4-.2.3,4.9,1.8,3.7-4.9,4.7-4.9-.2-.4-4.7-3.2-3.4Z"/>
  <path class="st2" d="M157.1,62.9l6.6-6.6,3.3,1.8,1.4-.2.3,4.9,1.8,3.7-4.9,4.7-4.9-.2-.4-4.7-3.2-3.4Z"/>
  <path class="st10" d="M273.7,55.8l-8.2,5,.9-2.2,7.1-3.4.2.6ZM245,36.3h7.6c0,.1,4,.3,4,.3l-.8,3.2,2.6.4,1.2-3.9,4.6,1h4c0-.1,1.1,3.2,1.1,3.2l-2.6,2.3-1.9,4.6h-1.2l-.2,1.6-2.5,1.8-2.7-.8-5.4.2-1.3-1.3-1.1.5-1.9-.7-1.9-4.9,3.5-.3.7-1.4-3.9-2.4-1.7-3.3h-.2Z"/>
  <path class="st2" d="M273.7,55.8l-8.2,5,.9-2.2,7.1-3.4.2.6ZM245,36.3h7.6c0,.1,4,.3,4,.3l-.8,3.2,2.6.4,1.2-3.9,4.6,1h4c0-.1,1.1,3.2,1.1,3.2l-2.6,2.3-1.9,4.6h-1.2l-.2,1.6-2.5,1.8-2.7-.8-5.4.2-1.3-1.3-1.1.5-1.9-.7-1.9-4.9,3.5-.3.7-1.4-3.9-2.4-1.7-3.3h-.2Z"/>
  <path class="st0" d="M112.7,22.1l5.8.4-.5,7.8-2,7,1.1,6.6h-1.5l-3.9-.5-1.2,1.1-.4-2.4,1.2-2.9-2.3-3.3-2-.3-1.5-2.8,2.2-3,1.2-4-.8-3.4,4.6-.3Z"/>
  <path class="st2" d="M112.7,22.1l5.8.4-.5,7.8-2,7,1.1,6.6h-1.5l-3.9-.5-1.2,1.1-.4-2.4,1.2-2.9-2.3-3.3-2-.3-1.5-2.8,2.2-3,1.2-4-.8-3.4,4.6-.3Z"/>
  <path class="st6" d="M36.1,47.2l-.2-5.5,1,.2,2.6-2.2,1.5.5,1.5,1.1v1l1.7.8,4.8,6.4-.3,2.2-2.2,2.8.6,1.2-2.5,3,1.4,1.1-.8.3h-.3c0,0-2,.6-2,.6l-1.9-2.5.8-1.1-2.3-2.8v-3.2c.1,0-2,0-2,0l-1.4-4Z"/>
  <path class="st2" d="M36.1,47.2l-.2-5.5,1,.2,2.6-2.2,1.5.5,1.5,1.1v1l1.7.8,4.8,6.4-.3,2.2-2.2,2.8.6,1.2-2.5,3,1.4,1.1-.8.3h-.3c0,0-2,.6-2,.6l-1.9-2.5.8-1.1-2.3-2.8v-3.2c.1,0-2,0-2,0l-1.4-4Z"/>
  <path class="st0" d="M194.4,32.6v1.8c.1,0,2,1.6,2,1.6l.9.7,1.2,4.3,2,.7-2.7,6.6v2.6c.1,0-3.5,1.1-3.5,1.1l-1.1,1.5-3.3,1.2-2.5-.3-1.6-2,.3-.9-3.1-4.7-2.6-2.4,7.3-7.3,6.7-4.5Z"/>
  <path class="st2" d="M194.4,32.6v1.8c.1,0,2,1.6,2,1.6l.9.7,1.2,4.3,2,.7-2.7,6.6v2.6c.1,0-3.5,1.1-3.5,1.1l-1.1,1.5-3.3,1.2-2.5-.3-1.6-2,.3-.9-3.1-4.7-2.6-2.4,7.3-7.3,6.7-4.5Z"/>
  <path class="st10" d="M211.5,64.3l4-2.6,2.7-3.6-.5-3.1,1.6.5,9.2,5.6.3,1,2-.7.4,9.5,1.9-.2-1.2,1.3-2.4.7-.9-.9.4-1.1-2.9-3.4-1.9-.5-1.1,1.1-4.4-2.2h-5.6c0,0-1.6-1.4-1.6-1.4Z"/>
  <path class="st2" d="M211.5,64.3l4-2.6,2.7-3.6-.5-3.1,1.6.5,9.2,5.6.3,1,2-.7.4,9.5,1.9-.2-1.2,1.3-2.4.7-.9-.9.4-1.1-2.9-3.4-1.9-.5-1.1,1.1-4.4-2.2h-5.6c0,0-1.6-1.4-1.6-1.4Z"/>
  <path class="st0" d="M172.2,44.2l-6.5,8.4-2.6-1.5-2.1-3.1-.9-1.8.7-1.1-.4-.8,1.6-1.4,1,.8.8-1.4,1.2.4,2.5-2.7,4.7,4.2Z"/>
  <path class="st2" d="M172.2,44.2l-6.5,8.4-2.6-1.5-2.1-3.1-.9-1.8.7-1.1-.4-.8,1.6-1.4,1,.8.8-1.4,1.2.4,2.5-2.7,4.7,4.2Z"/>
  <path class="st10" d="M219,47.7l1.7,3,1.1.4-1.3.4-.5,1.2.8,1.6-1.5,1.2-1.6-.5.5,3.1-2.7,3.6-4,2.6-1.4-5.4-2.1-1.3.8-7.5,3.2-.5,1,1.3,6-3.2Z"/>
  <path class="st2" d="M219,47.7l1.7,3,1.1.4-1.3.4-.5,1.2.8,1.6-1.5,1.2-1.6-.5.5,3.1-2.7,3.6-4,2.6-1.4-5.4-2.1-1.3.8-7.5,3.2-.5,1,1.3,6-3.2Z"/>
  <path class="st10" d="M92.3,40.6l17.8,1.5.4,2.4-.3,3.4-15.5-1.3-1.6-5-.9-.8v-.2Z"/>
  <path class="st2" d="M92.3,40.6l17.8,1.5.4,2.4-.3,3.4-15.5-1.3-1.6-5-.9-.8v-.2Z"/>
  <path class="st11" d="M79.9,24.7l1.1,3-.5,1.4-2.1,1.5,3.6,3.7,1.3,5.7-.6,1.3-4,.5-.9-1.1-5.2.7-3.7-2.7.8-.9-.9-2.7.6-.8,2.6-1.2,1.9-3.4,3-1.2.5-1,.9.4.4-1.4,1.2-1.8Z"/>
  <path class="st2" d="M79.9,24.7l1.1,3-.5,1.4-2.1,1.5,3.6,3.7,1.3,5.7-.6,1.3-4,.5-.9-1.1-5.2.7-3.7-2.7.8-.9-.9-2.7.6-.8,2.6-1.2,1.9-3.4,3-1.2.5-1,.9.4.4-1.4,1.2-1.8Z"/>
  <path class="st10" d="M25.5,48.6l10.6-1.4,1.4,4h2.1c0,0-.1,3.1-.1,3.1l2.3,2.8-.8,1.1,1.9,2.5h-2.5c0,0-.2,0-.2,0h-4c0-.1-4.8-.3-4.8-.3h-.1l-1.2-.2-3.9-6.6-2.7-.2,1.2-3.6.8-1.1Z"/>
  <path class="st2" d="M25.5,48.6l10.6-1.4,1.4,4h2.1c0,0-.1,3.1-.1,3.1l2.3,2.8-.8,1.1,1.9,2.5h-2.5c0,0-.2,0-.2,0h-4c0-.1-4.8-.3-4.8-.3h-.1l-1.2-.2-3.9-6.6-2.7-.2,1.2-3.6.8-1.1Z"/>
  <path class="st10" d="M62.6,23.1l.7,1.2-.5,1.5,1.5.6,1.1,3.2-3.2.4-4.9,2.8-1-.4-3.3,1.7-1.3-.7-1.1.9-1-2.7h-1c0,.1-.3-1.9-.3-1.9h0c0-.1.1-.5.1-.5v-.2h.1l.2-.3.2-.3h.2c0-.1.2-.4.2-.4h.1c0-.1.2-.1.2-.1h.1v-1.1c.1,0,.3-.1.3-.1h.3v-.2l-.2-1.3v-.3c-.1,0-.1-.1-.1-.1h0c0-.1.4-1.1.4-1.1h1.5c0-.1.9,1.1.9,1.1l.7-.9.4-.3h0v-1.4c.1,0,.3-.2.3-.2l2-1.3h.3c0-.1,1.7-1,1.7-1l.2-.2,1.2,1v.8l-.2.3v.2c-.1,0-.1,1.5-.1,1.5h.1c0,.1,2,.1,2,.1h.1l.6-.2h.5Z"/>
  <path class="st2" d="M62.6,23.1l.7,1.2-.5,1.5,1.5.6,1.1,3.2-3.2.4-4.9,2.8-1-.4-3.3,1.7-1.3-.7-1.1.9-1-2.7h-1c0,.1-.3-1.9-.3-1.9h0c0-.1.1-.5.1-.5v-.2h.1l.2-.3.2-.3h.2c0-.1.2-.4.2-.4h.1c0-.1.2-.1.2-.1h.1v-1.1c.1,0,.3-.1.3-.1h.3v-.2l-.2-1.3v-.3c-.1,0-.1-.1-.1-.1h0c0-.1.4-1.1.4-1.1h1.5c0-.1.9,1.1.9,1.1l.7-.9.4-.3h0v-1.4c.1,0,.3-.2.3-.2l2-1.3h.3c0-.1,1.7-1,1.7-1l.2-.2,1.2,1v.8l-.2.3v.2c-.1,0-.1,1.5-.1,1.5h.1c0,.1,2,.1,2,.1h.1l.6-.2h.5Z"/>
  <path class="st11" d="M223.1,22.3l3.8,2.6.7,2.9,3,.3,1.5-.8.4,3.4,3.3-1.8,1.5,3.5,1.5-3,2.2.8-2.4,6.3-4.4,1.9-5.9-2.8-5.7-3.3.2-3.4-2-3.8,2.3-2.8Z"/>
  <path class="st2" d="M223.1,22.3l3.8,2.6.7,2.9,3,.3,1.5-.8.4,3.4,3.3-1.8,1.5,3.5,1.5-3,2.2.8-2.4,6.3-4.4,1.9-5.9-2.8-5.7-3.3.2-3.4-2-3.8,2.3-2.8Z"/>
  <path class="st11" d="M115.6,43.9l.5,4.1,2.3,2.3.8,3.1,3.7,2.4-9.1,7.9-.4-.5-1-1.5-.7-1-.9-1.2-.5.4h-.2c0,.1-2.6,2-2.6,2l-.5-.7h0v-.5h0v-.5h0c0,0,.2-.4.2-.4h0c0-.1.1-.2.1-.2h.2l-.3-1.2v-.5c.1,0,.2-.1.2-.1h.1l1.1-.3-.2-4.5.9-2.8,1.9-.7-1.8-.3.8-1.3.3-3.4,1.2-1.1,3.9.5Z"/>
  <path class="st2" d="M115.6,43.9l.5,4.1,2.3,2.3.8,3.1,3.7,2.4-9.1,7.9-.4-.5-1-1.5-.7-1-.9-1.2-.5.4h-.2c0,.1-2.6,2-2.6,2l-.5-.7h0v-.5h0v-.5h0c0,0,.2-.4.2-.4h0c0-.1.1-.2.1-.2h.2l-.3-1.2v-.5c.1,0,.2-.1.2-.1h.1l1.1-.3-.2-4.5.9-2.8,1.9-.7-1.8-.3.8-1.3.3-3.4,1.2-1.1,3.9.5Z"/>
  <path class="st10" d="M75.8,18.7l1.2,3.9-.4,1.8,2.1,2.1-.4,1.4-.9-.4-.5,1-3,1.2-.3-4.3-1.6-.8v-2.5c.1,0-1.6.2-1.6.2v.7l-1.5-2.3-1.1.6-.4-2.2-2,.4.2-.3h0c0-.1.6-.6.6-.6h.3c0,0,.1-.2.1-.2h.1c0-.1.1-.2.1-.2l2-.7h.1c0-.1.2-.2.2-.2h.3c0-.1.2.2.2.2h.4c0,0,.1,0,.1,0h.1c0,0,.4,0,.4,0h.1c0-.1.3-.5.3-.5h.2c0-.1.2-.5.2-.5l2.1.4h.2v.2c.1,0,.2.3.2.3v.7c.1,0,.3.5.3.5h.1c0,.1.4.1.4.1h.1c0-.1.1-.1.1-.1h.7c0,.1.2.1.2.1Z"/>
  <path class="st2" d="M75.8,18.7l1.2,3.9-.4,1.8,2.1,2.1-.4,1.4-.9-.4-.5,1-3,1.2-.3-4.3-1.6-.8v-2.5c.1,0-1.6.2-1.6.2v.7l-1.5-2.3-1.1.6-.4-2.2-2,.4.2-.3h0c0-.1.6-.6.6-.6h.3c0,0,.1-.2.1-.2h.1c0-.1.1-.2.1-.2l2-.7h.1c0-.1.2-.2.2-.2h.3c0-.1.2.2.2.2h.4c0,0,.1,0,.1,0h.1c0,0,.4,0,.4,0h.1c0-.1.3-.5.3-.5h.2c0-.1.2-.5.2-.5l2.1.4h.2v.2c.1,0,.2.3.2.3v.7c.1,0,.3.5.3.5h.1c0,.1.4.1.4.1h.1c0-.1.1-.1.1-.1h.7c0,.1.2.1.2.1Z"/>
  <path class="st10" d="M138,44.4h9.3l1.8,9.3,3.1,4.4-7.4-.8-5.3,1.7-1.7-.3.7-1.4-1.4-3.1,1.4-4.5-1.3-1.2-.5-2.3-2.3-1.8h3.6Z"/>
  <path class="st2" d="M138,44.4h9.3l1.8,9.3,3.1,4.4-7.4-.8-5.3,1.7-1.7-.3.7-1.4-1.4-3.1,1.4-4.5-1.3-1.2-.5-2.3-2.3-1.8h3.6Z"/>
  <path class="st0" d="M160.4,44.3l.4.8-.7,1.1.9,1.8,2.1,3.1,2.6,1.5-1.3,1.5,4,3.1v.7l-1.4.2-3.3-1.8-6.6,6.6-3.5-.9v-2.2c-.1,0-1.4-1.7-1.4-1.7l-3.1-4.4-1.8-9.3h6.6c0,0,6.5,0,6.5,0Z"/>
  <path class="st2" d="M160.4,44.3l.4.8-.7,1.1.9,1.8,2.1,3.1,2.6,1.5-1.3,1.5,4,3.1v.7l-1.4.2-3.3-1.8-6.6,6.6-3.5-.9v-2.2c-.1,0-1.4-1.7-1.4-1.7l-3.1-4.4-1.8-9.3h6.6c0,0,6.5,0,6.5,0Z"/>
  <path class="st0" d="M211.4,19.4l-3.8,11.2-.5,1.2-1.6-.3-9.1,4.5-1.9-1.6v-1.8c-.1,0,7.3-15.1,7.3-15.1l.9,1.1v-.8c.1,0,1.7.2,1.7.2l1.1,1.8,4.3-.6.9.9.7-.7Z"/>
  <path class="st2" d="M211.4,19.4l-3.8,11.2-.5,1.2-1.6-.3-9.1,4.5-1.9-1.6v-1.8c-.1,0,7.3-15.1,7.3-15.1l.9,1.1v-.8c.1,0,1.7.2,1.7.2l1.1,1.8,4.3-.6.9.9.7-.7Z"/>
  <path class="st11" d="M202.7,90.9l1.2-.3.9-1.8.9,1,3.5-1.3.9,1.9,2.6,1.9-3.4,5.1-3.2,9.2-.8-11.9-2.6-3.8Z"/>
  <path class="st2" d="M202.7,90.9l1.2-.3.9-1.8.9,1,3.5-1.3.9,1.9,2.6,1.9-3.4,5.1-3.2,9.2-.8-11.9-2.6-3.8Z"/>
  <path class="st10" d="M227.7,3.8l3.1,2.3-2.2,1.2-2,8.2-.7,1.3-2,.3.2,1.5-2.9-1.5.2-1.5-2.1-3-4,.4-.4-1,1.1-1.3v-1.5c-.1,0-2.5-1.3-2.5-1.3l-.6-1.4-7.9-.9v-1.5h3.7c0,0,.4,0,.4,0h12.6c0-.1,1.9-.1,1.9-.1h4.1Z"/>
  <path class="st2" d="M227.7,3.8l3.1,2.3-2.2,1.2-2,8.2-.7,1.3-2,.3.2,1.5-2.9-1.5.2-1.5-2.1-3-4,.4-.4-1,1.1-1.3v-1.5c-.1,0-2.5-1.3-2.5-1.3l-.6-1.4-7.9-.9v-1.5h3.7c0,0,.4,0,.4,0h12.6c0-.1,1.9-.1,1.9-.1h4.1Z"/>
  <path class="st11" d="M229.6,72.7l2,2.8v2.9c-.1,0-12.7,8-12.7,8l-1.9-1.4-3.5-9.5.7-8-1-1.9h5.6c0,0,4.4,2.3,4.4,2.3l1.1-1.1,1.9.5,2.9,3.4-.4,1.1.9.9Z"/>
  <path class="st2" d="M229.6,72.7l2,2.8v2.9c-.1,0-12.7,8-12.7,8l-1.9-1.4-3.5-9.5.7-8-1-1.9h5.6c0,0,4.4,2.3,4.4,2.3l1.1-1.1,1.9.5,2.9,3.4-.4,1.1.9.9Z"/>
  <path class="st6" d="M166.2,15.9l6.3.2-1.9,14.7-7.2-.6-.4-14.4h3.2Z"/>
  <path class="st2" d="M166.2,15.9l6.3.2-1.9,14.7-7.2-.6-.4-14.4h3.2Z"/>
  <path class="st10" d="M246.6,50.7l3.9.8.5,2.1-2.3,5.4-2.8,2.9v1.2c-.1,0-2.2,1.6-2.2,1.6l-3.3,1.2-4.8-3.3.9-2.6-1.7-1.9,2.8-3.9,1.6,1.4,6.7-.9.7-4Z"/>
  <path class="st2" d="M246.6,50.7l3.9.8.5,2.1-2.3,5.4-2.8,2.9v1.2c-.1,0-2.2,1.6-2.2,1.6l-3.3,1.2-4.8-3.3.9-2.6-1.7-1.9,2.8-3.9,1.6,1.4,6.7-.9.7-4Z"/>
  <path class="st0" d="M248.6,4.8l4,3h1.4c0,.1,2,2.6,2,2.6l.8-.4.6,1.7,1,.2-1,.9,2.6,1,2.8,3.4-.7,1.7-3.7,1-3.2-4-2.7-1.4-2.6-4.6-1.3-5.1Z"/>
  <path class="st2" d="M248.6,4.8l4,3h1.4c0,.1,2,2.6,2,2.6l.8-.4.6,1.7,1,.2-1,.9,2.6,1,2.8,3.4-.7,1.7-3.7,1-3.2-4-2.7-1.4-2.6-4.6-1.3-5.1Z"/>
  <path class="st0" d="M213.4,75.5l3.5,9.5,1.9,1.4-6.1,5.9-2.6-1.9-.9-1.9-3.5,1.3-.9-1-.9,1.8-1.2.3-3.4-1.6-.8.6-1.2.2-1.8-1.8,2.4-2.6-2.4-1.6-.7-1.3.6-.6,4.3-6.6h13.7Z"/>
  <path class="st2" d="M213.4,75.5l3.5,9.5,1.9,1.4-6.1,5.9-2.6-1.9-.9-1.9-3.5,1.3-.9-1-.9,1.8-1.2.3-3.4-1.6-.8.6-1.2.2-1.8-1.8,2.4-2.6-2.4-1.6-.7-1.3.6-.6,4.3-6.6h13.7Z"/>
  <path class="st10" d="M249.9,9.9l2.6,4.6,2.7,1.4,3.2,4-.7.9-2.2-.3-3.9,1.2-5-1.2-.7-5,.8-4.5,3.2-1.1Z"/>
  <path class="st2" d="M249.9,9.9l2.6,4.6,2.7,1.4,3.2,4-.7.9-2.2-.3-3.9,1.2-5-1.2-.7-5,.8-4.5,3.2-1.1Z"/>
  <path class="st10" d="M177.2,4.2v12c-.1,0-4.7-.1-4.7-.1l-6.3-.2.4-11.8h5.2c0,.1.9.1.9.1h4.5Z"/>
  <path class="st2" d="M177.2,4.2v12c-.1,0-4.7-.1-4.7-.1l-6.3-.2.4-11.8h5.2c0,.1.9.1.9.1h4.5Z"/>
  <path class="st11" d="M228.3,35.6l-.7,1.3.8.6v1.9l2.9,3.2h-1.4l-1.5,1.4-.3,3.9-2,2.7-1.3-1.1-1.7,2.1-1.2-.5-1.1-.4-1.7-3-.9-3.5-3.4-1.9-2.9-3.3,1.2-1,5.8-4.9,2.5-1.3,1.2.5,5.7,3.3Z"/>
  <path class="st2" d="M228.3,35.6l-.7,1.3.8.6v1.9l2.9,3.2h-1.4l-1.5,1.4-.3,3.9-2,2.7-1.3-1.1-1.7,2.1-1.2-.5-1.1-.4-1.7-3-.9-3.5-3.4-1.9-2.9-3.3,1.2-1,5.8-4.9,2.5-1.3,1.2.5,5.7,3.3Z"/>
  <path class="st10" d="M66.6,54.4l.4-3.7,2.6-4.1,3.2-.5,1.2.7,4.9,5.9-.3,2.5h-1c0,0-2.7-.3-2.7-.3l-1.6-.2h-.9c0,0-.3,0-.3,0h-.5c0-.1-.7-.1-.7-.1h-.4c0-.1-.4-.1-.4-.1h-.5c0-.1-.9-.1-.9-.1h-.2c0,.1-.7.2-.7.2h0c0,.1-.2.2-.2.2h-.1l-.7-.3h-.2Z"/>
  <path class="st2" d="M66.6,54.4l.4-3.7,2.6-4.1,3.2-.5,1.2.7,4.9,5.9-.3,2.5h-1c0,0-2.7-.3-2.7-.3l-1.6-.2h-.9c0,0-.3,0-.3,0h-.5c0-.1-.7-.1-.7-.1h-.4c0-.1-.4-.1-.4-.1h-.5c0-.1-.9-.1-.9-.1h-.2c0,.1-.7.2-.7.2h0c0,.1-.2.2-.2.2h-.1l-.7-.3h-.2Z"/>
  <path class="st10" d="M154.3,29.2v2.2l-.4,12.9h-6.6c0,0-9.3,0-9.3,0l.6-16.3,15.7,1.1Z"/>
  <path class="st2" d="M154.3,29.2v2.2l-.4,12.9h-6.6c0,0-9.3,0-9.3,0l.6-16.3,15.7,1.1Z"/>
  <path class="st10" d="M152.2,58.1l1.3,1.7v2.2c.1,0,3.6.9,3.6.9l-3.5,2-.4,1.9.8,1.3-2.1,2.3.5,1.4-2.4.4h-2.6c0,0-3.1,0-3.1,0h-1.8l2.5-3.9-.6-3-1.1-1,.8-1.4-1.7-3-2.2,1.2-2.2-1-.2-1.3,1.7.3,5.3-1.7,7.4.8Z"/>
  <path class="st2" d="M152.2,58.1l1.3,1.7v2.2c.1,0,3.6.9,3.6.9l-3.5,2-.4,1.9.8,1.3-2.1,2.3.5,1.4-2.4.4h-2.6c0,0-3.1,0-3.1,0h-1.8l2.5-3.9-.6-3-1.1-1,.8-1.4-1.7-3-2.2,1.2-2.2-1-.2-1.3,1.7.3,5.3-1.7,7.4.8Z"/>
  <path class="st11" d="M174.8,71.2l3.1,5.9-1.6,4.6.5,2.4-.9,1-2.7,1.5-.3,1.8-1.3.6v1.2c.1,0-1.9,2.1-1.9,2.1l-2.3-2.4-1.8-1.9-.2-.3-1-1-.4-.4-.7-.8-1.1-1.2h0l-.5-.5-1.2-1.3-2.9-3-.4-.3h0l4.1-5.6-.6-2.6,4.9.2,4.9-4.7,2.9,2,1.4,2.7Z"/>
  <path class="st2" d="M174.8,71.2l3.1,5.9-1.6,4.6.5,2.4-.9,1-2.7,1.5-.3,1.8-1.3.6v1.2c.1,0-1.9,2.1-1.9,2.1l-2.3-2.4-1.8-1.9-.2-.3-1-1-.4-.4-.7-.8-1.1-1.2h0l-.5-.5-1.2-1.3-2.9-3-.4-.3h0l4.1-5.6-.6-2.6,4.9.2,4.9-4.7,2.9,2,1.4,2.7Z"/>
  <path class="st0" d="M155.2,4l-.7,11.4v.4l-15.5-.9.2-11.2h3.8c0,.1.6,0,.6,0h3.3c0,.1.6.1.6.1h1.4c0,.1,1.4.1,1.4.1h1.9c0,.1.7.1.7.1h2.3Z"/>
  <path class="st2" d="M155.2,4l-.7,11.4v.4l-15.5-.9.2-11.2h3.8c0,.1.6,0,.6,0h3.3c0,.1.6.1.6.1h1.4c0,.1,1.4.1,1.4.1h1.9c0,.1.7.1.7.1h2.3Z"/>
  <path class="st0" d="M125.7,34.8l4,1.1v1.5l3.8,4,.8,3h-3.5l-13.7-.5-1.1-6.6,2-7,2.4.3,4.7,3,.6,1.2Z"/>
  <path class="st2" d="M125.7,34.8l4,1.1v1.5l3.8,4,.8,3h-3.5l-13.7-.5-1.1-6.6,2-7,2.4.3,4.7,3,.6,1.2Z"/>
  <path class="st10" d="M87.4,40l-.4,8.8-2.1,6.9h-1.1c0,0-1.5-.2-1.5-.2h-.7c0-.1-1.6-.2-1.6-.2h-1.4c0-.1.3-2.6.3-2.6l-4.9-5.9-1.2-.7-3.2.5v-3h.7c0,.1.3-2,.3-2l2-.2,5.2-.7.9,1.1,4-.5.6-1.3,2.2-1.4,1.9,1.4Z"/>
  <path class="st2" d="M87.4,40l-.4,8.8-2.1,6.9h-1.1c0,0-1.5-.2-1.5-.2h-.7c0-.1-1.6-.2-1.6-.2h-1.4c0-.1.3-2.6.3-2.6l-4.9-5.9-1.2-.7-3.2.5v-3h.7c0,.1.3-2,.3-2l2-.2,5.2-.7.9,1.1,4-.5.6-1.3,2.2-1.4,1.9,1.4Z"/>
  <path class="st0" d="M193.2,53.5l1.9,2.3,2.6,1.5.8,11.2-1.6,6.5,2.1,1.1.7-.5-4.3,6.6-7.9-11.8-4.8-5.4-.9-3.6,1-1.2-.3-3.2.9-1.9,2.4-2.7,1.6,2,2.5.3,3.3-1.2Z"/>
  <path class="st2" d="M193.2,53.5l1.9,2.3,2.6,1.5.8,11.2-1.6,6.5,2.1,1.1.7-.5-4.3,6.6-7.9-11.8-4.8-5.4-.9-3.6,1-1.2-.3-3.2.9-1.9,2.4-2.7,1.6,2,2.5.3,3.3-1.2Z"/>
  <path class="st6" d="M160.7,71l.6,2.6-4.1,5.6-.2-.2-.7-.8-.9-.9-1.4-1.4-1.3-1.3-.9-.9h-.1c0,0-1.3-1.5-1.3-1.5h-.4l2.4-.4-.5-1.4,2.1-2.3-.8-1.3.4-1.9,3.5-2,3.2,3.4.4,4.7Z"/>
  <path class="st2" d="M160.7,71l.6,2.6-4.1,5.6-.2-.2-.7-.8-.9-.9-1.4-1.4-1.3-1.3-.9-.9h-.1c0,0-1.3-1.5-1.3-1.5h-.4l2.4-.4-.5-1.4,2.1-2.3-.8-1.3.4-1.9,3.5-2,3.2,3.4.4,4.7Z"/>
  <path class="st0" d="M134.4,44.4l2.3,1.8.5,2.3,1.3,1.2-1.4,4.5,1.4,3.1-.7,1.4-1.2-2-1.6,1.8-1.9-.4-.9-2.2-.7.6-5.1,1.3-2-1,6.5-12.4h3.5Z"/>
  <path class="st2" d="M134.4,44.4l2.3,1.8.5,2.3,1.3,1.2-1.4,4.5,1.4,3.1-.7,1.4-1.2-2-1.6,1.8-1.9-.4-.9-2.2-.7.6-5.1,1.3-2-1,6.5-12.4h3.5Z"/>
  <path class="st10" d="M126.5,3h.2c0,0,2.1.2,2.1.2h.6c0,.1,1.5.2,1.5.2h2.1c0,.1.1.1.1.1h3.1c0,0,.7,0,.7,0h1.4c0,.1.8.1.8.1l-.2,11.2-12.9-.5.5-11.4Z"/>
  <path class="st2" d="M126.5,3h.2c0,0,2.1.2,2.1.2h.6c0,.1,1.5.2,1.5.2h2.1c0,.1.1.1.1.1h3.1c0,0,.7,0,.7,0h1.4c0,.1.8.1.8.1l-.2,11.2-12.9-.5.5-11.4Z"/>
  <path class="st0" d="M126.5,3l-.5,11.4v.8l-.5-.8h-2c0,.1-.3-1-.3-1l-1.5.6-1.1-.8-.9,1.4-2.5-1.2-4.2,1.6.2-3.5-3-3.1-.3-1.7,2.4-4.5h1.6c0,.1.3.1.3.1h2c0,.1.4.1.4.1h.9c0-.1,1,0,1,0h1.4c0,.1.9.2.9.2h1.3c0,.1.6.1.6.1l3.8.3Z"/>
  <path class="st2" d="M126.5,3l-.5,11.4v.8l-.5-.8h-2c0,.1-.3-1-.3-1l-1.5.6-1.1-.8-.9,1.4-2.5-1.2-4.2,1.6.2-3.5-3-3.1-.3-1.7,2.4-4.5h1.6c0,.1.3.1.3.1h2c0,.1.4.1.4.1h.9c0-.1,1,0,1,0h1.4c0,.1.9.2.9.2h1.3c0,.1.6.1.6.1l3.8.3Z"/>
  <path class="st10" d="M39.1,32.9l2.2,1.1-.6,1.1,1.3,3.7-1,1.4-1.5-.5-2.6,2.2-1-.2.2,5.5-10.6,1.4v-1.8c-.1,0,2-.9,2-.9l1.1-3.3-11.3-1.8.8-.5h.2c0,.1,1.9-1.7,1.9-1.7h.2l2.6-1.4h3.4c0-.1,3.4.3,3.4.3h.3l2.1-.6h0c0-.1,1-1,1-1h.3c0,.1.4,0,.4,0l.3-.2h.1c0-.1,1.3-.7,1.3-.7l.2-.4h0l1.8-.2h.1c0-.1,1.3-1.4,1.3-1.4h.1Z"/>
  <path class="st2" d="M39.1,32.9l2.2,1.1-.6,1.1,1.3,3.7-1,1.4-1.5-.5-2.6,2.2-1-.2.2,5.5-10.6,1.4v-1.8c-.1,0,2-.9,2-.9l1.1-3.3-11.3-1.8.8-.5h.2c0,.1,1.9-1.7,1.9-1.7h.2l2.6-1.4h3.4c0-.1,3.4.3,3.4.3h.3l2.1-.6h0c0-.1,1-1,1-1h.3c0,.1.4,0,.4,0l.3-.2h.1c0-.1,1.3-.7,1.3-.7l.2-.4h0l1.8-.2h.1c0-.1,1.3-1.4,1.3-1.4h.1Z"/>
  <path class="st10" d="M54.7,44.6l3.8,5,1.3,6.4h-.2l-1.9.5h-.1c0-.1-.3.1-.3.1h0c0,0-.8-.1-.8-.1h-.1l-.3.5h0c0,.1.1.3.1.3h-.1c0,.1-.1.3-.1.3h-.2l-2,1.1h-.2c0,.1-.2.1-.2.1h-.2c0-.1.1-.4.1-.4h.1c0-.1-.1-.4-.1-.4h-.1c0-.1-.1,0-.1,0l-3.5.9-3.2.9h-.3l-1.4-1.1,2.5-3-.6-1.2,2.2-2.8.3-2.2,2.8-.9,2.8-4Z"/>
  <path class="st2" d="M54.7,44.6l3.8,5,1.3,6.4h-.2l-1.9.5h-.1c0-.1-.3.1-.3.1h0c0,0-.8-.1-.8-.1h-.1l-.3.5h0c0,.1.1.3.1.3h-.1c0,.1-.1.3-.1.3h-.2l-2,1.1h-.2c0,.1-.2.1-.2.1h-.2c0-.1.1-.4.1-.4h.1c0-.1-.1-.4-.1-.4h-.1c0-.1-.1,0-.1,0l-3.5.9-3.2.9h-.3l-1.4-1.1,2.5-3-.6-1.2,2.2-2.8.3-2.2,2.8-.9,2.8-4Z"/>
  <path class="st10" d="M253.2,26.8l4.7-1.8,4.7-.4,1.6,1.3.5,2.2-.5,9.1-4.6-.9-1.2,3.9-2.6-.4.8-3.2h-4c0,0-.3-3.7-.3-3.7l1.4-2.9-.9-2,.4-1.2Z"/>
  <path class="st2" d="M253.2,26.8l4.7-1.8,4.7-.4,1.6,1.3.5,2.2-.5,9.1-4.6-.9-1.2,3.9-2.6-.4.8-3.2h-4c0,0-.3-3.7-.3-3.7l1.4-2.9-.9-2,.4-1.2Z"/>
  <path class="st0" d="M124.3,56.8l2,1,5.1-1.3-1.3,15h-2.5c0-.1-1.1-.1-1.1-.1h-1.6c0-.1-.2-.1-.2-.1h-2.2c0-.1-1.9-.1-1.9-.1h-.8c0,0-1.1,0-1.1,0h-2.8c0-.1-.8-.1-.8-.1v-.6c.1,0,.1-.1.1-.1v-.7l.4-3.2-.8-1.1-.4-.7-.6-.9,9.1-7.9,1.4,1Z"/>
  <path class="st2" d="M124.3,56.8l2,1,5.1-1.3-1.3,15h-2.5c0-.1-1.1-.1-1.1-.1h-1.6c0-.1-.2-.1-.2-.1h-2.2c0-.1-1.9-.1-1.9-.1h-.8c0,0-1.1,0-1.1,0h-2.8c0-.1-.8-.1-.8-.1v-.6c.1,0,.1-.1.1-.1v-.7l.4-3.2-.8-1.1-.4-.7-.6-.9,9.1-7.9,1.4,1Z"/>
  <path class="st10" d="M191.8,4.2l1.5,9.3-.9,1.6-.9,1.2h-1.2l-1.4,2.7-2.3-.4-.6-10.9.4-2.4,1.2-1.1h4.2Z"/>
  <path class="st2" d="M191.8,4.2l1.5,9.3-.9,1.6-.9,1.2h-1.2l-1.4,2.7-2.3-.4-.6-10.9.4-2.4,1.2-1.1h4.2Z"/>
  <path class="st0" d="M185.2,24.6l6,3.6,3.2,4.4-6.7,4.5-7.3,7.3-6.5-2.6-2.5-1.1,2.7-10.1h2.2c0,.1.8-2.3.8-2.3l1.5.4.9-1.1.9-2.6-1.7-.8v-1.5c.1,0,2.2-.1,2.2-.1l4.3,2Z"/>
  <path class="st2" d="M185.2,24.6l6,3.6,3.2,4.4-6.7,4.5-7.3,7.3-6.5-2.6-2.5-1.1,2.7-10.1h2.2c0,.1.8-2.3.8-2.3l1.5.4.9-1.1.9-2.6-1.7-.8v-1.5c.1,0,2.2-.1,2.2-.1l4.3,2Z"/>
  <path class="st10" d="M204.9,4.1v1.5l-.3,4.9-2.8,7-3-.2-2.2-1.8-4.2-.4.9-1.6-1.5-9.3h2.3c0-.1.1-.1.1-.1h3.4c0,.1.1.1.1.1h2.4c0-.1.2-.1.2-.1h4.6Z"/>
  <path class="st2" d="M204.9,4.1v1.5l-.3,4.9-2.8,7-3-.2-2.2-1.8-4.2-.4.9-1.6-1.5-9.3h2.3c0-.1.1-.1.1-.1h3.4c0,.1.1.1.1.1h2.4c0-.1.2-.1.2-.1h4.6Z"/>
  <path class="st10" d="M243,27h5.1c0-.1,4.1-1.7,4.1-1.7l1,1.5-.4,1.2.9,2-1.4,2.9.3,3.6-7.6-.2-6.4.2,2.4-6.3,2-3.2Z"/>
  <path class="st2" d="M243,27h5.1c0-.1,4.1-1.7,4.1-1.7l1,1.5-.4,1.2.9,2-1.4,2.9.3,3.6-7.6-.2-6.4.2,2.4-6.3,2-3.2Z"/>
  <path class="st6" d="M86.7,7.9l2.8,1.8,2.2,3.1,2.7,1.4.4,2-2.5,2.8h-8.3c0-.1-.5-2.4-.5-2.4l-2.4-2,.5-1.9-.7-.9.3-.6.9-.4h.1c0-.1.1-.2.1-.2l.3-.5h.2c0,0,.2-.2.2-.2h.2c0-.1.1-.2.1-.2l.2-.2h.4l.6-.4h.2c0,.1.2.3.2.3h.1c0,.1,1,.6,1,.6h.4c0-.1,1,0,1,0h.1c0-.1-.8-2.1-.8-2.1h0Z"/>
  <path class="st2" d="M86.7,7.9l2.8,1.8,2.2,3.1,2.7,1.4.4,2-2.5,2.8h-8.3c0-.1-.5-2.4-.5-2.4l-2.4-2,.5-1.9-.7-.9.3-.6.9-.4h.1c0-.1.1-.2.1-.2l.3-.5h.2c0,0,.2-.2.2-.2h.2c0-.1.1-.2.1-.2l.2-.2h.4l.6-.4h.2c0,.1.2.3.2.3h.1c0,.1,1,.6,1,.6h.4c0-.1,1,0,1,0h.1c0-.1-.8-2.1-.8-2.1h0Z"/>
  <path class="st11" d="M200.5,41.7l7.5.5.8,7.9-.8,7.5-1.7,1.3-4.1-1.8-1.8.7-2.7-.5-2.6-1.5-1.9-2.3,1.1-1.5,3.6-1.1v-2.6c-.1,0,2.6-6.6,2.6-6.6Z"/>
  <path class="st2" d="M200.5,41.7l7.5.5.8,7.9-.8,7.5-1.7,1.3-4.1-1.8-1.8.7-2.7-.5-2.6-1.5-1.9-2.3,1.1-1.5,3.6-1.1v-2.6c-.1,0,2.6-6.6,2.6-6.6Z"/>
  <path class="st10" d="M110.2,8.4l3,3.1-.2,3.5-.3,7.1-4.6.3-5.3.2-3.9,1.4-2.5-3.1-4.1-1.9,2.5-2.8-.4-2,2-2.1,1.4.5.3-3.3,3.4.3,2.6-2.8.6.7,1.9-.4,1.7,2.3h1.4c0,.1.5-1,.5-1Z"/>
  <path class="st2" d="M110.2,8.4l3,3.1-.2,3.5-.3,7.1-4.6.3-5.3.2-3.9,1.4-2.5-3.1-4.1-1.9,2.5-2.8-.4-2,2-2.1,1.4.5.3-3.3,3.4.3,2.6-2.8.6.7,1.9-.4,1.7,2.3h1.4c0,.1.5-1,.5-1Z"/>
  <path class="st0" d="M207.6,30.6l2.4,1.5,1.1,3.9,1.9,2-1.2,1-3.8,3.2-7.5-.5-2-.7-1.2-4.3-.9-.7,9.1-4.5,1.6.3.5-1.2Z"/>
  <path class="st2" d="M207.6,30.6l2.4,1.5,1.1,3.9,1.9,2-1.2,1-3.8,3.2-7.5-.5-2-.7-1.2-4.3-.9-.7,9.1-4.5,1.6.3.5-1.2Z"/>
  <path class="st10" d="M126,15.2l.4,4.1-2.1,1.2.3,2.3-6.1-.3-5.8-.4.3-7.1,4.2-1.6,2.5,1.2.9-1.4,1.1.8,1.5-.6.3,1.1h2c0-.1.5.7.5.7Z"/>
  <path class="st2" d="M126,15.2l.4,4.1-2.1,1.2.3,2.3-6.1-.3-5.8-.4.3-7.1,4.2-1.6,2.5,1.2.9-1.4,1.1.8,1.5-.6.3,1.1h2c0-.1.5.7.5.7Z"/>
  <path class="st11" d="M65.4,19.5l2-.4.4,2.2,1.1-.6,1.5,2.3v-.7l1.7-.2v2.5c-.1,0,1.5.8,1.5.8l.3,4.3-1.9,3.4-2.6,1.2-1.8-1.9-.4-2.5-1.8-.3-1.1-3.2-1.5-.6.5-1.5-.7-1.2v-.2c.1,0,.4-.2.4-.2h.1c0-.1.1-.2.1-.2l.7-.5h.1c0-.1.8-1.4.8-1.4l.6-1.1h0Z"/>
  <path class="st2" d="M65.4,19.5l2-.4.4,2.2,1.1-.6,1.5,2.3v-.7l1.7-.2v2.5c-.1,0,1.5.8,1.5.8l.3,4.3-1.9,3.4-2.6,1.2-1.8-1.9-.4-2.5-1.8-.3-1.1-3.2-1.5-.6.5-1.5-.7-1.2v-.2c.1,0,.4-.2.4-.2h.1c0-.1.1-.2.1-.2l.7-.5h.1c0-.1.8-1.4.8-1.4l.6-1.1h0Z"/>
  <path class="st10" d="M42.1,121.6h11.2v96.2h-11.2v-96.2Z"/>
  <path class="st4" d="M42.1,217.8h11.2"/>
  <text class="st8" transform="translate(45.7 231.6)"><tspan x="0" y="0">0</tspan></text>
  <path class="st0" d="M63.5,180.2h11.2v37.6h-11.2v-37.6Z"/>
  <path class="st0" d="M74.7,189.6h11.2v28.2h-11.2v-28.2Z"/>
  <path class="st11" d="M85.9,173.2h11.2v44.6h-11.2v-44.6Z"/>
  <path class="st11" d="M97.1,201.4h11.2v16.4h-11.2v-16.4Z"/>
  <path class="st6" d="M108.3,208.4h11.2v9.4h-11.2v-9.4Z"/>
  <path class="st6" d="M153.1,215.4h11.2v2.3h-11.2v-2.3Z"/>
  <path class="st4" d="M63.5,217.8h179.2"/>
  <path class="st4" d="M63.5,217.8v6.7"/>
  <path class="st4" d="M74.7,217.8v6.7"/>
  <text class="st8" transform="translate(69.6 231.6)"><tspan x="0" y="0">0</tspan></text>
  <text class="st8" transform="translate(73.8 231.6)"><tspan x="0" y="0">.</tspan></text>
  <text class="st8" transform="translate(75.6 231.6)"><tspan x="0" y="0">2</tspan></text>
  <path class="st4" d="M85.9,217.8v6.7"/>
  <path class="st4" d="M97.1,217.8v6.7"/>
  <text class="st8" transform="translate(92 231.6)"><tspan x="0" y="0">0</tspan></text>
  <text class="st8" transform="translate(96.3 231.6)"><tspan x="0" y="0">.</tspan></text>
  <text class="st8" transform="translate(98 231.6)"><tspan x="0" y="0">6</tspan></text>
  <path class="st4" d="M108.3,217.8v6.7"/>
  <path class="st4" d="M119.4,217.8v6.7"/>
  <text class="st8" transform="translate(117.3 231.6)"><tspan x="0" y="0">1</tspan></text>
  <path class="st4" d="M130.6,217.8v6.7"/>
  <path class="st4" d="M141.9,217.8v6.7"/>
  <text class="st8" transform="translate(136.8 231.6)"><tspan x="0" y="0">1</tspan></text>
  <text class="st8" transform="translate(141 231.6)"><tspan x="0" y="0">.</tspan></text>
  <text class="st8" transform="translate(142.7 231.6)"><tspan x="0" y="0">4</tspan></text>
  <path class="st4" d="M153.1,217.8v6.7"/>
  <path class="st4" d="M164.3,217.8v6.7"/>
  <text class="st8" transform="translate(159.2 231.6)"><tspan x="0" y="0">1</tspan></text>
  <text class="st8" transform="translate(163.4 231.6)"><tspan x="0" y="0">.</tspan></text>
  <text class="st8" transform="translate(165.2 231.6)"><tspan x="0" y="0">8</tspan></text>
  <path class="st4" d="M175.5,217.8v6.7"/>
  <path class="st4" d="M186.7,217.8v6.7"/>
  <text class="st8" transform="translate(181.6 231.6)"><tspan x="0" y="0">2</tspan></text>
  <text class="st8" transform="translate(185.9 231.6)"><tspan x="0" y="0">.</tspan></text>
  <text class="st8" transform="translate(187.6 231.6)"><tspan x="0" y="0">2</tspan></text>
  <path class="st4" d="M197.9,217.8v6.7"/>
  <path class="st4" d="M209.1,217.8v6.7"/>
  <text class="st8" transform="translate(204 231.6)"><tspan x="0" y="0">2</tspan></text>
  <text class="st8" transform="translate(208.3 231.6)"><tspan x="0" y="0">.</tspan></text>
  <text class="st8" transform="translate(210 231.6)"><tspan x="0" y="0">6</tspan></text>
  <path class="st4" d="M220.4,217.8v6.7"/>
  <path class="st4" d="M231.5,217.8v6.7"/>
  <text class="st8" transform="translate(229.4 231.6)"><tspan x="0" y="0">3</tspan></text>
  <path class="st4" d="M242.7,217.8v6.7"/>
  <path class="st3" d="M41,194.3h201.6"/>
  <text class="st8" transform="translate(32.3 196.6)"><tspan x="0" y="0">10</tspan></text>
  <path class="st3" d="M41,170.8h201.6"/>
  <text class="st8" transform="translate(32.3 172.6)"><tspan x="0" y="0">20</tspan></text>
  <path class="st3" d="M41,147.4h201.6"/>
  <text class="st8" transform="translate(32.3 149.6)"><tspan x="0" y="0">30</tspan></text>
  <path class="st3" d="M41,123.9h201.6"/>
  <text class="st8" transform="translate(32.3 125.6)"><tspan x="0" y="0">40</tspan></text>
  <text class="st9" transform="translate(.8 166.6)"><tspan x="0" y="0">N</tspan></text>
  <text class="st9" transform="translate(6.3 166.6)"><tspan x="0" y="0">u</tspan></text>
  <text class="st9" transform="translate(10.5 166.6)"><tspan x="0" y="0">m</tspan></text>
  <text class="st9" transform="translate(16.8 166.6)"><tspan x="0" y="0">b</tspan></text>
  <text class="st9" transform="translate(21.1 166.6)"><tspan x="0" y="0">e</tspan></text>
  <text class="st9" transform="translate(24.9 166.6)"><tspan x="0" y="0">r</tspan></text>
  <text class="st9" transform="translate(10.9 175.6)"><tspan x="0" y="0">o</tspan></text>
  <text class="st9" transform="translate(15 175.6)"><tspan x="0" y="0">f</tspan></text>
  <text class="st9" transform="translate(0 184.6)"><tspan x="0" y="0">C</tspan></text>
  <text class="st9" transform="translate(4.4 184.6)"><tspan x="0" y="0">o</tspan></text>
  <text class="st9" transform="translate(8.7 184.6)"><tspan x="0" y="0">u</tspan></text>
  <text class="st9" transform="translate(12.9 184.6)"><tspan x="0" y="0">n</tspan></text>
  <text class="st9" transform="translate(17 184.6)"><tspan x="0" y="0">t</tspan></text>
  <text class="st9" transform="translate(19.6 184.6)"><tspan x="0" y="0">i</tspan></text>
  <text class="st9" transform="translate(21.5 184.6)"><tspan x="0" y="0">e</tspan></text>
  <text class="st9" transform="translate(25.3 184.6)"><tspan x="0" y="0">s</tspan></text>
  <path class="st5" d="M83.6,217.8v-100.7"/>
  <text class="st7" transform="translate(56.5 114.6)"><tspan x="0" y="0">S</tspan></text>
  <text class="st7" transform="translate(60.2 114.6)"><tspan x="0" y="0">t</tspan></text>
  <text class="st7" transform="translate(62.8 114.6)"><tspan x="0" y="0">a</tspan></text>
  <text class="st7" transform="translate(66.6 114.6)"><tspan x="0" y="0">t</tspan></text>
  <text class="st7" transform="translate(69.1 114.6)"><tspan x="0" y="0">e</tspan></text>
  <text class="st7" transform="translate(74.9 114.6)"><tspan x="0" y="0">Ra</tspan></text>
  <text class="st7" transform="translate(83.1 114.6)"><tspan x="0" y="0">t</tspan></text>
  <text class="st7" transform="translate(85.6 114.6)"><tspan x="0" y="0">e</tspan></text>
  <text class="st7" transform="translate(89.4 114.6)"><tspan x="0" y="0">:</tspan></text>
  <text class="st7" transform="translate(93.1 114.6)"><tspan x="0" y="0">0</tspan></text>
  <text class="st7" transform="translate(97.1 114.6)"><tspan x="0" y="0">.</tspan></text>
  <text class="st7" transform="translate(98.8 114.6)"><tspan x="0" y="0">3</tspan></text>
  <text class="st7" transform="translate(102.8 114.6)"><tspan x="0" y="0">6</tspan></text>
  <text class="st7" transform="translate(106.8 114.6)"><tspan x="0" y="0">0</tspan></text>
  <text class="st9" transform="translate(109.6 242.6)"><tspan x="0" y="0">Ra</tspan></text>
  <text class="st9" transform="translate(117.8 242.6)"><tspan x="0" y="0">t</tspan></text>
  <text class="st9" transform="translate(120.3 242.6)"><tspan x="0" y="0">e</tspan></text>
  <text class="st9" transform="translate(126.1 242.6)"><tspan x="0" y="0">p</tspan></text>
  <text class="st9" transform="translate(130.4 242.6)"><tspan x="0" y="0">e</tspan></text>
  <text class="st9" transform="translate(134.3 242.6)"><tspan x="0" y="0">r</tspan></text>
  <text class="st9" transform="translate(138.9 242.6)"><tspan x="0" y="0">1</tspan></text>
  <text class="st9" transform="translate(141.8 242.6)"><tspan x="0" y="0">0</tspan></text>
  <text class="st9" transform="translate(145.7 242.6)"><tspan x="0" y="0">,</tspan></text>
  <text class="st9" transform="translate(147.5 242.6)"><tspan x="0" y="0">0</tspan></text>
  <text class="st9" transform="translate(151.4 242.6)"><tspan x="0" y="0">0</tspan></text>
  <text class="st9" transform="translate(155.4 242.6)"><tspan x="0" y="0">0</tspan></text>
  <text class="st9" transform="translate(161.4 242.6)"><tspan x="0" y="0">P</tspan></text>
  <text class="st9" transform="translate(165.3 242.6)"><tspan x="0" y="0">o</tspan></text>
  <text class="st9" transform="translate(169.6 242.6)"><tspan x="0" y="0">p</tspan></text>
  <text class="st9" transform="translate(173.9 242.6)"><tspan x="0" y="0">u</tspan></text>
  <text class="st9" transform="translate(178.1 242.6)"><tspan x="0" y="0">l</tspan></text>
  <text class="st9" transform="translate(179.9 242.6)"><tspan x="0" y="0">a</tspan></text>
  <text class="st9" transform="translate(183.7 242.6)"><tspan x="0" y="0">t</tspan></text>
  <text class="st9" transform="translate(186.2 242.6)"><tspan x="0" y="0">i</tspan></text>
  <text class="st9" transform="translate(188.1 242.6)"><tspan x="0" y="0">o</tspan></text>
  <text class="st9" transform="translate(192.4 242.6)"><tspan x="0" y="0">n</tspan></text>
  <path class="st1" d="M286.6,50.4V7.4"/>
  <path class="st1" d="M286.6,56.7"/>
</svg>