<svg width="2206" height="1163" xmlns="http://www.w3.org/2000/svg" xmlns:xlink="http://www.w3.org/1999/xlink" xml:space="preserve" overflow="hidden"><g transform="translate(1 1)"><rect x="0" y="0" width="2203" height="1160" fill="#FFFFFF"/><g><path d="M231.5 718.524 2152.5 718.524M231.5 584.519 2152.5 584.519M231.5 451.515 2152.5 451.515M231.5 317.511 2152.5 317.511M231.5 183.506 2152.5 183.506M231.5 50.5 2152.5 50.5" stroke="#D9D9D9" stroke-width="3.4375" stroke-linejoin="round" stroke-miterlimit="10" fill="none"/></g><g><path d="M231.5 851.5 2152.5 851.5" stroke="#D9D9D9" stroke-width="3.4375" stroke-linejoin="round" stroke-miterlimit="10" fill="none" fill-rule="evenodd"/></g><g><path d="M319 730.024 493.016 731.024 668.022 731.024 843.028 731.024 1017.03 729 1192.04 734.024 1367.04 736.024 1541.05 741.024 1716.06 744.024 1891.06 745 2065 745.024" stroke="#156082" stroke-width="10.3125" stroke-linecap="round" stroke-linejoin="round" stroke-miterlimit="10" fill="none"/></g><g><path d="M329.499 729.5C329.499 735.575 324.575 740.499 318.5 740.499 312.425 740.499 307.5 735.575 307.5 729.5 307.5 723.425 312.425 718.5 318.5 718.5 324.575 718.5 329.499 723.425 329.499 729.5Z" stroke="#156082" stroke-width="3.4375" stroke-linejoin="round" stroke-miterlimit="10" fill="#156082"/><path d="M504.499 731.5C504.499 737.575 499.575 742.499 493.5 742.499 487.425 742.499 482.5 737.575 482.5 731.5 482.5 725.425 487.425 720.5 493.5 720.5 499.575 720.5 504.499 725.425 504.499 731.5Z" stroke="#156082" stroke-width="3.4375" stroke-linejoin="round" stroke-miterlimit="10" fill="#156082"/><path d="M678.499 731.5C678.499 737.575 673.575 742.499 667.5 742.499 661.425 742.499 656.5 737.575 656.5 731.5 656.5 725.425 661.425 720.5 667.5 720.5 673.575 720.5 678.499 725.425 678.499 731.5Z" stroke="#156082" stroke-width="3.4375" stroke-linejoin="round" stroke-miterlimit="10" fill="#156082"/><path d="M853.499 731.5C853.499 737.575 848.575 742.499 842.5 742.499 836.425 742.499 831.5 737.575 831.5 731.5 831.5 725.425 836.425 720.5 842.5 720.5 848.575 720.5 853.499 725.425 853.499 731.5Z" stroke="#156082" stroke-width="3.4375" stroke-linejoin="round" stroke-miterlimit="10" fill="#156082"/><path d="M1028.5 729.5C1028.5 735.575 1023.57 740.499 1017.5 740.499 1011.42 740.499 1006.5 735.575 1006.5 729.5 1006.5 723.425 1011.42 718.5 1017.5 718.5 1023.57 718.5 1028.5 723.425 1028.5 729.5Z" stroke="#156082" stroke-width="3.4375" stroke-linejoin="round" stroke-miterlimit="10" fill="#156082"/><path d="M1202.5 733.5C1202.5 739.575 1197.57 744.499 1191.5 744.499 1185.42 744.499 1180.5 739.575 1180.5 733.5 1180.5 727.425 1185.42 722.5 1191.5 722.5 1197.57 722.5 1202.5 727.425 1202.5 733.5Z" stroke="#156082" stroke-width="3.4375" stroke-linejoin="round" stroke-miterlimit="10" fill="#156082"/><path d="M1377.5 736.5C1377.5 742.575 1372.57 747.499 1366.5 747.499 1360.42 747.499 1355.5 742.575 1355.5 736.5 1355.5 730.425 1360.42 725.5 1366.5 725.5 1372.57 725.5 1377.5 730.425 1377.5 736.5Z" stroke="#156082" stroke-width="3.4375" stroke-linejoin="round" stroke-miterlimit="10" fill="#156082"/><path d="M1552.5 741.5C1552.5 747.575 1547.57 752.499 1541.5 752.499 1535.42 752.499 1530.5 747.575 1530.5 741.5 1530.5 735.425 1535.42 730.5 1541.5 730.5 1547.57 730.5 1552.5 735.425 1552.5 741.5Z" stroke="#156082" stroke-width="3.4375" stroke-linejoin="round" stroke-miterlimit="10" fill="#156082"/><path d="M1727.5 743.5C1727.5 749.575 1722.57 754.499 1716.5 754.499 1710.42 754.499 1705.5 749.575 1705.5 743.5 1705.5 737.425 1710.42 732.5 1716.5 732.5 1722.57 732.5 1727.5 737.425 1727.5 743.5Z" stroke="#156082" stroke-width="3.4375" stroke-linejoin="round" stroke-miterlimit="10" fill="#156082"/><path d="M1901.5 744.5C1901.5 750.575 1896.57 755.499 1890.5 755.499 1884.42 755.499 1879.5 750.575 1879.5 744.5 1879.5 738.425 1884.42 733.5 1890.5 733.5 1896.57 733.5 1901.5 738.425 1901.5 744.5Z" stroke="#156082" stroke-width="3.4375" stroke-linejoin="round" stroke-miterlimit="10" fill="#156082"/><path d="M2076.5 744.5C2076.5 750.575 2071.57 755.499 2065.5 755.499 2059.42 755.499 2054.5 750.575 2054.5 744.5 2054.5 738.425 2059.42 733.5 2065.5 733.5 2071.57 733.5 2076.5 738.425 2076.5 744.5Z" stroke="#156082" stroke-width="3.4375" stroke-linejoin="round" stroke-miterlimit="10" fill="#156082"/></g><g><path d="M319 178.006 493.016 181 668.022 179.006 843.028 173.006 1017.03 142.005 1192.04 160.005 1367.04 154.005 1541.05 155.005 1716.06 153.005 1891.06 146.005 2065 121" stroke="#E97132" stroke-width="10.3125" stroke-linecap="round" stroke-linejoin="round" stroke-miterlimit="10" fill="none"/></g><g><path d="M329.499 177.499C329.499 183.574 324.575 188.499 318.5 188.499 312.425 188.499 307.5 183.574 307.5 177.499 307.5 171.425 312.425 166.5 318.5 166.5 324.575 166.5 329.499 171.425 329.499 177.499Z" stroke="#E97132" stroke-width="3.4375" stroke-linejoin="round" stroke-miterlimit="10" fill="#E97132"/><path d="M504.499 180.5C504.499 186.575 499.575 191.499 493.5 191.499 487.425 191.499 482.5 186.575 482.5 180.5 482.5 174.425 487.425 169.5 493.5 169.5 499.575 169.5 504.499 174.425 504.499 180.5Z" stroke="#E97132" stroke-width="3.4375" stroke-linejoin="round" stroke-miterlimit="10" fill="#E97132"/><path d="M678.499 178.5C678.499 184.574 673.575 189.499 667.5 189.499 661.425 189.499 656.5 184.574 656.5 178.5 656.5 172.425 661.425 167.5 667.5 167.5 673.575 167.5 678.499 172.425 678.499 178.5Z" stroke="#E97132" stroke-width="3.4375" stroke-linejoin="round" stroke-miterlimit="10" fill="#E97132"/><path d="M853.499 173.5C853.499 179.575 848.575 184.499 842.5 184.499 836.425 184.499 831.5 179.575 831.5 173.5 831.5 167.425 836.425 162.5 842.5 162.5 848.575 162.5 853.499 167.425 853.499 173.5Z" stroke="#E97132" stroke-width="3.4375" stroke-linejoin="round" stroke-miterlimit="10" fill="#E97132"/><path d="M1028.5 141.5C1028.5 147.575 1023.57 152.499 1017.5 152.499 1011.42 152.499 1006.5 147.575 1006.5 141.5 1006.5 135.425 1011.42 130.5 1017.5 130.5 1023.57 130.5 1028.5 135.425 1028.5 141.5Z" stroke="#E97132" stroke-width="3.4375" stroke-linejoin="round" stroke-miterlimit="10" fill="#E97132"/><path d="M1202.5 160.5C1202.5 166.575 1197.57 171.499 1191.5 171.499 1185.42 171.499 1180.5 166.575 1180.5 160.5 1180.5 154.425 1185.42 149.5 1191.5 149.5 1197.57 149.5 1202.5 154.425 1202.5 160.5Z" stroke="#E97132" stroke-width="3.4375" stroke-linejoin="round" stroke-miterlimit="10" fill="#E97132"/><path d="M1377.5 153.5C1377.5 159.575 1372.57 164.499 1366.5 164.499 1360.42 164.499 1355.5 159.575 1355.5 153.5 1355.5 147.425 1360.42 142.5 1366.5 142.5 1372.57 142.5 1377.5 147.425 1377.5 153.5Z" stroke="#E97132" stroke-width="3.4375" stroke-linejoin="round" stroke-miterlimit="10" fill="#E97132"/><path d="M1552.5 155.499C1552.5 161.574 1547.57 166.499 1541.5 166.499 1535.42 166.499 1530.5 161.574 1530.5 155.499 1530.5 149.425 1535.42 144.5 1541.5 144.5 1547.57 144.5 1552.5 149.425 1552.5 155.499Z" stroke="#E97132" stroke-width="3.4375" stroke-linejoin="round" stroke-miterlimit="10" fill="#E97132"/><path d="M1727.5 152.5C1727.5 158.575 1722.57 163.499 1716.5 163.499 1710.42 163.499 1705.5 158.575 1705.5 152.5 1705.5 146.425 1710.42 141.5 1716.5 141.5 1722.57 141.5 1727.5 146.425 1727.5 152.5Z" stroke="#E97132" stroke-width="3.4375" stroke-linejoin="round" stroke-miterlimit="10" fill="#E97132"/><path d="M1901.5 145.5C1901.5 151.574 1896.57 156.499 1890.5 156.499 1884.42 156.499 1879.5 151.574 1879.5 145.5 1879.5 139.425 1884.42 134.5 1890.5 134.5 1896.57 134.5 1901.5 139.425 1901.5 145.5Z" stroke="#E97132" stroke-width="3.4375" stroke-linejoin="round" stroke-miterlimit="10" fill="#E97132"/><path d="M2076.5 120.5C2076.5 126.575 2071.57 131.499 2065.5 131.499 2059.42 131.499 2054.5 126.575 2054.5 120.5 2054.5 114.425 2059.42 109.5 2065.5 109.5 2071.57 109.5 2076.5 114.425 2076.5 120.5Z" stroke="#E97132" stroke-width="3.4375" stroke-linejoin="round" stroke-miterlimit="10" fill="#E97132"/></g><g><text fill="#595959" font-family="Aptos,Aptos_MSFontService,sans-serif" font-weight="400" font-size="41" transform="matrix(1 0 0 1 171.073 863)">0</text></g><g><text fill="#595959" font-family="Aptos,Aptos_MSFontService,sans-serif" font-weight="400" font-size="41" transform="matrix(1 0 0 1 149.027 730)">20</text></g><g><text fill="#595959" font-family="Aptos,Aptos_MSFontService,sans-serif" font-weight="400" font-size="41" transform="matrix(1 0 0 1 149.027 596)">40</text></g><g><text fill="#595959" font-family="Aptos,Aptos_MSFontService,sans-serif" font-weight="400" font-size="41" transform="matrix(1 0 0 1 149.027 463)">60</text></g><g><text fill="#595959" font-family="Aptos,Aptos_MSFontService,sans-serif" font-weight="400" font-size="41" transform="matrix(1 0 0 1 149.027 329)">80</text></g><g><text fill="#595959" font-family="Aptos,Aptos_MSFontService,sans-serif" font-weight="400" font-size="41" transform="matrix(1 0 0 1 126.981 196)">100</text></g><g><text fill="#595959" font-family="Aptos,Aptos_MSFontService,sans-serif" font-weight="400" font-size="41" transform="matrix(1 0 0 1 126.981 62)">120</text></g><g><text fill="#595959" font-family="Aptos,Aptos_MSFontService,sans-serif" font-weight="400" font-size="41" transform="matrix(1 0 0 1 274.456 917)">2014</text></g><g><text fill="#595959" font-family="Aptos,Aptos_MSFontService,sans-serif" font-weight="400" font-size="41" transform="matrix(1 0 0 1 449.146 917)">2015</text></g><g><text fill="#595959" font-family="Aptos,Aptos_MSFontService,sans-serif" font-weight="400" font-size="41" transform="matrix(1 0 0 1 623.836 917)">2016</text></g><g><text fill="#595959" font-family="Aptos,Aptos_MSFontService,sans-serif" font-weight="400" font-size="41" transform="matrix(1 0 0 1 798.526 917)">2017</text></g><g><text fill="#595959" font-family="Aptos,Aptos_MSFontService,sans-serif" font-weight="400" font-size="41" transform="matrix(1 0 0 1 973.216 917)">2018</text></g><g><text fill="#595959" font-family="Aptos,Aptos_MSFontService,sans-serif" font-weight="400" font-size="41" transform="matrix(1 0 0 1 1147.91 917)">2019</text></g><g><text fill="#595959" font-family="Aptos,Aptos_MSFontService,sans-serif" font-weight="400" font-size="41" transform="matrix(1 0 0 1 1322.6 917)">2020</text></g><g><text fill="#595959" font-family="Aptos,Aptos_MSFontService,sans-serif" font-weight="400" font-size="41" transform="matrix(1 0 0 1 1497.29 917)">2021</text></g><g><text fill="#595959" font-family="Aptos,Aptos_MSFontService,sans-serif" font-weight="400" font-size="41" transform="matrix(1 0 0 1 1671.97 917)">2022</text></g><g><text fill="#595959" font-family="Aptos,Aptos_MSFontService,sans-serif" font-weight="400" font-size="41" transform="matrix(1 0 0 1 1846.66 917)">2023</text></g><g><text fill="#595959" font-family="Aptos,Aptos_MSFontService,sans-serif" font-weight="400" font-size="41" transform="matrix(1 0 0 1 2021.35 917)">2024</text></g><g><text fill="#595959" font-family="Aptos,Aptos_MSFontService,sans-serif" font-weight="400" font-size="46" transform="matrix(6.12323e-17 -1 1 6.12323e-17 100.283 574)">Rate per 10k</text></g><g><text fill="#595959" font-family="Aptos,Aptos_MSFontService,sans-serif" font-weight="400" font-size="46" transform="matrix(1 0 0 1 1147.71 985)">Year</text></g><g><path d="M991 1057 1079 1057" stroke="#156082" stroke-width="10.3125" stroke-linecap="round" stroke-linejoin="round" stroke-miterlimit="10" fill="none" fill-rule="evenodd"/></g><g><path d="M1045.02 1056.5C1045.02 1062.31 1040.31 1067.02 1034.5 1067.02 1028.69 1067.02 1023.98 1062.31 1023.98 1056.5 1023.98 1050.69 1028.69 1045.98 1034.5 1045.98 1040.31 1045.98 1045.02 1050.69 1045.02 1056.5Z" stroke="#156082" stroke-width="3.4375" stroke-linejoin="round" stroke-miterlimit="10" fill="#156082"/></g><g><text fill="#595959" font-family="Aptos,Aptos_MSFontService,sans-serif" font-weight="400" font-size="41" transform="matrix(1 0 0 1 1087.86 1069)">LPNs</text></g><g><path d="M1220 1057 1308 1057" stroke="#E97132" stroke-width="10.3125" stroke-linecap="round" stroke-linejoin="round" stroke-miterlimit="10" fill="none" fill-rule="evenodd"/></g><g><path d="M1275 1056.5C1275 1062.31 1270.08 1067.02 1264 1067.02 1257.93 1067.02 1253 1062.31 1253 1056.5 1253 1050.69 1257.93 1045.98 1264 1045.98 1270.08 1045.98 1275 1050.69 1275 1056.5Z" stroke="#E97132" stroke-width="3.4375" stroke-linejoin="round" stroke-miterlimit="10" fill="#E97132"/></g><g><text fill="#595959" font-family="Aptos,Aptos_MSFontService,sans-serif" font-weight="400" font-size="41" transform="matrix(1 0 0 1 1317.31 1069)">RNs</text></g><rect x="0.499836" y="0.499836" width="2203" height="1160" stroke="#D9D9D9" stroke-width="3.4375" stroke-linejoin="round" stroke-miterlimit="10" fill="none"/></g></svg>