<svg width="2146" height="1146" xmlns="http://www.w3.org/2000/svg" xmlns:xlink="http://www.w3.org/1999/xlink" xml:space="preserve" overflow="hidden"><g transform="translate(1 1)"><rect x="0" y="0" width="2143" height="1143" fill="#FFFFFF"/><g><path d="M187.5 723.524 2092.5 723.524M187.5 611.52 2092.5 611.52M187.5 498.517 2092.5 498.517M187.5 386.513 2092.5 386.513M187.5 274.509 2092.5 274.509M187.5 162.506 2092.5 162.506M187.5 50.5 2092.5 50.5" stroke="#D9D9D9" stroke-width="3.4375" stroke-linejoin="round" stroke-miterlimit="10" fill="none"/></g><g><path d="M187.5 835.5 2092.5 835.501" stroke="#D9D9D9" stroke-width="3.4375" stroke-linejoin="round" stroke-miterlimit="10" fill="none" fill-rule="evenodd"/></g><g><path d="M274 304 447.015 289.009 620.02 284.009 793.026 272.009 967.032 260.009 1140.04 248.008 1313.04 238.008 1486.05 231.008 1660.05 219.007 1833.06 207.007 2006 198" stroke="#156082" stroke-width="10.3125" stroke-linecap="round" stroke-linejoin="round" stroke-miterlimit="10" fill="none"/></g><g><path d="M284.499 303.5C284.499 309.575 279.575 314.499 273.5 314.499 267.425 314.499 262.5 309.575 262.5 303.5 262.5 297.425 267.425 292.5 273.5 292.5 279.575 292.5 284.499 297.425 284.499 303.5Z" stroke="#156082" stroke-width="3.4375" stroke-linejoin="round" stroke-miterlimit="10" fill="#156082"/><path d="M457.499 289.5C457.499 295.574 452.575 300.499 446.5 300.499 440.425 300.499 435.5 295.574 435.5 289.5 435.5 283.425 440.425 278.5 446.5 278.5 452.575 278.5 457.499 283.425 457.499 289.5Z" stroke="#156082" stroke-width="3.4375" stroke-linejoin="round" stroke-miterlimit="10" fill="#156082"/><path d="M631.499 283.5C631.499 289.575 626.575 294.499 620.5 294.499 614.425 294.499 609.5 289.575 609.5 283.5 609.5 277.425 614.425 272.5 620.5 272.5 626.575 272.5 631.499 277.425 631.499 283.5Z" stroke="#156082" stroke-width="3.4375" stroke-linejoin="round" stroke-miterlimit="10" fill="#156082"/><path d="M804.499 272.5C804.499 278.575 799.574 283.499 793.5 283.499 787.425 283.499 782.5 278.575 782.5 272.5 782.5 266.425 787.425 261.5 793.5 261.5 799.574 261.5 804.499 266.425 804.499 272.5Z" stroke="#156082" stroke-width="3.4375" stroke-linejoin="round" stroke-miterlimit="10" fill="#156082"/><path d="M977.499 260.5C977.499 266.575 972.575 271.499 966.5 271.499 960.425 271.499 955.5 266.575 955.5 260.5 955.5 254.425 960.425 249.5 966.5 249.5 972.575 249.5 977.499 254.425 977.499 260.5Z" stroke="#156082" stroke-width="3.4375" stroke-linejoin="round" stroke-miterlimit="10" fill="#156082"/><path d="M1150.5 247.5C1150.5 253.575 1145.57 258.499 1139.5 258.499 1133.42 258.499 1128.5 253.575 1128.5 247.5 1128.5 241.425 1133.42 236.5 1139.5 236.5 1145.57 236.5 1150.5 241.425 1150.5 247.5Z" stroke="#156082" stroke-width="3.4375" stroke-linejoin="round" stroke-miterlimit="10" fill="#156082"/><path d="M1324.5 237.5C1324.5 243.575 1319.57 248.499 1313.5 248.499 1307.42 248.499 1302.5 243.575 1302.5 237.5 1302.5 231.425 1307.42 226.5 1313.5 226.5 1319.57 226.5 1324.5 231.425 1324.5 237.5Z" stroke="#156082" stroke-width="3.4375" stroke-linejoin="round" stroke-miterlimit="10" fill="#156082"/><path d="M1497.5 230.5C1497.5 236.575 1492.57 241.499 1486.5 241.499 1480.42 241.499 1475.5 236.575 1475.5 230.5 1475.5 224.425 1480.42 219.5 1486.5 219.5 1492.57 219.5 1497.5 224.425 1497.5 230.5Z" stroke="#156082" stroke-width="3.4375" stroke-linejoin="round" stroke-miterlimit="10" fill="#156082"/><path d="M1670.5 218.5C1670.5 224.575 1665.57 229.499 1659.5 229.499 1653.42 229.499 1648.5 224.575 1648.5 218.5 1648.5 212.425 1653.42 207.5 1659.5 207.5 1665.57 207.5 1670.5 212.425 1670.5 218.5Z" stroke="#156082" stroke-width="3.4375" stroke-linejoin="round" stroke-miterlimit="10" fill="#156082"/><path d="M1843.5 207.5C1843.5 213.575 1838.57 218.499 1832.5 218.499 1826.42 218.499 1821.5 213.575 1821.5 207.5 1821.5 201.425 1826.42 196.5 1832.5 196.5 1838.57 196.5 1843.5 201.425 1843.5 207.5Z" stroke="#156082" stroke-width="3.4375" stroke-linejoin="round" stroke-miterlimit="10" fill="#156082"/><path d="M2017.5 198.5C2017.5 204.575 2012.57 209.499 2006.5 209.499 2000.42 209.499 1995.5 204.575 1995.5 198.5 1995.5 192.425 2000.42 187.5 2006.5 187.5 2012.57 187.5 2017.5 192.425 2017.5 198.5Z" stroke="#156082" stroke-width="3.4375" stroke-linejoin="round" stroke-miterlimit="10" fill="#156082"/></g><g><path d="M274 177 447.015 173.006 620.02 165.005 793.026 158.005 967.032 155.005 1140.04 148.005 1313.04 150.005 1486.05 165.005 1660.05 157.005 1833.06 149.005 2006 142" stroke="#E97132" stroke-width="10.3125" stroke-linecap="round" stroke-linejoin="round" stroke-miterlimit="10" fill="none"/></g><g><path d="M284.499 177.499C284.499 183.574 279.575 188.499 273.5 188.499 267.425 188.499 262.5 183.574 262.5 177.499 262.5 171.425 267.425 166.5 273.5 166.5 279.575 166.5 284.499 171.425 284.499 177.499Z" stroke="#E97132" stroke-width="3.4375" stroke-linejoin="round" stroke-miterlimit="10" fill="#E97132"/><path d="M457.499 172.5C457.499 178.575 452.575 183.499 446.5 183.499 440.425 183.499 435.5 178.575 435.5 172.5 435.5 166.425 440.425 161.5 446.5 161.5 452.575 161.5 457.499 166.425 457.499 172.5Z" stroke="#E97132" stroke-width="3.4375" stroke-linejoin="round" stroke-miterlimit="10" fill="#E97132"/><path d="M631.499 164.5C631.499 170.575 626.575 175.499 620.5 175.499 614.425 175.499 609.5 170.575 609.5 164.5 609.5 158.425 614.425 153.5 620.5 153.5 626.575 153.5 631.499 158.425 631.499 164.5Z" stroke="#E97132" stroke-width="3.4375" stroke-linejoin="round" stroke-miterlimit="10" fill="#E97132"/><path d="M804.499 158.5C804.499 164.575 799.574 169.499 793.5 169.499 787.425 169.499 782.5 164.575 782.5 158.5 782.5 152.425 787.425 147.5 793.5 147.5 799.574 147.5 804.499 152.425 804.499 158.5Z" stroke="#E97132" stroke-width="3.4375" stroke-linejoin="round" stroke-miterlimit="10" fill="#E97132"/><path d="M977.499 154.5C977.499 160.575 972.575 165.499 966.5 165.499 960.425 165.499 955.5 160.575 955.5 154.5 955.5 148.425 960.425 143.5 966.5 143.5 972.575 143.5 977.499 148.425 977.499 154.5Z" stroke="#E97132" stroke-width="3.4375" stroke-linejoin="round" stroke-miterlimit="10" fill="#E97132"/><path d="M1150.5 147.5C1150.5 153.575 1145.57 158.499 1139.5 158.499 1133.42 158.499 1128.5 153.575 1128.5 147.5 1128.5 141.425 1133.42 136.5 1139.5 136.5 1145.57 136.5 1150.5 141.425 1150.5 147.5Z" stroke="#E97132" stroke-width="3.4375" stroke-linejoin="round" stroke-miterlimit="10" fill="#E97132"/><path d="M1324.5 150.5C1324.5 156.575 1319.57 161.499 1313.5 161.499 1307.42 161.499 1302.5 156.575 1302.5 150.5 1302.5 144.425 1307.42 139.5 1313.5 139.5 1319.57 139.5 1324.5 144.425 1324.5 150.5Z" stroke="#E97132" stroke-width="3.4375" stroke-linejoin="round" stroke-miterlimit="10" fill="#E97132"/><path d="M1497.5 164.5C1497.5 170.575 1492.57 175.499 1486.5 175.499 1480.42 175.499 1475.5 170.575 1475.5 164.5 1475.5 158.425 1480.42 153.5 1486.5 153.5 1492.57 153.5 1497.5 158.425 1497.5 164.5Z" stroke="#E97132" stroke-width="3.4375" stroke-linejoin="round" stroke-miterlimit="10" fill="#E97132"/><path d="M1670.5 156.5C1670.5 162.574 1665.57 167.499 1659.5 167.499 1653.42 167.499 1648.5 162.574 1648.5 156.5 1648.5 150.425 1653.42 145.5 1659.5 145.5 1665.57 145.5 1670.5 150.425 1670.5 156.5Z" stroke="#E97132" stroke-width="3.4375" stroke-linejoin="round" stroke-miterlimit="10" fill="#E97132"/><path d="M1843.5 149.5C1843.5 155.575 1838.57 160.499 1832.5 160.499 1826.42 160.499 1821.5 155.575 1821.5 149.5 1821.5 143.425 1826.42 138.5 1832.5 138.5 1838.57 138.5 1843.5 143.425 1843.5 149.5Z" stroke="#E97132" stroke-width="3.4375" stroke-linejoin="round" stroke-miterlimit="10" fill="#E97132"/><path d="M2017.5 142.5C2017.5 148.575 2012.57 153.499 2006.5 153.499 2000.42 153.499 1995.5 148.575 1995.5 142.5 1995.5 136.425 2000.42 131.5 2006.5 131.5 2012.57 131.5 2017.5 136.425 2017.5 142.5Z" stroke="#E97132" stroke-width="3.4375" stroke-linejoin="round" stroke-miterlimit="10" fill="#E97132"/></g><g><text fill="#595959" font-family="Aptos,Aptos_MSFontService,sans-serif" font-weight="400" font-size="41" transform="matrix(1 0 0 1 126.981 847)">0</text></g><g><text fill="#595959" font-family="Aptos,Aptos_MSFontService,sans-serif" font-weight="400" font-size="41" transform="matrix(1 0 0 1 126.981 735)">1</text></g><g><text fill="#595959" font-family="Aptos,Aptos_MSFontService,sans-serif" font-weight="400" font-size="41" transform="matrix(1 0 0 1 126.981 623)">2</text></g><g><text fill="#595959" font-family="Aptos,Aptos_MSFontService,sans-serif" font-weight="400" font-size="41" transform="matrix(1 0 0 1 126.981 510)">3</text></g><g><text fill="#595959" font-family="Aptos,Aptos_MSFontService,sans-serif" font-weight="400" font-size="41" transform="matrix(1 0 0 1 126.981 398)">4</text></g><g><text fill="#595959" font-family="Aptos,Aptos_MSFontService,sans-serif" font-weight="400" font-size="41" transform="matrix(1 0 0 1 126.981 286)">5</text></g><g><text fill="#595959" font-family="Aptos,Aptos_MSFontService,sans-serif" font-weight="400" font-size="41" transform="matrix(1 0 0 1 126.981 174)">6</text></g><g><text fill="#595959" font-family="Aptos,Aptos_MSFontService,sans-serif" font-weight="400" font-size="41" transform="matrix(1 0 0 1 126.981 62)">7</text></g><g><text fill="#595959" font-family="Aptos,Aptos_MSFontService,sans-serif" font-weight="400" font-size="41" transform="matrix(1 0 0 1 229.639 900)">2014</text></g><g><text fill="#595959" font-family="Aptos,Aptos_MSFontService,sans-serif" font-weight="400" font-size="41" transform="matrix(1 0 0 1 402.879 900)">2015</text></g><g><text fill="#595959" font-family="Aptos,Aptos_MSFontService,sans-serif" font-weight="400" font-size="41" transform="matrix(1 0 0 1 576.119 900)">2016</text></g><g><text fill="#595959" font-family="Aptos,Aptos_MSFontService,sans-serif" font-weight="400" font-size="41" transform="matrix(1 0 0 1 749.359 900)">2017</text></g><g><text fill="#595959" font-family="Aptos,Aptos_MSFontService,sans-serif" font-weight="400" font-size="41" transform="matrix(1 0 0 1 922.599 900)">2018</text></g><g><text fill="#595959" font-family="Aptos,Aptos_MSFontService,sans-serif" font-weight="400" font-size="41" transform="matrix(1 0 0 1 1095.84 900)">2019</text></g><g><text fill="#595959" font-family="Aptos,Aptos_MSFontService,sans-serif" font-weight="400" font-size="41" transform="matrix(1 0 0 1 1269.08 900)">2020</text></g><g><text fill="#595959" font-family="Aptos,Aptos_MSFontService,sans-serif" font-weight="400" font-size="41" transform="matrix(1 0 0 1 1442.32 900)">2021</text></g><g><text fill="#595959" font-family="Aptos,Aptos_MSFontService,sans-serif" font-weight="400" font-size="41" transform="matrix(1 0 0 1 1615.56 900)">2022</text></g><g><text fill="#595959" font-family="Aptos,Aptos_MSFontService,sans-serif" font-weight="400" font-size="41" transform="matrix(1 0 0 1 1788.8 900)">2023</text></g><g><text fill="#595959" font-family="Aptos,Aptos_MSFontService,sans-serif" font-weight="400" font-size="41" transform="matrix(1 0 0 1 1962.04 900)">2024</text></g><g><text fill="#595959" font-family="Aptos,Aptos_MSFontService,sans-serif" font-weight="400" font-size="46" transform="matrix(6.12323e-17 -1 1 6.12323e-17 100.283 566)">Rate per 10k</text></g><g><text fill="#595959" font-family="Aptos,Aptos_MSFontService,sans-serif" font-weight="400" font-size="46" transform="matrix(1 0 0 1 1095.64 968)">Year</text></g><g><path d="M799 1050 887 1050" stroke="#156082" stroke-width="10.3125" stroke-linecap="round" stroke-linejoin="round" stroke-miterlimit="10" fill="none" fill-rule="evenodd"/></g><g><path d="M854 1049C854 1055.07 849.075 1060 843 1060 836.925 1060 832 1055.07 832 1049 832 1042.92 836.925 1038 843 1038 849.075 1038 854 1042.92 854 1049Z" stroke="#156082" stroke-width="3.4375" stroke-linejoin="round" stroke-miterlimit="10" fill="#156082"/></g><g><text fill="#595959" font-family="Aptos,Aptos_MSFontService,sans-serif" font-weight="400" font-size="41" transform="matrix(1 0 0 1 896.375 1061)">Dentists</text></g><g><path d="M1104 1050 1192 1050" stroke="#E97132" stroke-width="10.3125" stroke-linecap="round" stroke-linejoin="round" stroke-miterlimit="10" fill="none" fill-rule="evenodd"/></g><g><path d="M1158 1049C1158 1055.07 1153.07 1060 1147 1060 1140.92 1060 1136 1055.07 1136 1049 1136 1042.92 1140.92 1038 1147 1038 1153.07 1038 1158 1042.92 1158 1049Z" stroke="#E97132" stroke-width="3.4375" stroke-linejoin="round" stroke-miterlimit="10" fill="#E97132"/></g><g><text fill="#595959" font-family="Aptos,Aptos_MSFontService,sans-serif" font-weight="400" font-size="41" transform="matrix(1 0 0 1 1201.23 1061)">Dental Hygienists</text></g><rect x="0.499836" y="0.499836" width="2143" height="1143" stroke="#D9D9D9" stroke-width="3.4375" stroke-linejoin="round" stroke-miterlimit="10" fill="none"/></g></svg>