<?xml version="1.0" encoding="UTF-8"?>
<svg id="Layer_1" xmlns="http://www.w3.org/2000/svg" version="1.1" xmlns:xlink="http://www.w3.org/1999/xlink" xmlns:xmlns="http://www.w3.org/2000/svg" viewBox="0 0 1100 660">
  <!-- Generator: Adobe Illustrator 29.3.0, SVG Export Plug-In . SVG Version: 2.1.0 Build 146)  -->
  <defs>
    <style>
      .st0, .st1 {
        fill: none;
        stroke: #000;
      }

      .st2 {
        fill: #592a8a;
      }

      .st3 {
        font-family: ArialMT, Arial;
        font-size: 16px;
        isolation: isolate;
      }

      .st4 {
        fill: #8f7238;
      }

      .st1 {
        stroke-opacity: .1;
      }

      .st5 {
        fill: #012169;
      }

      .st6 {
        fill: #007fae;
      }
    </style>
  </defs>
  <g>
    <g>
      <line class="st1" x1="40" y1="260.5" x2="530" y2="260.5"/>
      <line class="st1" x1="40" y1="220.1" x2="530" y2="220.1"/>
      <line class="st1" x1="40" y1="179.8" x2="530" y2="179.8"/>
      <line class="st1" x1="40" y1="139.4" x2="530" y2="139.4"/>
      <line class="st1" x1="40" y1="99" x2="530" y2="99"/>
      <line class="st1" x1="40" y1="58.7" x2="530" y2="58.7"/>
    </g>
    <g>
      <path class="st0" d="M40,260.5h-6"/>
      <path class="st0" d="M40,220.1h-6"/>
      <path class="st0" d="M40,179.8h-6"/>
      <path class="st0" d="M40,139.4h-6"/>
      <path class="st0" d="M40,99h-6"/>
      <path class="st0" d="M40,58.7h-6"/>
    </g>
    <g>
      <text class="st3" transform="translate(22.6 265.6)"><tspan x="0" y="0">0</tspan></text>
      <text class="st3" transform="translate(13.7 225.3)"><tspan x="0" y="0">10</tspan></text>
      <text class="st3" transform="translate(13.7 184.9)"><tspan x="0" y="0">20</tspan></text>
      <text class="st3" transform="translate(13.7 144.5)"><tspan x="0" y="0">30</tspan></text>
      <text class="st3" transform="translate(13.7 104.2)"><tspan x="0" y="0">40</tspan></text>
      <text class="st3" transform="translate(13.7 63.8)"><tspan x="0" y="0">50</tspan></text>
    </g>
    <text class="st3" transform="translate(3.5 14.9)"><tspan x="0" y="0">↑ Area of Practice of 2014 Medical School Graduates in 2024, ECU</tspan></text>
    <g>
      <path class="st0" d="M78.5,260v6"/>
      <path class="st0" d="M147.5,260v6"/>
      <path class="st0" d="M216.5,260v6"/>
      <path class="st0" d="M285.5,260v6"/>
      <path class="st0" d="M354.5,260v6"/>
      <path class="st0" d="M423.5,260v6"/>
      <path class="st0" d="M492.5,260v6"/>
    </g>
    <g>
      <text class="st3" transform="translate(58.5 280.9)"><tspan x="0" y="0">Other</tspan></text>
      <text class="st3" transform="translate(135.9 280.9)"><tspan x="0" y="0">FM</tspan></text>
      <text class="st3" transform="translate(205.4 280.9)"><tspan x="0" y="0">PD</tspan></text>
      <text class="st3" transform="translate(276.6 280.9)"><tspan x="0" y="0">IM</tspan></text>
      <text class="st3" transform="translate(336.7 280.9)"><tspan x="0" y="0">OBG</tspan></text>
      <text class="st3" transform="translate(411.9 280.9)"><tspan x="0" y="0">GS</tspan></text>
      <text class="st3" transform="translate(470.7 280.9)"><tspan x="0" y="0">Psych</tspan></text>
    </g>
    <g>
      <text class="st3" transform="translate(115 209.2)"><tspan x="0" y="0">12 (15%)</tspan></text>
      <text class="st3" transform="translate(393.3 237.4)"><tspan x="0" y="0">5 (6.3%)</tspan></text>
      <text class="st3" transform="translate(255.3 245.5)"><tspan x="0" y="0">3 (3.8%)</tspan></text>
      <text class="st3" transform="translate(324.3 241.5)"><tspan x="0" y="0">4 (5.1%)</tspan></text>
      <text class="st3" transform="translate(46 189)"><tspan x="0" y="0">17 (22%)</tspan></text>
      <text class="st3" transform="translate(186.3 229.4)"><tspan x="0" y="0">7 (8.9%)</tspan></text>
      <text class="st3" transform="translate(462.3 253.6)"><tspan x="0" y="0">1 (1.3%)</tspan></text>
    </g>
    <g>
      <rect class="st2" x="116" y="211.6" width="62" height="48.4"/>
      <rect class="st2" x="392" y="239.8" width="62" height="20.2"/>
      <rect class="st2" x="254" y="247.9" width="62" height="12.1"/>
      <rect class="st2" x="323" y="243.9" width="62" height="16.1"/>
      <rect class="st2" x="47" y="191.4" width="62" height="68.6"/>
      <rect class="st2" x="185" y="231.7" width="62" height="28.3"/>
      <rect class="st2" x="461" y="256" width="62" height="4"/>
    </g>
    <line class="st0" x1="40" y1="260.5" x2="530" y2="260.5"/>
  </g>
  <g>
    <g>
      <line class="st1" x1="590" y1="260.5" x2="1080" y2="260.5"/>
      <line class="st1" x1="590" y1="220.1" x2="1080" y2="220.1"/>
      <line class="st1" x1="590" y1="179.8" x2="1080" y2="179.8"/>
      <line class="st1" x1="590" y1="139.4" x2="1080" y2="139.4"/>
      <line class="st1" x1="590" y1="99" x2="1080" y2="99"/>
      <line class="st1" x1="590" y1="58.7" x2="1080" y2="58.7"/>
    </g>
    <g>
      <path class="st0" d="M590,260.5h-6"/>
      <path class="st0" d="M590,220.1h-6"/>
      <path class="st0" d="M590,179.8h-6"/>
      <path class="st0" d="M590,139.4h-6"/>
      <path class="st0" d="M590,99h-6"/>
      <path class="st0" d="M590,58.7h-6"/>
    </g>
    <g>
      <text class="st3" transform="translate(572.6 265.6)"><tspan x="0" y="0">0</tspan></text>
      <text class="st3" transform="translate(563.7 225.3)"><tspan x="0" y="0">10</tspan></text>
      <text class="st3" transform="translate(563.7 184.9)"><tspan x="0" y="0">20</tspan></text>
      <text class="st3" transform="translate(563.7 144.5)"><tspan x="0" y="0">30</tspan></text>
      <text class="st3" transform="translate(563.7 104.2)"><tspan x="0" y="0">40</tspan></text>
      <text class="st3" transform="translate(563.7 63.8)"><tspan x="0" y="0">50</tspan></text>
    </g>
    <text class="st3" transform="translate(553.5 14.9)"><tspan x="0" y="0">↑ Area of Practice of 2014 Medical School Graduates in 2024, UNC-CH</tspan></text>
    <g>
      <path class="st0" d="M628.5,260v6"/>
      <path class="st0" d="M697.5,260v6"/>
      <path class="st0" d="M766.5,260v6"/>
      <path class="st0" d="M835.5,260v6"/>
      <path class="st0" d="M904.5,260v6"/>
      <path class="st0" d="M973.5,260v6"/>
      <path class="st0" d="M1042.5,260v6"/>
    </g>
    <g>
      <text class="st3" transform="translate(608.5 280.9)"><tspan x="0" y="0">Other</tspan></text>
      <text class="st3" transform="translate(685.9 280.9)"><tspan x="0" y="0">FM</tspan></text>
      <text class="st3" transform="translate(755.4 280.9)"><tspan x="0" y="0">PD</tspan></text>
      <text class="st3" transform="translate(826.6 280.9)"><tspan x="0" y="0">IM</tspan></text>
      <text class="st3" transform="translate(886.7 280.9)"><tspan x="0" y="0">OBG</tspan></text>
      <text class="st3" transform="translate(961.9 280.9)"><tspan x="0" y="0">GS</tspan></text>
      <text class="st3" transform="translate(1020.7 280.9)"><tspan x="0" y="0">Psych</tspan></text>
    </g>
    <g>
      <text class="st3" transform="translate(667.3 221.3)"><tspan x="0" y="0">9 (5.6%)</tspan></text>
      <text class="st3" transform="translate(943.3 245.5)"><tspan x="0" y="0">3 (1.9%)</tspan></text>
      <text class="st3" transform="translate(805.3 233.4)"><tspan x="0" y="0">6 (3.7%)</tspan></text>
      <text class="st3" transform="translate(869.8 253.6)"><tspan x="0" y="0">1 (0.62%)</tspan></text>
      <text class="st3" transform="translate(596 35.6)"><tspan x="0" y="0">55 (34%)</tspan></text>
      <text class="st3" transform="translate(736.3 237.4)"><tspan x="0" y="0">5 (3.1%)</tspan></text>
      <text class="st3" transform="translate(1012.3 241.5)"><tspan x="0" y="0">4 (2.5%)</tspan></text>
    </g>
    <g>
      <rect class="st6" x="666" y="223.7" width="62" height="36.3"/>
      <rect class="st6" x="942" y="247.9" width="62" height="12.1"/>
      <rect class="st6" x="804" y="235.8" width="62" height="24.2"/>
      <rect class="st6" x="873" y="256" width="62" height="4"/>
      <rect class="st6" x="597" y="38" width="62" height="222"/>
      <rect class="st6" x="735" y="239.8" width="62" height="20.2"/>
      <rect class="st6" x="1011" y="243.9" width="62" height="16.1"/>
    </g>
    <line class="st0" x1="590" y1="260.5" x2="1080" y2="260.5"/>
  </g>
  <g>
    <g>
      <line class="st1" x1="40" y1="590.5" x2="530" y2="590.5"/>
      <line class="st1" x1="40" y1="550.1" x2="530" y2="550.1"/>
      <line class="st1" x1="40" y1="509.8" x2="530" y2="509.8"/>
      <line class="st1" x1="40" y1="469.4" x2="530" y2="469.4"/>
      <line class="st1" x1="40" y1="429" x2="530" y2="429"/>
      <line class="st1" x1="40" y1="388.7" x2="530" y2="388.7"/>
    </g>
    <g>
      <path class="st0" d="M40,590.5h-6"/>
      <path class="st0" d="M40,550.1h-6"/>
      <path class="st0" d="M40,509.8h-6"/>
      <path class="st0" d="M40,469.4h-6"/>
      <path class="st0" d="M40,429h-6"/>
      <path class="st0" d="M40,388.7h-6"/>
    </g>
    <g>
      <text class="st3" transform="translate(22.6 595.6)"><tspan x="0" y="0">0</tspan></text>
      <text class="st3" transform="translate(13.7 555.3)"><tspan x="0" y="0">10</tspan></text>
      <text class="st3" transform="translate(13.7 514.9)"><tspan x="0" y="0">20</tspan></text>
      <text class="st3" transform="translate(13.7 474.5)"><tspan x="0" y="0">30</tspan></text>
      <text class="st3" transform="translate(13.7 434.2)"><tspan x="0" y="0">40</tspan></text>
      <text class="st3" transform="translate(13.7 393.8)"><tspan x="0" y="0">50</tspan></text>
    </g>
    <text class="st3" transform="translate(3.5 344.9)"><tspan x="0" y="0">↑ Area of Practice of 2014 Medical School Graduates in 2024, Wake Forest</tspan></text>
    <g>
      <path class="st0" d="M78.5,590v6"/>
      <path class="st0" d="M147.5,590v6"/>
      <path class="st0" d="M216.5,590v6"/>
      <path class="st0" d="M285.5,590v6"/>
      <path class="st0" d="M354.5,590v6"/>
      <path class="st0" d="M423.5,590v6"/>
      <path class="st0" d="M492.5,590v6"/>
    </g>
    <g>
      <text class="st3" transform="translate(58.5 610.9)"><tspan x="0" y="0">Other</tspan></text>
      <text class="st3" transform="translate(135.9 610.9)"><tspan x="0" y="0">FM</tspan></text>
      <text class="st3" transform="translate(205.4 610.9)"><tspan x="0" y="0">PD</tspan></text>
      <text class="st3" transform="translate(276.6 610.9)"><tspan x="0" y="0">IM</tspan></text>
      <text class="st3" transform="translate(336.7 610.9)"><tspan x="0" y="0">OBG</tspan></text>
      <text class="st3" transform="translate(411.9 610.9)"><tspan x="0" y="0">GS</tspan></text>
      <text class="st3" transform="translate(470.7 610.9)"><tspan x="0" y="0">Psych</tspan></text>
    </g>
    <g>
      <text class="st3" transform="translate(117.3 559.4)"><tspan x="0" y="0">7 (6.1%)</tspan></text>
      <text class="st3" transform="translate(393.3 575.5)"><tspan x="0" y="0">3 (2.6%)</tspan></text>
      <text class="st3" transform="translate(46 450.4)"><tspan x="0" y="0">34 (30%)</tspan></text>
      <text class="st3" transform="translate(181.8 583.6)"><tspan x="0" y="0">1 (0.88%)</tspan></text>
    </g>
    <g>
      <rect class="st4" x="116" y="561.7" width="62" height="28.3"/>
      <rect class="st4" x="392" y="577.9" width="62" height="12.1"/>
      <rect class="st4" x="47" y="452.8" width="62" height="137.2"/>
      <rect class="st4" x="185" y="586" width="62" height="4"/>
    </g>
    <line class="st0" x1="40" y1="590.5" x2="530" y2="590.5"/>
  </g>
  <g>
    <g>
      <line class="st1" x1="590" y1="590.5" x2="1080" y2="590.5"/>
      <line class="st1" x1="590" y1="550.1" x2="1080" y2="550.1"/>
      <line class="st1" x1="590" y1="509.8" x2="1080" y2="509.8"/>
      <line class="st1" x1="590" y1="469.4" x2="1080" y2="469.4"/>
      <line class="st1" x1="590" y1="429" x2="1080" y2="429"/>
      <line class="st1" x1="590" y1="388.7" x2="1080" y2="388.7"/>
    </g>
    <g>
      <path class="st0" d="M590,590.5h-6"/>
      <path class="st0" d="M590,550.1h-6"/>
      <path class="st0" d="M590,509.8h-6"/>
      <path class="st0" d="M590,469.4h-6"/>
      <path class="st0" d="M590,429h-6"/>
      <path class="st0" d="M590,388.7h-6"/>
    </g>
    <g>
      <text class="st3" transform="translate(572.6 595.6)"><tspan x="0" y="0">0</tspan></text>
      <text class="st3" transform="translate(563.7 555.3)"><tspan x="0" y="0">10</tspan></text>
      <text class="st3" transform="translate(563.7 514.9)"><tspan x="0" y="0">20</tspan></text>
      <text class="st3" transform="translate(563.7 474.5)"><tspan x="0" y="0">30</tspan></text>
      <text class="st3" transform="translate(563.7 434.2)"><tspan x="0" y="0">40</tspan></text>
      <text class="st3" transform="translate(563.7 393.8)"><tspan x="0" y="0">50</tspan></text>
    </g>
    <text class="st3" transform="translate(553.5 344.9)"><tspan x="0" y="0">↑ Area of Practice of 2014 Medical School Graduates in 2024, Duke</tspan></text>
    <g>
      <path class="st0" d="M628.5,590v6"/>
      <path class="st0" d="M697.5,590v6"/>
      <path class="st0" d="M766.5,590v6"/>
      <path class="st0" d="M835.5,590v6"/>
      <path class="st0" d="M904.5,590v6"/>
      <path class="st0" d="M973.5,590v6"/>
      <path class="st0" d="M1042.5,590v6"/>
    </g>
    <g>
      <text class="st3" transform="translate(608.5 610.9)"><tspan x="0" y="0">Other</tspan></text>
      <text class="st3" transform="translate(685.9 610.9)"><tspan x="0" y="0">FM</tspan></text>
      <text class="st3" transform="translate(755.4 610.9)"><tspan x="0" y="0">PD</tspan></text>
      <text class="st3" transform="translate(826.6 610.9)"><tspan x="0" y="0">IM</tspan></text>
      <text class="st3" transform="translate(886.7 610.9)"><tspan x="0" y="0">OBG</tspan></text>
      <text class="st3" transform="translate(961.9 610.9)"><tspan x="0" y="0">GS</tspan></text>
      <text class="st3" transform="translate(1020.7 610.9)"><tspan x="0" y="0">Psych</tspan></text>
    </g>
    <g>
      <text class="st3" transform="translate(943.3 583.6)"><tspan x="0" y="0">1 (1.1%)</tspan></text>
      <text class="st3" transform="translate(805.3 583.6)"><tspan x="0" y="0">1 (1.1%)</tspan></text>
      <text class="st3" transform="translate(596 539.2)"><tspan x="0" y="0">12 (13%)</tspan></text>
    </g>
    <g>
      <rect class="st5" x="942" y="586" width="62" height="4"/>
      <rect class="st5" x="804" y="586" width="62" height="4"/>
      <rect class="st5" x="597" y="541.6" width="62" height="48.4"/>
    </g>
    <line class="st0" x1="590" y1="590.5" x2="1080" y2="590.5"/>
  </g>
</svg>