<svg xmlns="http://www.w3.org/2000/svg" viewBox="0 0 270.85 125.56" width="270.85"><defs><style>.cls-1{fill:#1d3f55;}.cls-2,.cls-3{fill:#8cc541;}.cls-3{fill-rule:evenodd;}</style></defs><title>Asset 1</title><g id="Layer_2" data-name="Layer 2"><g id="Layer_1-2" data-name="Layer 1"><path class="cls-1" d="M25.1.47h3.67L35.49,9.1h0V.47h3.66V14.58H35.53L28.8,5.94h0v8.64H25.1Z"/><path class="cls-1" d="M61.51,7.26a7.51,7.51,0,0,1-7.81,7.79,7.5,7.5,0,0,1-7.8-7.79C45.9,3,49.64,0,53.7,0S61.51,3,61.51,7.26Zm-11.79,0a4,4,0,1,0,8,0,4,4,0,0,0-8,0Z"/><path class="cls-1" d="M80,14.58H75.4L71.94,9.16h0v5.42H68.23V.47h5.49c2.79,0,4.9,1.33,4.9,4.34a3.79,3.79,0,0,1-3.09,4ZM71.9,6.8h.36c1.2,0,2.54-.23,2.54-1.76s-1.34-1.76-2.54-1.76H71.9Z"/><path class="cls-1" d="M91.6,14.58H87.93v-11h-3V.47h9.73V3.58h-3Z"/><path class="cls-1" d="M110,5.92V.47h3.66V14.58H110V8.8h-5.31v5.78H101V.47h3.66V5.92Z"/><path class="cls-1" d="M142.56,5.21a4,4,0,0,0-3.22-1.56,3.71,3.71,0,0,0-3.76,3.91,3.66,3.66,0,0,0,3.81,3.84,4.23,4.23,0,0,0,3.17-1.5v4.4a10.28,10.28,0,0,1-3.24.66,7.85,7.85,0,0,1-5.3-2.08,6.91,6.91,0,0,1-2.26-5.34,7.4,7.4,0,0,1,2.07-5.16A7.64,7.64,0,0,1,139.21.09a8.79,8.79,0,0,1,3.35.71Z"/><path class="cls-1" d="M153.43,12.13l-1,2.45h-3.89L154,.47h4l5.32,14.11h-3.91l-.92-2.45ZM156,4.83h0l-1.51,4.49h3.05Z"/><path class="cls-1" d="M181.22,14.58h-4.57l-3.46-5.42h0v5.42h-3.67V.47H175c2.78,0,4.9,1.33,4.9,4.34a3.8,3.8,0,0,1-3.09,4ZM173.15,6.8h.35c1.2,0,2.55-.23,2.55-1.76s-1.35-1.76-2.55-1.76h-.35Z"/><path class="cls-1" d="M202.13,7.26a7.81,7.81,0,0,1-15.61,0c0-4.27,3.74-7.26,7.8-7.26S202.13,3,202.13,7.26Zm-11.79,0a4,4,0,1,0,8,0,4,4,0,0,0-8,0Z"/><path class="cls-1" d="M212.52,11.48h4.4v3.1h-8.07V.47h3.67Z"/><path class="cls-1" d="M226.8,14.58h-3.66V.47h3.66Z"/><path class="cls-1" d="M234.22.47h3.67l6.72,8.63h0V.47h3.67V14.58h-3.67l-6.72-8.64h0v8.64h-3.67Z"/><path class="cls-1" d="M259.33,12.13l-1,2.45h-3.89L259.89.47h4l5.32,14.11h-3.92l-.91-2.45Zm2.56-7.3h0l-1.52,4.49h3.06Z"/><path class="cls-2" d="M270.84,104.29a8.92,8.92,0,0,0-.4-2.25c-.17-.21-.48-.32-.66-.54,0,.06-.1.07-.15.1s-.62-.07-.62-.07.88.56.34.74-.65-1.11-1.11-.14c-.18.39.09,2.46-.37,2.66a1.69,1.69,0,0,1-1-.35c-.17-.28.74.14.95,0s-.49-.92-.62-1-.34-.27-.22-.3l.64.16a4.85,4.85,0,0,0,0-.75c-.06-.11-.42-.11-.32-.18.45-.29.6-.47.43-1.15s-2.22-.26-2.42.27c0,.07-.13.15-.08.19s.25-.08.32,0-.07.18-.15.2-.46-.35-.64-.36l-.31.2c-.16-.09.18-.5-.17-.56s-2.92,1.22-3,.28c0-.09.12-.12.15-.2a.31.31,0,0,0,0-.19c-.23-.82-1.31-2.51-.09-3.21.52-.3-.3.94-.27,1.33s.45,1.5.82,1.49c.12,0,.19-.23.31-.2.29.08.51.63,1,.55s.53-.79.9-1c0,0,1-.07.94-.22s-.22-.06-.32-.09c-.45-.11-.66-.47-1-.81-.06-.06-.22-.13-.17-.19s2.55,1.27,2.54,1c0,0-1-1.33-.83-1.29.42.11.63,1,1.14,1.1.14,0,1.1-.42,1.07-.61s-1.82-1.21-1.14-1.38,1.16,1.51,2,1.25c.39-.12-.31-1.37-.28-1.4.14-.19.44,0,.47.16s-.05.13-.07.2-.11.13-.07.19.42,0,.47.17-.15.11-.14.2.41.4.49.55.15,1.16.61,1c.19-.07,0-.36,0-.44a25,25,0,0,1-1.15-2.61l0-.63a.24.24,0,0,0-.3.08c-.11.16.35.48.17.56,0,0-.47-.69-.49-.74s0-.14,0-.19.17,0,.16,0c-.07-.29-.56-.46-.65-.74s0-.32,0-.57q-14,.49-27.94.5a215.23,215.23,0,0,1-24.36-1,4.08,4.08,0,0,0-.87,2.52c0,.48-.59,0-.78.07a3.63,3.63,0,0,0-.8.73,19,19,0,0,1-1.65,2.21c-.49.21-.68-.83-1.22-.81a8.79,8.79,0,0,0-1.43.51c-.8.35-1.18,1.58-2.1,1.61-.62,0,.22-1.06-.58-1.16a4.29,4.29,0,0,0-1.29.7c-.1.11-.2.69-.34.74s-.61-.37-.93-.24c0,0-.3,1.65-.88,1.85-.14.05-1.1-.23-1.74.1-.44.23-.86.87-1.31,1.06-.14.06-.34-.1-.47,0s-.06.29-.18.36-.58,0-.8.15c-.38.2-.56.84-1.14.7l-.3-.4c-.11,0-.2.15-.32.17-.31,0-.64-.11-.95-.06a9.12,9.12,0,0,0-2.78,1.53,1.47,1.47,0,0,0-.08.3c-.08.3-.16.59-.25.89a.79.79,0,0,1-.08.3c-.53.83-1.86-.42-2.25.42a11,11,0,0,0-.5,2.8q5.79.3,11.59.5a12.62,12.62,0,0,1,3.07-.79l.3.21c.42-.08.42-.58.67-.73a4.53,4.53,0,0,1,1.28-.24,5.69,5.69,0,0,1,.65-.24l.47.21c.24-.06.35-.74.5-.55.31.41,1.44.25,1.94.27,1.9.08,3.79.27,5.68.45.47.05,5,.45,5,.48.2.24-.16.83,0,.94.5.25.7-.6,1.05-.54.1,0,.1.17.15.26.29.48,1.07,1,1.24,1.47.11.3-.39,1.29-.2,1.5.05.05,2.44.14,2.72.16,1.32.07,7.34,0,8.12.4a29.77,29.77,0,0,1,3.23,3.29c2.47,2.48,4.94,5,7.44,7.39a12.3,12.3,0,0,0,1.23-.39c.27-.11.3-.68.6-.68s0,.46.17.56.9-.2,1.13-.2c.45,0,1.73.58,2.1.36s.66-2.92.83-2.77c.37.35-.11,2.2.13,2.19a9.84,9.84,0,0,0,.35-1.6,5,5,0,0,1,1.15-2.41,7.3,7.3,0,0,1,2.75-2.45c.19-.09,1-.16.94-.59s-.92-.4-.81-.54.8-.05.8-.4c0-.63-1-.41-.67-1,0-.09.61-.12.64-.08l-.15.38c0,.16.51.4.49.56s-.63.51-.62.76a4.07,4.07,0,0,0,.65.37,6.88,6.88,0,0,0,2-1.93l-.17-.37c0-.08.12.11.16.18s.29.07.33.18-.05.13-.08.19-.13.16-.07.2a14.32,14.32,0,0,0,2.22-.63c.4-.05.88.21,1.28.12.1,0,.41-.2.15-.34s-.5.17-.48,0a5,5,0,0,1,.78-.59c.24.06.07.86.19.94.74.55.22-1,.69-1,.65.11-.24.52.1.75.79.53,1.51-1.67,1.7-1.75s.23.35.46,0,0-.39.48-.64l.3-.39c0-.16-.68-.79-.81-.54s.43.36.34.55l-.64,0c-.11.07.12.31,0,.38l-.32-.18-.31.2c-.59-.21.27-.54.3-.58s-.18-.47-.18-.56,0-.44-.17-.37-.21.74-.29,1c-.2.51-.28-.12-.48-.17-1-.25.61,1-.38.67-.08,0-.18,0-.24-.09v-.38c-.55-.3-1,1-1.41,1l-.48-.37c-.29-.12-.67,0-1-.16a3.67,3.67,0,0,1-1.42-1.69c-.06-.23.38.31.6.39.44.18,1.39,1,1.93.9a4.41,4.41,0,0,0,2.18-1.77c.24-.64-1.16,0-.92-.47s1.3-.16,1.2-.47-.58,0-.48-.18,1.15.62.94-.4c0-.12-3.17-1.36-3.68-1.6-.34-.16-1,.06-1.27-.15-.1-.08.05-.27,0-.38s-.71-.42-.53-.53.26,0,.39.07a13,13,0,0,0,2.36,1c.22,0,.42-.15.63-.14s.48.63,1,.48c.14,0-.06-.3-.13-.44-.25-.55-.8-1.33.07-1.45.26,0,.94,0,1,.35.13.45-.88-.06-.86.4,0,.2,0,.45.17.56s.41-.16.48,0-.25.34,0,.57c.72.6.16-.2.16-.2.13-.35.48.43.46-.3,0-.15.06-.49.18-.41.75.56-.41,1.46.49,1.43.29,0-.16-1,.12-1s.47.62.66.74.92-.25,1.27.14c.09.1,0-.3.14-.38l.63-.21c.1-.09-.18-.56.14-.57.08,0,.08.2.16.18s.22-.63.29-.77l.31-.2c0-.08-.18-.1-.16-.18s.53-.31.61-.4.16-1,.28-1,0,.44.18.56a3.45,3.45,0,0,0,.79.16c.11-.07-.07-.26,0-.37s.46-.17.46-.4c0-.07-.51-.67-.35-.74Zm-33.47,1.89c-4.06,0-7.36-1-7.36-2.31s3.3-2.32,7.36-2.32,7.36,1,7.36,2.32S241.44,106.18,237.37,106.18Z"/><path class="cls-1" d="M42.61,25.59a.7.7,0,0,0-.64-.42H26.05a.69.69,0,0,0-.63.42L.06,85.59a.66.66,0,0,0,.06.65.67.67,0,0,0,.57.32H18.06a.72.72,0,0,0,.65-.44l4.07-10.21h22L49,86.12a.7.7,0,0,0,.64.44H67.34a.7.7,0,0,0,.58-.32.68.68,0,0,0,.06-.65Zm-3.1,36.09H28.19l5.7-14.35Z"/><path class="cls-1" d="M131.79,25.59H115.27a.69.69,0,0,0-.69.7v21.6H94.78V26.29a.69.69,0,0,0-.69-.7H77.58a.69.69,0,0,0-.69.7V85.86a.7.7,0,0,0,.69.7H94.09a.7.7,0,0,0,.69-.7V63.92h19.8V85.86a.7.7,0,0,0,.69.7h16.52a.7.7,0,0,0,.69-.7V26.29A.69.69,0,0,0,131.79,25.59Z"/><path class="cls-1" d="M195.13,71.12H163.82V63.07h27.9a.7.7,0,0,0,.69-.7v-13a.69.69,0,0,0-.69-.69h-27.9V41H194.7a.7.7,0,0,0,.7-.69v-14a.7.7,0,0,0-.7-.7H146.79a.7.7,0,0,0-.7.7V85.86a.7.7,0,0,0,.7.7h48.34a.7.7,0,0,0,.69-.7v-14A.69.69,0,0,0,195.13,71.12Z"/><path class="cls-1" d="M268.37,68.43a1.42,1.42,0,0,0-1-.67l-14.59-2.12a1.39,1.39,0,0,0-1.4.67,16.53,16.53,0,1,1,0-16.59,1.39,1.39,0,0,0,1.4.67l14.6-2.13a1.38,1.38,0,0,0,1-.66,1.35,1.35,0,0,0,.11-1.19,33.36,33.36,0,1,0-54.86,35.21l22.62,22.62a1.37,1.37,0,0,0,1,.4,1.38,1.38,0,0,0,1-.4l22.62-22.62a33.17,33.17,0,0,0,7.67-12A1.42,1.42,0,0,0,268.37,68.43Z"/><path class="cls-3" d="M249.65,65.31a3.39,3.39,0,0,1,2.72-1.67,4.78,4.78,0,0,0-4.06-3.92l-.71,0A4.09,4.09,0,0,0,250,56a4.11,4.11,0,1,0-5.87,3.71c-.2,0-.4,0-.6,0a4.29,4.29,0,0,0-2.18.83,7.29,7.29,0,0,1,.41,1.59c.1.76.12,4.08.13,9.54a14.35,14.35,0,0,0,5.54-3.44A14.54,14.54,0,0,0,249.65,65.31Z"/><path class="cls-3" d="M234.78,57.52l-.87-.05a5,5,0,0,0,2.93-4.54,5.05,5.05,0,1,0-7.21,4.54l-.73.05a5.91,5.91,0,0,0-5.21,5.54,14.4,14.4,0,0,0,13.52,9.4,14.07,14.07,0,0,0,2.68-.26c0-3,0-9-.12-9.81A5.91,5.91,0,0,0,234.78,57.52Z"/></g></g></svg>