<?xml version="1.0" encoding="utf-8"?>
<!-- Generator: Adobe Illustrator 24.2.0, SVG Export Plug-In . SVG Version: 6.00 Build 0)  -->
<svg version="1.1" id="Layer_1" xmlns="http://www.w3.org/2000/svg" xmlns:xlink="http://www.w3.org/1999/xlink" x="0px" y="0px"
	 viewBox="0 0 540 350" style="enable-background:new 0 0 540 350;" xml:space="preserve">
<style type="text/css">
	.st0{fill:#006837;}
	.st1{fill:#29332B;}
	.st2{fill:#FFFFFF;}
	.st3{fill:#1F2621;}
	.st4{fill:none;}
	.st5{stroke:#1F2621;stroke-width:0.5;stroke-miterlimit:10;}
</style>
<g>
	<g>
		<path class="st0" d="M208.3,56.2c1.6,28.3,3.2,56.6,4.8,85c3.1,54.9,6.1,110.4-3,164.7c53.5-18.8,110.8-26.5,167.4-22.4
			c-5.9-79.6-11.9-159.2-17.8-238.9c-10.1,2.4-20.2,4.8-30.4,7.2c-41.7,9.8-87,19.3-125.8,1.4"/>
		<g>
			<path d="M206.8,56.2c1.8,32.9,3.7,65.8,5.5,98.8c1.8,32.2,3.2,64.4,1.7,96.6c-0.8,18-2.5,36.1-5.5,53.9c-0.2,1,0.7,2.3,1.8,1.8
				c20.8-7.3,42.2-12.9,63.9-16.8s43.8-6.1,65.9-6.5c12.4-0.2,24.8,0.1,37.2,1c0.8,0.1,1.6-0.7,1.5-1.5c-2.3-31.1-4.6-62.1-6.9-93.2
				s-4.6-62.1-6.9-93.2c-1.3-17.5-2.6-35-3.9-52.6c-0.1-1-0.9-1.7-1.9-1.4c-20.9,4.9-41.7,10.3-62.8,14.2c-19.7,3.6-40,5.8-60.1,3.4
				c-11.1-1.3-22-4.2-32.1-8.8c-1.7-0.8-3.3,1.8-1.5,2.6c18.5,8.4,38.8,11,58.9,10c20.6-0.9,41-5.1,61-9.7
				c12.4-2.9,24.9-5.9,37.3-8.8c-0.6-0.5-1.3-1-1.9-1.4c2.3,31.1,4.6,62.1,6.9,93.2s4.6,62.1,6.9,93.2c1.3,17.5,2.6,35,3.9,52.6
				c0.5-0.5,1-1,1.5-1.5c-22.2-1.6-44.4-1.4-66.6,0.6c-22,2-43.9,5.7-65.3,11.1c-12.1,3.1-24.1,6.7-35.9,10.8
				c0.6,0.6,1.2,1.2,1.8,1.8c5.4-31.9,6.6-64.3,6-96.6c-0.6-32.6-2.8-65.2-4.6-97.7c-1-18.6-2.1-37.2-3.1-55.8
				C209.7,54.2,206.7,54.2,206.8,56.2L206.8,56.2z"/>
		</g>
	</g>
	<g>
		<g>
			<g>
				<path class="st1" d="M213.3,73.1c-10.8-1.6-21.9,0.1-31.7,4.8c-4.4,2.1-9.6,4.9-12.1,9.3c-2.8,4.9-0.4,10.1,3.1,13.9
					c6.7,7.4,16.4,11.9,26.3,12.8c2.4,0.2,4.9,0.2,7.4-0.1c2.5-0.3,5.2-0.7,7.3-2.1c4.4-2.8,5.4-8.5,6.5-13.2
					c1.5-6,2.6-12.7,0.2-18.7c-1.9-4.7-5.7-8.9-10.9-9.7c-1.9-0.3-2.7,2.6-0.8,2.9c4,0.6,7,3.6,8.6,7.2c2.1,4.4,1.7,9.6,0.8,14.3
					c-0.5,2.5-1.1,5.1-1.8,7.5c-0.6,2-1.2,4.1-2.5,5.8c-2.8,3.4-8.3,3.4-12.3,3.3c-8.9-0.2-17.6-3.6-24.1-9.4
					c-3-2.7-7.1-6.9-5.9-11.4c1.2-4.3,6.1-6.9,9.7-8.8c9.5-5.1,20.7-7,31.3-5.5C214.4,76.3,215.2,73.4,213.3,73.1L213.3,73.1z"/>
			</g>
		</g>
		<g>
			<g>
				<path class="st1" d="M213.3,103.8c-10.8-1.6-21.9,0.1-31.7,4.8c-4.4,2.1-9.6,4.9-12.1,9.3c-2.8,4.9-0.4,10.1,3.1,13.9
					c6.7,7.4,16.4,11.9,26.3,12.8c2.4,0.2,4.9,0.2,7.4-0.1s5.2-0.7,7.3-2.1c4.4-2.8,5.4-8.5,6.5-13.2c1.5-6,2.6-12.7,0.2-18.7
					c-2-4.6-5.8-8.8-11-9.6c-1.9-0.3-2.7,2.6-0.8,2.9c4,0.6,7,3.6,8.6,7.2c2.1,4.4,1.7,9.6,0.8,14.3c-0.5,2.5-1.1,5.1-1.8,7.5
					c-0.6,2-1.2,4.1-2.5,5.8c-2.8,3.4-8.3,3.4-12.3,3.3c-8.7-0.2-17.4-3.6-23.8-9.4c-3-2.7-7.1-6.9-5.9-11.4
					c1.2-4.3,6.1-6.9,9.7-8.8c9.5-5.1,20.7-7,31.3-5.5C214.4,107,215.2,104.1,213.3,103.8L213.3,103.8z"/>
			</g>
		</g>
		<g>
			<g>
				<path class="st1" d="M208.3,135.8c-10.8-1.6-21.9,0.1-31.7,4.8c-4.4,2.1-9.6,4.9-12.1,9.3c-2.8,4.9-0.4,10.1,3.1,13.9
					c6.7,7.4,16.4,11.9,26.3,12.8c2.4,0.2,4.9,0.2,7.4-0.1s5.2-0.7,7.3-2.1c4.4-2.8,5.4-8.5,6.5-13.2c1.5-6,2.6-12.7,0.2-18.7
					c-2-4.6-5.8-8.8-11-9.6c-1.9-0.3-2.7,2.6-0.8,2.9c4,0.6,7,3.6,8.6,7.2c2.1,4.4,1.7,9.6,0.8,14.3c-0.5,2.5-1.1,5.1-1.8,7.5
					c-0.6,2-1.2,4.1-2.5,5.8c-2.8,3.4-8.3,3.4-12.3,3.3c-8.7-0.2-17.4-3.6-23.8-9.4c-3-2.7-7.1-6.9-5.9-11.4
					c1.2-4.3,6.1-6.9,9.7-8.8c9.5-5.1,20.7-7,31.3-5.5C209.4,139,210.2,136.1,208.3,135.8L208.3,135.8z"/>
			</g>
		</g>
		<g>
			<g>
				<path class="st1" d="M208.3,162.8c-10.8-1.6-21.9,0.1-31.7,4.8c-4.4,2.1-9.6,4.9-12.1,9.3c-2.8,4.9-0.4,10.1,3.1,13.9
					c6.7,7.4,16.4,11.9,26.3,12.8c2.4,0.2,4.9,0.2,7.4-0.1s5.2-0.7,7.3-2.1c4.4-2.8,5.4-8.5,6.5-13.2c1.5-6,2.6-12.7,0.2-18.7
					c-1.9-4.7-5.7-8.9-10.9-9.7c-1.9-0.3-2.7,2.6-0.8,2.9c4,0.6,7,3.6,8.6,7.2c2.1,4.4,1.7,9.6,0.8,14.3c-0.5,2.5-1.1,5.1-1.8,7.5
					c-0.6,2-1.2,4.1-2.5,5.8c-2.8,3.4-8.3,3.4-12.3,3.3c-8.7-0.2-17.4-3.6-23.8-9.4c-3-2.7-7.1-6.9-5.9-11.4
					c1.2-4.3,6.1-6.9,9.7-8.8c9.5-5.1,20.7-7,31.3-5.5C209.4,166,210.2,163.1,208.3,162.8L208.3,162.8z"/>
			</g>
		</g>
		<g>
			<g>
				<path class="st1" d="M213.3,182.8c-10.8-1.6-21.9,0.1-31.7,4.8c-4.4,2.1-9.6,4.9-12.1,9.3c-2.8,4.9-0.4,10.1,3.1,13.9
					c6.7,7.4,16.4,11.9,26.3,12.8c2.4,0.2,4.9,0.2,7.4-0.1s5.2-0.7,7.3-2.1c4.4-2.8,5.4-8.5,6.5-13.2c1.5-6,2.6-12.7,0.2-18.7
					c-1.9-4.7-5.7-8.9-10.9-9.7c-1.9-0.3-2.7,2.6-0.8,2.9c4,0.6,7,3.6,8.6,7.2c2.1,4.4,1.7,9.6,0.8,14.3c-0.5,2.5-1.1,5.1-1.8,7.5
					c-0.6,2-1.2,4.1-2.5,5.8c-2.8,3.4-8.3,3.4-12.3,3.3c-8.7-0.2-17.4-3.6-23.8-9.4c-3-2.7-7.1-6.9-5.9-11.4
					c1.2-4.3,6.1-6.9,9.7-8.8c9.5-5.1,20.7-7,31.3-5.5C214.4,186,215.2,183.1,213.3,182.8L213.3,182.8z"/>
			</g>
		</g>
		<g>
			<g>
				<path class="st1" d="M213.3,208.8c-10.8-1.6-21.9,0.1-31.7,4.8c-4.4,2.1-9.6,4.9-12.1,9.3c-2.8,4.9-0.4,10.1,3.1,13.9
					c6.7,7.4,16.4,11.9,26.3,12.8c2.4,0.2,4.9,0.2,7.4-0.1s5.2-0.7,7.3-2.1c4.4-2.8,5.4-8.5,6.5-13.2c1.5-6,2.6-12.7,0.2-18.7
					c-1.9-4.7-5.7-8.9-10.9-9.7c-1.9-0.3-2.7,2.6-0.8,2.9c4,0.6,7,3.6,8.6,7.2c2.1,4.4,1.7,9.6,0.8,14.3c-0.5,2.5-1.1,5.1-1.8,7.5
					c-0.6,2-1.2,4.1-2.5,5.8c-2.8,3.4-8.3,3.4-12.3,3.3c-8.7-0.2-17.4-3.6-23.8-9.4c-3-2.7-7.1-6.9-5.9-11.4
					c1.2-4.3,6.1-6.9,9.7-8.8c9.5-5.1,20.7-7,31.3-5.5C214.4,212,215.2,209.1,213.3,208.8L213.3,208.8z"/>
			</g>
		</g>
		<g>
			<g>
				<path class="st1" d="M213.3,229.8c-10.8-1.6-21.9,0.1-31.7,4.8c-4.4,2.1-9.6,4.9-12.1,9.3c-2.8,4.9-0.4,10.1,3.1,13.9
					c6.7,7.4,16.4,11.9,26.3,12.8c2.4,0.2,4.9,0.2,7.4-0.1c2.5-0.3,5.2-0.7,7.3-2.1c4.4-2.8,5.4-8.5,6.5-13.2
					c1.5-6,2.6-12.7,0.2-18.7c-1.9-4.7-5.7-8.9-10.9-9.7c-1.9-0.3-2.7,2.6-0.8,2.9c4,0.6,7,3.6,8.6,7.2c2.1,4.4,1.7,9.6,0.8,14.3
					c-0.5,2.5-1.1,5.1-1.8,7.5c-0.6,2-1.2,4.1-2.5,5.8c-2.8,3.4-8.3,3.4-12.3,3.3c-8.7-0.2-17.4-3.6-23.8-9.4
					c-3-2.7-7.1-6.9-5.9-11.4c1.2-4.3,6.1-6.9,9.7-8.8c9.5-5.1,20.7-7,31.3-5.5C214.4,233,215.2,230.1,213.3,229.8L213.3,229.8z"/>
			</g>
		</g>
		<g>
			<g>
				<path class="st1" d="M213.3,254.8c-10.8-1.6-21.9,0.1-31.7,4.8c-4.4,2.1-9.6,4.9-12.1,9.3c-2.8,4.9-0.4,10.1,3.1,13.9
					c6.7,7.4,16.4,11.9,26.3,12.8c2.4,0.2,4.9,0.2,7.4-0.1c2.5-0.3,5.2-0.7,7.3-2.1c4.4-2.8,5.4-8.5,6.5-13.2
					c1.5-6,2.6-12.7,0.2-18.7c-1.9-4.7-5.7-8.9-10.9-9.7c-1.9-0.3-2.7,2.6-0.8,2.9c4,0.6,7,3.6,8.6,7.2c2.1,4.4,1.7,9.6,0.8,14.3
					c-0.5,2.5-1.1,5.1-1.8,7.5c-0.6,2-1.2,4.1-2.5,5.8c-2.8,3.4-8.3,3.4-12.3,3.3c-8.7-0.2-17.4-3.6-23.8-9.4
					c-3-2.7-7.1-6.9-5.9-11.4c1.2-4.3,6.1-6.9,9.7-8.8c9.5-5.1,20.7-7,31.3-5.5C214.4,258,215.2,255.1,213.3,254.8L213.3,254.8z"/>
			</g>
		</g>
	</g>
	<g>
		<path class="st2" d="M229.3,67.1c1.3,25.2,2.7,50.3,4,75.5c2.6,48.8,5.2,98.1-2.5,146.3c45-16.7,93.4-23.5,141-19.9
			c-5-70.7-10-141.5-15-212.2c-8.5,2.1-17.1,4.2-25.6,6.4c-35,8.7-73.2,17.2-105.9,1.3"/>
		<g>
			<path class="st3" d="M228.5,67.1c1.5,29.1,3.1,58.1,4.6,87.2c1.5,28.7,2.7,57.4,1.5,86.1c-0.7,16.2-2.1,32.3-4.6,48.3
				c-0.1,0.5,0.3,1.1,0.9,0.9c17.5-6.5,35.5-11.5,53.9-15c18.3-3.5,36.8-5.4,55.5-5.8c10.5-0.2,21,0.1,31.5,0.9
				c0.4,0,0.8-0.4,0.8-0.8c-1.9-27.6-3.9-55.1-5.8-82.7c-2-27.7-3.9-55.3-5.9-83c-1.1-15.5-2.2-31.1-3.3-46.6c0-0.5-0.5-0.8-0.9-0.7
				c-17.5,4.4-35,9.1-52.7,12.6c-16.7,3.2-33.9,5.2-50.8,3.1c-9.5-1.2-18.8-3.8-27.4-7.9c-0.9-0.4-1.6,0.9-0.8,1.3
				c15.3,7.4,32.3,9.6,49.2,8.9c17.4-0.8,34.5-4.5,51.3-8.6c10.5-2.6,21-5.2,31.5-7.8c-0.3-0.2-0.6-0.5-0.9-0.7
				c1.9,27.6,3.9,55.1,5.8,82.7c2,27.7,3.9,55.3,5.9,83c1.1,15.5,2.2,31.1,3.3,46.6c0.3-0.3,0.5-0.5,0.8-0.8
				c-18.6-1.4-37.3-1.2-55.9,0.5c-18.5,1.7-36.9,5-54.9,9.8c-10.3,2.7-20.4,5.9-30.4,9.6c0.3,0.3,0.6,0.6,0.9,0.9
				c4.5-28.4,5.5-57.2,5.1-85.9c-0.5-29-2.3-58-3.9-87c-0.9-16.4-1.7-32.8-2.6-49.2C230,66.1,228.5,66.1,228.5,67.1L228.5,67.1z"/>
		</g>
	</g>
	<g>
		<path class="st2" d="M225,68.5c1.3,25.2,2.7,50.3,4,75.5c2.6,48.8,5.2,98.1-2.5,146.3c45-16.7,93.4-23.5,141-19.9
			c-5-70.7-10-141.5-15-212.2c-8.5,2.1-17.1,4.2-25.6,6.4c-35,8.7-73.2,17.2-105.9,1.3"/>
		<g>
			<path class="st3" d="M224.2,68.5c1.5,29.1,3.1,58.1,4.6,87.2c1.5,28.7,2.7,57.4,1.5,86.1c-0.7,16.2-2.1,32.3-4.6,48.3
				c-0.1,0.5,0.3,1.1,0.9,0.9c17.5-6.5,35.5-11.5,53.9-15c18.3-3.5,36.8-5.4,55.5-5.8c10.5-0.2,21,0.1,31.5,0.9
				c0.4,0,0.8-0.4,0.8-0.8c-1.9-27.6-3.9-55.1-5.8-82.7c-2-27.7-3.9-55.3-5.9-83c-1.1-15.5-2.2-31.1-3.3-46.6c0-0.5-0.5-0.8-0.9-0.7
				c-17.5,4.4-35,9.1-52.7,12.6c-16.7,3.2-33.9,5.2-50.8,3.1c-9.5-1.2-18.8-3.8-27.4-7.9c-0.9-0.4-1.6,0.9-0.8,1.3
				c15.3,7.4,32.3,9.6,49.2,8.9c17.4-0.8,34.5-4.5,51.3-8.6c10.5-2.6,21-5.2,31.5-7.8c-0.3-0.2-0.6-0.5-0.9-0.7
				c1.9,27.6,3.9,55.1,5.8,82.7c2,27.7,3.9,55.3,5.9,83c1.1,15.5,2.2,31.1,3.3,46.6c0.3-0.3,0.5-0.5,0.8-0.8
				c-18.6-1.4-37.3-1.2-55.9,0.5c-18.5,1.7-36.9,5-54.9,9.8c-10.3,2.7-20.4,5.9-30.4,9.6c0.3,0.3,0.6,0.6,0.9,0.9
				c4.5-28.4,5.5-57.2,5.1-85.9c-0.5-29-2.3-58-3.9-87c-0.9-16.4-1.7-32.8-2.6-49.2C225.7,67.5,224.2,67.5,224.2,68.5L224.2,68.5z"
				/>
		</g>
	</g>
	<g>
		<path class="st0" d="M192.3,55.8c1.6,28.3,3.2,56.6,4.8,85c3.1,54.9,6.1,110.4-3,164.7c53.5-18.8,110.8-26.5,167.4-22.4
			c-5.9-79.6-11.9-159.2-17.8-238.9c-10.1,2.4-20.2,4.8-30.4,7.2c-41.6,9.8-86.9,19.3-125.8,1.4"/>
		<g>
			<path class="st1" d="M190.8,55.8c1.8,32.9,3.7,65.8,5.5,98.8c1.8,32.2,3.2,64.4,1.7,96.6c-0.8,18-2.5,36.1-5.5,53.9
				c-0.2,1,0.7,2.3,1.8,1.8c20.8-7.3,42.2-12.9,63.9-16.8s43.8-6.1,65.9-6.5c12.4-0.2,24.8,0.1,37.2,1c0.8,0.1,1.6-0.7,1.5-1.5
				c-2.3-31.1-4.6-62.1-6.9-93.2s-4.6-62.1-6.9-93.2c-1.3-17.5-2.6-35-3.9-52.6c-0.1-1-0.9-1.7-1.9-1.4
				c-20.9,4.9-41.7,10.3-62.8,14.2c-19.7,3.6-40,5.8-60.1,3.4c-11-1.3-21.9-4.1-32-8.8c-1.7-0.8-3.3,1.8-1.5,2.6
				c18.5,8.4,38.8,11,58.9,10c20.6-0.9,41-5.1,61-9.7c12.4-2.9,24.9-5.9,37.3-8.8c-0.6-0.5-1.3-1-1.9-1.4
				c2.3,31.1,4.6,62.1,6.9,93.2c2.3,31.1,4.6,62.1,6.9,93.2c1.3,17.5,2.6,35,3.9,52.6c0.5-0.5,1-1,1.5-1.5
				c-22.2-1.6-44.4-1.4-66.6,0.6c-22,2-43.9,5.7-65.3,11.1c-12.1,3.1-24.1,6.7-35.9,10.8c0.6,0.6,1.2,1.2,1.8,1.8
				c5.4-31.9,6.6-64.3,6-96.6c-0.6-32.6-2.8-65.2-4.6-97.7c-1-18.6-2.1-37.2-3.1-55.8C193.7,53.9,190.7,53.8,190.8,55.8L190.8,55.8z
				"/>
		</g>
	</g>
	<g>
		<g>
			<path d="M193.2,112.5c5.6,2.4,12,1.6,16.7-2.2c0.6-0.5,0.5-1.6,0-2.1c-0.6-0.6-1.5-0.5-2.1,0c-3.6,2.9-8.9,3.6-13.1,1.8
				c-0.7-0.3-1.6-0.2-2.1,0.5C192.3,111.1,192.5,112.2,193.2,112.5L193.2,112.5z"/>
		</g>
	</g>
	<g>
		<g>
			<path d="M193.3,144.6c5.6,2.4,12,1.6,16.7-2.2c0.6-0.5,0.5-1.6,0-2.1c-0.6-0.6-1.5-0.5-2.1,0c-3.6,2.9-8.9,3.6-13.1,1.8
				c-0.7-0.3-1.6-0.2-2.1,0.5C192.3,143.1,192.5,144.2,193.3,144.6L193.3,144.6z"/>
		</g>
	</g>
	<g>
		<g>
			<path d="M195.3,174.6c5.6,2.4,12,1.6,16.7-2.2c0.6-0.5,0.5-1.6,0-2.1c-0.6-0.6-1.5-0.5-2.1,0c-3.6,2.9-8.9,3.6-13.1,1.8
				c-0.7-0.3-1.6-0.2-2.1,0.5C194.3,173.1,194.5,174.2,195.3,174.6L195.3,174.6z"/>
		</g>
	</g>
	<g>
		<g>
			<path d="M196.3,202.6c5.6,2.4,12,1.6,16.7-2.2c0.6-0.5,0.5-1.6,0-2.1c-0.6-0.6-1.5-0.5-2.1,0c-3.6,2.9-8.9,3.6-13.1,1.8
				c-0.7-0.3-1.6-0.2-2.1,0.5C195.3,201.1,195.5,202.2,196.3,202.6L196.3,202.6z"/>
		</g>
	</g>
	<g>
		<g>
			<path d="M199.3,222.6c5.6,2.4,12,1.6,16.7-2.2c0.6-0.5,0.5-1.6,0-2.1c-0.6-0.6-1.5-0.5-2.1,0c-3.6,2.9-8.9,3.6-13.1,1.8
				c-0.7-0.3-1.6-0.2-2.1,0.5C198.3,221.1,198.5,222.2,199.3,222.6L199.3,222.6z"/>
		</g>
	</g>
	<g>
		<g>
			<path d="M196.3,248.6c5.6,2.4,12,1.6,16.7-2.2c0.6-0.5,0.5-1.6,0-2.1c-0.6-0.6-1.5-0.5-2.1,0c-3.6,2.9-8.9,3.6-13.1,1.8
				c-0.7-0.3-1.6-0.2-2.1,0.5C195.3,247.1,195.5,248.2,196.3,248.6L196.3,248.6z"/>
		</g>
	</g>
	<g>
		<g>
			<path d="M196.3,268.6c5.6,2.4,12,1.6,16.7-2.2c0.6-0.5,0.5-1.6,0-2.1c-0.6-0.6-1.5-0.5-2.1,0c-3.6,2.9-8.9,3.6-13.1,1.8
				c-0.7-0.3-1.6-0.2-2.1,0.5C195.3,267.1,195.5,268.2,196.3,268.6L196.3,268.6z"/>
		</g>
	</g>
	<g>
		<g>
			<path d="M195.3,293.6c5.6,2.4,12,1.6,16.7-2.2c0.6-0.5,0.5-1.6,0-2.1c-0.6-0.6-1.5-0.5-2.1,0c-3.6,2.9-8.9,3.6-13.1,1.8
				c-0.7-0.3-1.6-0.2-2.1,0.5C194.3,292.1,194.5,293.2,195.3,293.6L195.3,293.6z"/>
		</g>
	</g>
	<rect x="231" y="109.3" class="st4" width="103" height="43"/>
</g>
<ellipse class="st5" cx="204.5" cy="109.3" rx="4" ry="4.5"/>
<ellipse class="st5" cx="208.5" cy="141.3" rx="4" ry="4.5"/>
<ellipse class="st5" cx="211.5" cy="173.3" rx="4" ry="4.5"/>
<ellipse class="st5" cx="212.5" cy="199.3" rx="4" ry="4.5"/>
<ellipse class="st5" cx="211.5" cy="245.3" rx="4" ry="4.5"/>
<ellipse class="st5" cx="211.5" cy="265.3" rx="4" ry="4.5"/>
<ellipse class="st5" cx="214.5" cy="219.3" rx="4" ry="4.5"/>
<ellipse class="st5" cx="212.5" cy="289.3" rx="4" ry="4.5"/>
</svg>
