<?xml version="1.0" encoding="utf-8"?>
<!-- Generator: Adobe Illustrator 24.2.0, SVG Export Plug-In . SVG Version: 6.00 Build 0)  -->
<svg version="1.1" id="Layer_1" xmlns="http://www.w3.org/2000/svg" xmlns:xlink="http://www.w3.org/1999/xlink" x="0px" y="0px"
	 viewBox="0 0 540 350" style="enable-background:new 0 0 540 350;" xml:space="preserve">
<style type="text/css">
	.st0{fill:#747F81;stroke:#747F81;stroke-width:3;}
</style>
<g>
	<path class="st0" d="M288.7,105.7l15.7,0.7l0.6,26.6l0.7,2.4l-17.5-0.2v-4.1l0.4-24.7L288.7,105.7z"/>
	<path class="st0" d="M186.2,121.6l7.2-2.7l9.9-0.3l1.3,6.3l-2.2,7.3l-4.1,5.5l-1.7-3.6l-10.9,2L186.2,121.6z"/>
	<path class="st0" d="M187.9,79.5l2.6,0.2l0.7,0.1l2.4,0.2l1.7,0.1l0.3,0.1l1.2,0.1l0.5,0.1l0.9,0.1l2.3,0.2l1.2,0.1l3.3,0.4
		l1.4,0.1l1.8,0.1l2.5,0.2l-4.2,8.4l0.4,3.2l-0.8,1.9l-2.7-0.1l-3.1-4.4l-3.5,0.9l-1.2-1.4l-4.9,5.2l-5.6-15.6L187.9,79.5z"/>
	<path class="st0" d="M246.2,181.5l1.4-1.1l1.6,4l3.6,0.7l2.9-3.3l2.2,3.8l0.4,2.3l3.9,2l4.1-2.3l3.1,5.5l-1.4,2.7l2,1.9l1,5.5
		l-4.5,7l-4.4-0.2l-1.4-0.1l-0.9-0.1l-1.8-0.1l-1.5-0.1l-2.3-0.1l-1.5-0.1h-0.1l-3.8-0.3l-2.8-0.1l-2.2-0.1L246.2,181.5z"/>
	<path class="st0" d="M167,77.7l4.3,0.3l4.5,0.7l1.2,0.1l0.6,0.1l0.7-0.1l1.8,0.3h0.1h0.1l5,0.3L191,95l-6.2-0.6l-0.6,6l-2.6-0.8
		l-3.7,3.8l-5-2.6l-4-5.8l-5.3-3.4l-0.1-0.1l0.8-2l0.2-0.4l1.2-2.6l0.1-0.1l0.1-0.1l0,0l0.1-0.4l-0.2-0.8l0.1-0.5l-0.2-1.7l-0.1-0.4
		l-0.1-0.1l-0.2-0.2l-0.1-0.2l-0.1-0.4l1.3-2.6l0.4-0.1L167,79v-0.3l-0.1-0.3l-0.1-0.5L167,77.7z"/>
	<path class="st0" d="M153,99l1.4,1.7l-0.9,3.6l4.4,3.6l0.9,4.2l4.3,3.4l-4.3,7.5l-5.2-3l-2.6,2.8l-2.2,3.4l-3.7-4l0.6-3.2l-2.2-7.3
		l0,0l1.5-1.4l0.6,0.1l0.3,0.3l0.3,0.1l0.3-0.3l0.2-0.3v-0.1l2.1-3.7l1.9-3.3l1.6-2.6L153,99z"/>
	<path class="st0" d="M443.7,144.6l11.9-0.3l3.1,6l7.1,4.4l-1.2,2.7l-6.4,0.5l3.6,9l-4.3,0.9l1,2.9l-1.3,7.4l-12.3,1.7l-3-2.7
		l-17.5-11.6l0.6-7.3l2.8-2.6l2.4,0.1l-5.3-5.9l0.1-3.6l-1.5-1.1l1.2-2.4l11,5.2L443.7,144.6z"/>
	<path class="st0" d="M421.6,105.9l28.8-0.3l-1.5,7l4.2,9l-1.2,5.5l-3.8,5.9l-4.1-1.4l-2.8,5.4l-2.8-6.3l-6.1,3.2l-0.7-6.2l-2.8,1.4
		l-5.4-0.4l-1.3-5.5l-7-4.7l5.5-2.3l-3.7-4.5l-0.4-2.9l3.7-0.4L421.6,105.9z"/>
	<path class="st0" d="M326.1,208.7l23.6-1.6l14.4,21.9l-1,1.2l1.2,2.4l4.5,2.8l-4.5,4.8l-4.7,2.4l-6.3-0.7l-13.1-6.7l-9.2,0.6
		l-2.7-1.5l1.6-1.8l-1-4.4l2.9-8.5L326.1,208.7z"/>
	<path class="st0" d="M369.9,243.2l1.4-1.1l6.3,2.8l4.8,7.2l1.4,22l-1.8,6.2l-2.9-3.2l-9.4-1.8l-12.1,1l-9.2,3.7l-2.2-2.2l-2.3-2.4
		l-0.9-0.9l-1.1-1.2l1.5-2.1l-1-2.7l4.8-3.8l0.7-6.1l2.3-1.6l4.8,2.1l2.7-4.8l7-0.9L369.9,243.2z"/>
	<path class="st0" d="M124.5,131.8l3.4,0.6l0.7,4.7l3.3,3.4l-1.1,1.4l1.6,5.2l-1.6,1.6l6.9,5l-3.7,0.4l-0.6,3.7l-1.3-0.1l-3.8-2.6
		l-2.1,1l0.2,1.8l-3-1.2l-3.1,2l-3.7-0.1l0.3,1.6l-1.1-1.6l-4.2,0.4l-2.8-1.9l-4.2,2.4l-3.1-3.7l2.1-7l-2.4-4.4l-2.3,0.5l-1.7-4.5
		l2.1-1.6l2.4,1.3l6.1-3.2l1.8,0.7l9-5.2L124.5,131.8z"/>
	<path class="st0" d="M158.9,122.9l14.1,14l10.9,1.1l-9.9,14.1l-0.2,0.3l-8.8-1.5l-3.6-2.5l-4,2.6l-2.4-10.7l-6.6-6.7l3.9-2.8
		l0.8-2.6l-2-5.7l2.6-2.8L158.9,122.9z"/>
	<path class="st0" d="M217.1,158.2l2.7,0.1l25.4,0.9L233,182l-2.6-1.7l-6.7-4.5l-1.6-5.8l-4.2-4.1L217.1,158.2z"/>
	<path class="st0" d="M158.9,112.1l15.1,0.2l7.7,3.6l4.6,5.7l-0.5,14.5l-1.7,2l-10.9-1.1l-14.2-14l4.2-7.5L158.9,112.1z"/>
	<path class="st0" d="M463.5,83.1l8.7-0.2l9.2,8.7l2.7,4.9h4.4l3.9,3.3l1.4,1.7l-0.8,1.9l4.6,6.9l-9.3-1.3l-5.3-6.2l-4.8-1.8l2-1.7
		l-2-0.3l-1.1-3.2l-1.3,0.7L472,92l-2.5-0.2l-7.5-5.7l-2.9-2.8l2.9-0.1L463.5,83.1z"/>
	<path class="st0" d="M453.1,196.6l3.8-2.8l1,1.8l7.3-1.1l2.1-5l4.2,7.2l4.1-0.2l-2.4-4.2l4.5,2l0.8,4.7l-3.9,5l-3,1.3l-0.8,3.1
		l1.5,0.6l17.9-20l2.1,1.2l-19.6,20.4l-8.2,14.4l-0.9-4.1l-7.5-3.2l-13.4,1.1l-12,3.4l0.2-5.3l-3.7-5.2l4.4-1.4l23-5.3l2.2-4.8
		L453.1,196.6z"/>
	<path class="st0" d="M311.1,84.9l-0.7,21.7l-5.9-0.2l-15.7-0.7l1.2-21.1h2.3l0,0h1.3l0,0h1.1l4.8,0.1l4.5,0.1h0.8h1.8h0.5h0.1h0.6
		L311.1,84.9z"/>
	<path class="st0" d="M198.4,137.8l2.9,5.2l3.7,0.6l4.2,6.2L207,155l-32.9-2.7l9.9-14.1l1.7-2l10.9-2L198.4,137.8z"/>
	<path class="st0" d="M318.4,134.1l6.3-0.3l-4.9,18.6l4.7,1.9l-3.2,4.4l-8.7-7.7l-4.5,4.9l-2.4-0.8l-1.4,2.7l-1.8-1.5l-3,2.6
		l-11.8,0.1l0.6-23.8l17.5,0.2L305,133L318.4,134.1z"/>
	<path class="st0" d="M31,164.6l1.3,4.2l2.1,1.5l7.1-2.3l8.1,1.1l-2.2,6.7l-6.8,0.9L31.7,187l-0.9-0.1h-0.5l-5.7-0.4l-0.9-0.1
		l-3.7-0.3l-2-0.2l-4.4-0.4l0.3-2.4l0.6-4.2l0.9-6.4l0.2-1.1l0.2-1.8l4.8-4l0.3,0.5v0.1l0.1,0.2l0.1,0.6l2.3,0.4l0.1-0.2l0.2-0.1
		h0.7l0.2,0.1h2.2l0.3,0.1l0.3-0.2l0.6-0.5v-0.1l0.1-0.2h0.1l0.3-0.1l2.3-1.7L31,164.6z"/>
	<path class="st0" d="M450.8,101.8l7.7-4.2l-1.5,8.2l1.3,9.3l9.3,2.2l-5.7,5.2h-3.8l-2.1-2.2l-3,1.3l-4.2-9l1.5-7L450.8,101.8z"/>
	<path class="st0" d="M47.3,175.7l4.8,0.2l7.3,12.3l2.1,0.3l-3.8-0.2l-4.1-0.2v0.4l-5.9-0.4l-1.5-0.1l-1.7-0.1l-1.1-0.1l-1.9-0.1
		l-6-0.4l-3.9-0.3l8.9-10.4L47.3,175.7z"/>
	<path class="st0" d="M173.9,152.6l1.7,1.4l2.8,9.3l5.7,6.7l0.1,3.7l2.1,1.5l-0.6,7l-2.2-0.2l-4.7-0.4h-0.2l-0.5-0.1l-0.4-0.1
		l-1.4-0.1h-0.1l-2.8-0.2h-0.2l-0.5-0.1l-1.1-0.1l-0.4-0.1l-5.8-0.6l-1.9-0.2h-0.3l-1-0.1l-1.7-0.1l3.9-12.8l0.8-16.2L173.9,152.6z"
		/>
	<path class="st0" d="M364.3,240.1l3.3,3.4l2.3-0.3l-5.2,10.3l-7,0.9l-2.7,4.8l-4.8-2.1l-2.3,1.6l-0.7,6.1l-4.8,3.8l1,2.7l-1.5,2.1
		l-0.2-0.2l-3.4-3.4l-0.1-0.2l-4.8-4.9l-3.2-3.2l-1.8-1.8l-3-3.1l-3.8-3.9l-1.1-1.1l-3.8-3.9l3.6-3.9l-0.1-2.1l2.4-1.1l0.4-3.3
		l5.1-2.9l2.7,1.5l9.2-0.6l13.1,6.7l6.3,0.7L364.3,240.1z"/>
	<path class="st0" d="M412.9,171.6l2.2,0.8l3.3-3.8l2.3,2.1l3.7-5l17.5,11.6l-5.1,7.3l3.2,3.4l-1.7,4.8l8.8,6.2l6.2-2.3l3.5,3.3
		l-2.2,4.8l-23,5.3l2.3-2.4l-3.6,0.3l-0.7-17.5l-3.7,1.4l-0.7-1.8l-16.9-10.4l2.7-2.2l-1.4-2.9l1-2.2L412.9,171.6z"/>
	<path class="st0" d="M314.4,182.8l12.4-2.7l5-2.6L342,179l-1.7,3.5l0.6,5.9l-1.9,2.3l1.7,6.7l9,9.9l-23.6,1.6l-2.4-5l-5.4-3.6
		l-3.4-6.8l-0.4-9.2V182.8z"/>
	<path class="st0" d="M496.1,82.2l1.6-0.1L504,105l-1.2,0.3l-3.2-5.5l-0.7-7.9l-2.9-4.7l-7.2-1.1l0.8,3.8l2.9,2.1l2.2-0.7l0.2,4.6
		l3.8,5.7l4.4,14.9l-5.7-6.2l-4.6-6.9l0.8-1.9l-1.4-1.7l-3.9-3.3H484l-2.7-4.9l-9.1-8.7l6.9-0.2l4-0.1l5-0.2l7.5-0.2L496.1,82.2z"/>
	<path class="st0" d="M490.9,146l0.9-16.9l1.9,0.2l2-2.2l-0.6-2.6l5-0.9l4,2.8l3.6,8l0.4,14.1l-2.5,3.4l-5.5-0.1l-2.1-6.2L490.9,146
		z M511.6,132.4l-3.6-6.5l5.4,3.9l1,4.8l-3.1-0.4L511.6,132.4z M508.2,179.3l8.9-5.4l3.6-0.4l2.4-20.3l-3.9-15.8l3.4,6.7l1.4,9
		l-2.6,23.1l-12.8,4L508.2,179.3z M504,105l15,32l-7-13.1l-4.4-2.6l-4.7-16L504,105z"/>
	<path class="st0" d="M239.4,124.9l10.4-1.4v-2.2l9.8,1.4l-0.2,6.5l-1.1,30.1h-6.7l-1.4-5.5l-7-7.4l-0.1-2.8l-7.3-1.9l-1.7-6.6
		l5.7-0.8l-1.6-2.6l2.9-0.9L239.4,124.9z"/>
	<path class="st0" d="M222.5,118.8l11.2,0.7l1.9-1.1l3.8,6.5l1.7,5.8l-2.9,0.9l1.6,2.6l-5.7,0.8l1.7,6.6l-1.1-2.4l-8.8-5.4l-4.3-0.6
		L222.5,118.8z"/>
	<path class="st0" d="M368.4,182.9l5,1l3.3-1.4l7.5,3.3l3.3-2.3l3.8,2.3l2.5,9.9l3.1,2.5l1.7,3.5l-1.3,14.7l-25.2,0.2l-1.2,0.9
		l-3.9-2l2.8-12L368.4,182.9z"/>
	<path class="st0" d="M321.9,106.9l8.5,0.3l-0.1,10.7l3.3,1.3l-0.2,2.8l3.1,1.4l-1.7,4.9l-1.6,2l-2.7-0.7l-1.6,4.4l-4.2-0.1
		l-6.3,0.3L321.9,106.9z"/>
	<path class="st0" d="M393.7,113l9.1,4l0.9,4.2l7.2,2.3l3.7,7.2l-0.3,6.2l-2.3-0.9l-4.7,2.4l-10.7,9.1l-3.5-3.8l-2-7l-4.5-2.8
		L393.7,113z"/>
	<path class="st0" d="M236.3,103.9l23.7,0.9l-0.4,17.9l-9.8-1.4v2.2l-10.4,1.4l-3.8-6.5l-1.9,1.1l-0.6-4.4l3.9-2.2l-0.7-7.4
		L236.3,103.9z"/>
	<path class="st0" d="M358.7,105l7.7,0.8l4.1,3.3l5.5,0.4l-13.8,27.9l-5.8-8.2l-11.2-6.5l2.7-11.1l4.3,0.8l2.4-5.1l2.3,0.1
		L358.7,105z"/>
	<path class="st0" d="M178.4,163.3l28.7,2.3l-1.6,2.3l3.5,0.7l-3.6,1.3l-1.8,5.2l0.5,8.2l-2.2,0.5v-0.1l-0.1-0.1l-2.1-0.2l-1.7-0.2
		l-1-0.1l-2.6-0.2l-1.2-0.1l-2.7-0.2h-0.1l-1.4-0.1l-1.1-0.1l-0.4-0.1l-1.3-0.1l-0.7-0.1l0.6-7l-2.1-1.5l-0.1-3.7L178.4,163.3z"/>
	<path class="st0" d="M451,83.4l1.7-0.1l4.5-0.1h1.9l2.9,2.8l2.5,9.5l-6,2.1l-7.8,4.3l-4.7-4.5l-9.8-3.5l-0.4-4.3l2.4-2.9l-0.6-2.4
		v-0.6h6.2l1.5-0.1h1.8l0.7-0.1L451,83.4z"/>
	<path class="st0" d="M35.3,152.3l0.4,0.3l20.9,3.3l-2,6.2l-3.9,1.6l0.2,3.3l-1.4,2.2l-8.1-1.1l-7.1,2.3l-2.1-1.5l-1.3-4.2l0.1-0.1
		l-0.4-4.1l1.3-1.1l0.4-0.4v-0.6l-0.1-0.3l-0.1-0.1v-0.1l-0.5-1.8L35.3,152.3z"/>
	<path class="st0" d="M349.1,85.1h0.8l-2.3,2l-0.7,4.4l1.1,20.2l-2.7,11.1l-7.9-3.8l-3.8,0.2l-3.3-1.3l0.1-10.7l0.1-22.1h1.8h0.4
		h1.4h3.7h0.4h0.5l2.8,0.1h4.1h1.3L349.1,85.1z"/>
	<path class="st0" d="M387.5,155.1l7-5.8l5.4,6l6.3,3.5l1.8,6.6l-11.2,5.8l-1.8-2.3l-6,0.8L387.5,155.1z"/>
	<path class="st0" d="M260,104.8l28.7,1.7l-0.4,24.7l-28.9-2l0.2-6.5L260,104.8z"/>
	<path class="st0" d="M376,109.6l5.2-13l0.6-9l14.4,1.8l1.2,2.6l4.4,2.3L402,97l-2.1,2.4l0.8,1.9l7.4-0.8l3.8,5.6l-0.3,2.7l5.4,2.8
		l3.7,4.5l-5.5,2.3l-4.2,5.1l-7.2-2.3l-0.9-4.2l-9.1-4l-1.4,1.4l-1.6-1.7l-7.9,1l-2.2-3.2l-2.8-0.4l-0.3,1.4L376,109.6z"/>
	<path class="st0" d="M324.5,154.4l11.9,4.7l4.8,4.4l5.7,8.8l-0.6,1.6l-4.3,5l-10.3-1.5l-5,2.6l-12.4,2.7l-7.4-5.5l2.3-2.8
		l12.1-15.5L324.5,154.4z"/>
	<path class="st0" d="M92.8,132l0.6,3.8l1.9-0.2l1.8,4.9l1.7,4.5l2.3-0.5l2.4,4.4l-2.1,7l3.1,3.7l-5.2,7.4l-5.1,1.7l-8.7-12
		l-3.3-1.4l0.1-1.9l-2.7-1.9l1.8-2.7l-2.4-6.7l1.2-2.1L76,138l0,0l0.1-1.4l8.9-3.8l0.2-0.1l1.1-0.9h0.3l1.9,0.3l0.2-0.1l0.4,0.2
		l0.4,0.2l0.4,0.2l2.8-0.6L92.8,132z"/>
	<path class="st0" d="M132.1,157.8l0.2,5.4l-5,7.5l-0.6,6.9h-0.1l-1.3-0.3v-0.1v-0.1l-0.3-0.9l-0.3-0.3l0,0h-0.2l-0.1,0.1l-0.1,0.1
		l-1.7,1.4l-0.2,0.7l-0.4,0.9l-1.1-0.2v-0.2l-6.8,1.8l-0.1,0.1l-2.5-11.8l-7-9.1l4.2-2.4l2.8,1.9l4.2-0.4l1.1,1.6l-0.3-1.6l3.7,0.1
		l3.1-2l3,1.2l-0.2-1.8l2.1-1L132.1,157.8z"/>
	<path class="st0" d="M428.6,84.3h2.2l7-0.1l0.6,2.4l-2.4,2.9l0.4,4.3l9.8,3.5l4.7,4.5l-0.4,3.8l-28.8,0.3l3.7-15.1l4-2.3l-5.8-4.3
		l2.3,0.1l1.4-0.1h0.3H428.6z"/>
	<path class="st0" d="M293.5,193.4l12.2-12.3l6,3.3l2.6-0.3l0.4,9.2l3.4,6.8l-9,8.7l-9.1-0.4l-0.8-8.7L293.5,193.4z"/>
	<path class="st0" d="M455.6,144.4l14,0.2l7.3,0.3l-1.4,5.9l4.8,0.7l2.3-7.3l8.4,1.8l7.3-0.2l2.1,6.2l-4.7,4.2l-3.5,8.5l-2.2,0.1
		l-0.4,2.8l-4.5,3.3l-5-1.6l-10,0.3l-2.4-2.4l-2.1,0.9l-3.6-1.2l-3.6-9l6.4-0.5l1.2-2.7l-7.1-4.4L455.6,144.4z M508.5,180.3
		l-15.1,9.2l1.7-4l13.1-6.2L508.5,180.3z"/>
	<path class="st0" d="M211.7,118.1l10.8,0.7l-0.9,14.4l-3.7,12.8l1.9,12.3l-2.7-0.1l-7.2-0.8l-2.2,1.9L207,155l2.1-5.3l-4.2-6.2
		l-3.7-0.6l-2.9-5.2l4.1-5.5l2.2-7.3l-1.3-6.4L211.7,118.1z"/>
	<path class="st0" d="M70.5,164.4l-0.4-10l1.9,0.3l4.8-4.1l2.8,0.9l2.7,1.9l-0.1,1.9l3.3,1.4l8.8,11.9l-0.5,4.1l-4.1,5.1l1.1,2.3
		l-4.8,5.5l2.7,2.1l-1.6,0.4l-0.6,0.2l-3.6,1l-3.5-4.6l1.4-2.2l-4.2-5.2l0.1-5.8l-3.8,0.1L70.5,164.4z"/>
	<path class="st0" d="M362.2,137.5l0.3,3.2l3.4,3.1l1.7,1.2l2.3,8l3.6,1.3l-4.9,12.2l0.2,4.9l-6.5,1.9l-2.1,2.8l-6,2.2l-4.7-0.5
		l-2.9-3.8l0.6-1.6l-5.7-8.8l-4.8-4.4l13.4-13.5L362.2,137.5z"/>
	<path class="st0" d="M393.8,195.9l7.4-4.7l5-6.8l-0.9-5.7l3.1,0.9l16.9,10.4l0.7,1.8l3.7-1.4l0.7,17.5l3.6-0.3l-2.3,2.4l-4.4,1.4
		l-1.8-1.7l0.8-1.9l-5.3-6.4l-3.6-0.8l-2.1,1.9l-8-4.1l-10.2-0.1L393.8,195.9z"/>
	<path class="st0" d="M321.4,158.8l-12.1,15.5l-4.8-2.8l-3.8-5.7l-1.8-3.4l1.3-2.1l-0.8-1.4l3-2.6l1.8,1.5l1.4-2.7l2.4,0.8l4.5-4.9
		L321.4,158.8z"/>
	<path class="st0" d="M405.7,181.2l0.6,3.3l-5,6.8l-7.4,4.7l-2.5-9.9l-3.8-2.3l1.3-13.9l6-0.8l1.8,2.3l11.2-5.8l3,5.5l2.1,0.7
		l-2.3,0.8l-1,2.2l1.4,2.9l-2.7,2.2l-3.1-0.9L405.7,181.2"/>
	<path class="st0" d="M174.1,152.2l32.9,2.7l0.7,4.4l-0.5,6.3l-28.7-2.3l-2.8-9.3l-1.7-1.4L174.1,152.2z"/>
	<path class="st0" d="M151.1,122.8l2,5.7l-0.8,2.6l-3.9,2.8l6.6,6.7l2.4,10.7l-1.1,2.3l-7.5,0.9l-1.7-2.1l-9.5,1.3l-6.9-5l1.6-1.6
		l-1.6-5.2l1.1-1.4l4.8-2.1l3.5-6.3l5.5-2.3l0.8-1.8l1.8,0.7l0.6-2.6L151.1,122.8z"/>
	<path class="st0" d="M50.9,166.9l19.5-2.5l2.6,7.3l3.8-0.1l-0.1,5.8l4.2,5.2l-1.4,2.2l3.5,4.6l-4.7-0.2H78l-7.2-0.2l-8.9-0.4h-0.3
		l-2.1-0.3L52.2,176l-4.8-0.2l2.2-6.7L50.9,166.9z"/>
	<path class="st0" d="M111.5,113.2l2.3,1.8l-0.1,1.6l-0.3,0.6l-0.2,0.3v2.8l0.2,0.1l3.7,0.1l0.2-0.1l0,0h0.1l1.1-0.3l0.2-0.1
		l0.1-0.1l0.6-0.1l1.4,2.1l-0.9,2.8l2.6,1.1l2.1,5.9l-6,0.8l-9,5.2l-1.8-0.7l-6.1,3.2l-2.4-1.3l-2.1,1.6l-1.8-4.9l-1.9,0.2l-0.6-3.8
		l0.1-0.1l0.2-0.8l0.2-0.3v-0.2l0.2-0.4l0.4-0.6l0.1-0.1l0.4-0.1l0.3-0.7l0.2-0.2l0.2-0.1l0.2-0.2l0.1-0.2l0.2-1.6l0.4-0.2l0.4-0.2
		l0.1-0.2l-0.3-2.4l-0.3-0.6v-0.2v-0.2l0.8-1.8l2.6-0.2l1.7,2.1l1.3-1.6l0.7-0.6l0,0l0.2-1.9l0.1-0.7l0.3-0.3l3.7-2.4l0.4-0.1
		l0.2-0.2l3.1-1.7L111.5,113.2z"/>
	<path class="st0" d="M415.1,118.5l7,4.7l1.3,5.5l5.4,0.4l2.8-1.4l0.7,6.2l6.1-3.2l2.8,6.3l2.8-5.4l4.1,1.4l-4.5,11.6l-8,3.6
		l-11-5.2l-10.4-6l0.3-6.2l-3.7-7.2L415.1,118.5z"/>
	<path class="st0" d="M217.1,158.2l1,7.7l4.2,4.1l1.6,5.8l6.7,4.5l-16.8,14.6l-0.6-0.9l-1.9-2.9l-1.2-1.7l-1.6-2.3l-1,0.8l-0.3,0.3
		l-4.8,3.3l-0.8-1.2l-0.1-0.1l-0.1-0.1v-0.8v-0.2l0.1-0.8v-0.1l0.1-0.1l0.2-0.6l0.1-0.2l0.2-0.1l0.4-0.1l-0.7-2.3l0.2-0.8l0.3-0.3
		l0,0l2.2-0.5l-0.5-8.2l1.8-5.2l3.6-1.3l-3.5-0.7l1.6-2.3l0.5-6.3l2.2-1.9L217.1,158.2z"/>
	<path class="st0" d="M139.8,108.4l0.2,0.4l0.2,0.6l0.1,1.2l0.4,1l0.2,0.2h0.7l0.3-0.2l0.1-0.1l1.3,0.2l0.3,0.1l2.2,7.3l-0.6,3.2
		l3.7,4l-0.6,2.6l-1.8-0.7l-0.8,1.8l-5.5,2.3l-0.7-7.9l-2.8-1.6l0.1-4.5l-3.1,0.3l-0.1,1.4l-2.6-4.3l-2.2,1l-0.7-4l-3.7,0.7l0.3-0.6
		l0.1-0.2l1.1-0.9l0.6-0.2l0.1-0.3l0.2-0.2l0.2-0.1l3.7-1.4l0.3-0.2l0.3-0.2h0.5l0,0h0.1l0.4,0.5l0,0h0.1l0.3-0.1l0.2,0.2l0.1,0.1
		l0.2-0.1l0.1-0.2h0.9l0.2-0.1l0.6-0.6l0.4-0.3l0.4-0.7l3.7,0.8L139.8,108.4L139.8,108.4z"/>
	<path class="st0" d="M258.3,159.3l17.1-0.1l3.4,17.2l5.7,8.2l-13.7-1.6l-9.8,3.2l-3.1-0.5l1.3-2.6l-2.6-5.8l2.7-8.2l-2.4-2.3
		l-0.9-4.3l-4.2-3.2L258.3,159.3z"/>
	<path class="st0" d="M299.5,159l0.8,1.4l-1.3,2.1l1.8,3.4l3.8,5.7l4.8,2.8l-2.3,2.8l7.4,5.5l-0.1,1.3l-2.6,0.3l-6-3.3l-12.2,12.3
		l-6.5-1.7l-0.2-4l-2.3-3.1l-5.8-8.3l-3.4-17.2l12.3-0.1H299.5z"/>
	<path class="st0" d="M393.7,113l-7,20.8l-0.9,2.2l-3.1-0.4l-16.8,8.3l-3.4-3.1l-0.3-3.2l13.8-28l1.7,2l0.3-1.4l2.8,0.4l2.2,3.2
		l7.9-1l1.6,1.7L393.7,113z"/>
	<path class="st0" d="M377.6,245l2.1-0.4l1.8-3.3l1.6,1.8l6.5-2.3l1.6,3.4l4.9,3.5l-6.3,9.5l-5.8,17l-1.4-22L377.6,245z"/>
	<path class="st0" d="M390.2,84.7l9.1-0.1h0.6l12.8-0.1l3.4-0.1h1.9l3.3-0.1l2.3-0.2l5.7,4.2l-4,2.3l-3.7,15.1l-1.3,2.3l-3.7,0.4
		l0.4,2.9l-5.4-2.8l0.3-2.7l-3.9-5.6l-7.4,0.8l-0.8-1.9l2.1-2.4l-0.2-2.8l-4.4-2.3l-1.2-2.6l-14.4-1.8l-0.2-2.7h1h0.4l5.5-0.1h0.6
		h0.1L390.2,84.7z"/>
	<path class="st0" d="M427.1,211.4l3.7,5.2l-0.2,5.3l-23.2,14.8l-3.5-2.6l-6.6-17.5l1.3-14.7l-1.7-3.5l10.2,0.1l8,4.1l2.1-1.9
		l3.6,0.8l5.3,6.4l-0.8,1.9L427.1,211.4z"/>
	<path class="st0" d="M310.3,106.6l11.6,0.3l-3.4,27.2l-13.4-1.1l-0.6-26.6L310.3,106.6z"/>
	<path class="st0" d="M458.4,170.8l7.2,1.6l1,3.8l-4.2,10.1l-5.2,5.3l-0.2,2.3l-3.8,2.8l-6.2,2.3l-8.8-6.2l1.7-4.8l-3.2-3.4l5.1-7.3
		l3,2.7l12.3-1.7L458.4,170.8z"/>
	<path class="st0" d="M462.1,86.1l7.5,5.7l2.5,0.2l3.8,4.4l1.3-0.7l1.1,3.2l2,0.3l-2,1.7l4.8,1.8l5.3,6.2l-1.3,3.1l-6.8,2l-6-7.5
		l-5-2.4l-4.8-8.5L462.1,86.1z"/>
	<path class="st0" d="M397.3,216.6l6.6,17.5l3.5,2.6l-11.3,10.9l-4.9-3.5l-1.6-3.4l-6.5,2.3l-1.6-1.8l-1.8,3.3l-2.1,0.4l-6.3-2.8
		l-1.4,1.1l-2.3,0.3l-3.3-3.4l4.5-4.8l-4.5-2.8l-1.2-2.4l1-1.2l7.9-12.3L397.3,216.6z"/>
	<path class="st0" d="M464.6,95.6l4.8,8.5l5,2.4l6,7.5l-1.4,1.6l-4.1-0.6l-7.1,2.3l-9.3-2.2l-1.3-9.3l1.5-8.2L464.6,95.6z"/>
	<path class="st0" d="M320.5,84.9L320.5,84.9h1.7l0,0h1.5h0.1h0.8l6,0.1l-0.1,22.1l-8.5-0.3l-11.6-0.3l0.7-21.7h0.8L320.5,84.9z"/>
	<path class="st0" d="M424.6,143l-1.2,2.4l1.5,1.1l-0.1,3.6l5.3,5.9l-2.4-0.1l-2.8,2.6l-0.6,7.3l-3.7,5l-2.3-2.1l-3.3,3.8l-2.2-0.8
		l-2.1-0.7l-3-5.5l-1.8-6.6l-6.3-3.5l-5.4-6l2.2-1.8l10.7-9.1l4.7-2.4l2.3,0.9L424.6,143z"/>
	<path class="st0" d="M132.2,177.5l-1.8-0.1l-0.4,0.2l-1.1,0.2h-0.1l-0.1,0.2l-0.3,0.2l-0.2-0.1l-1.3-0.6l-0.2,0.1l0.6-6.9l5-7.5
		l5.8-0.9l2.1,1.3l9.1,10.9l-0.5,4.4l-1.8-0.2l-5-0.4l-2.8-0.3l-1.7-0.1l-0.6-0.1l-1.1-0.1l-1.2-0.1l-0.8-0.1l0,0l-0.7-0.1
		L132.2,177.5z"/>
	<path class="st0" d="M288.3,131.2v4.1l-0.6,23.8l-12.3,0.1l-17.1,0.1l1.1-30.1L288.3,131.2z"/>
	<path class="st0" d="M284.5,184.5l2.3,3.1l0.2,4l6.5,1.7l-6.5,3.6l-0.7,3.5l1.4,2.6l-3.7,4.2l0.8,2.7l-4.3,0.7h-0.1h-0.1l-3.1-0.1
		h-0.1l-1.6-0.1l-5.7-0.1l-3.3-0.1l4.5-7l-1-5.5l-2-1.9l1.4-2.7l-3.1-5.5l-4.1,2.3l-3.9-2l-0.4-2.3l3.1,0.5l9.8-3.2L284.5,184.5z"/>
	<path class="st0" d="M326.1,208.7l5.7,10.8l-2.9,8.5l1,4.4l-1.6,1.8l-5.1,2.9l-0.4,3.3l-2.4,1.1l0.1,2.1l-3.6,3.9l-4.3-4.4
		l-3.3-3.4l-0.5-0.6l-1.8-1.9l-0.7-0.7l-1.4-1.5l-2-2.2l-0.1-0.1l-0.9-1l-2.1-2.2l-5.4-5.5l-0.7-0.7l0,0l7.4-10.3l-1-4.8l9.1,0.4
		l9-8.7l5.4,3.6L326.1,208.7z"/>
	<path class="st0" d="M263.9,84.1L263.9,84.1l3.6,0.1h1l6.2,0.2l1.2,0.1l2.5,0.1l2.7,0.1l0,0l2.5,0.1h0.9l1.3,0.1l3.7,0.1h0.4
		l-1.2,21.1v0.6l-28.7-1.7l0.5-20.7l2,0.1H263.9z"/>
	<path class="st0" d="M235.8,141.5l7.3,1.9l0.1,2.8l7,7.4l1.4,5.5l-6.5-0.1l-25.4-0.9l-1.9-12.3l3.7-12.8l4.3,0.6l8.8,5.4
		L235.8,141.5z"/>
	<path class="st0" d="M165.1,151.1l-0.8,16.2l-3.9,12.8l-1.9-0.2l-2.7-0.2l0,0l-1.4-0.1l-2.9-0.2l-2.5-0.2l0.5-4.4l-9.1-10.9
		l-2.1-1.3l-5.8,0.9l-0.2-5.4l1.3,0.1l0.6-3.7l3.7-0.4l9.5-1.3l1.7,2.1l7.5-0.9l1.1-2.3l4-2.6L165.1,151.1z"/>
	<path class="st0" d="M360.1,176l3.4,4.3l4.9,2.7l1.4,20.8l-2.8,12l3.9,2l1.2-0.9l-7.9,12.3l-14.4-21.9l-9.1-9.9l-1.7-6.7l1.9-2.3
		l-0.6-5.9l1.7-3.5l4.3-5l2.9,3.8l4.7,0.5L360.1,176z"/>
	<path class="st0" d="M300.1,208.3l1,4.8l-7.4,10.3l-0.4-0.3l-1.3-1.3l-1.7-1.7l-2.5-2.6l-2.4-2.4l-1.7-1.7l-0.2-0.2l-2.4-2.5h-0.7
		l4.3-0.7l-0.8-2.7l3.7-4.2l-1.4-2.6l0.7-3.5l6.5-3.6l5.8,6.2L300.1,208.3z"/>
	<path class="st0" d="M251.6,159.2l4.2,3.2l0.9,4.3l2.4,2.3l-2.7,8.2l2.6,5.8l-1.3,2.6l-2.2-3.8l-2.9,3.3l-3.6-0.7l-1.6-4l-1.4,1.1
		l-9.4,2.3L233,182l12.1-22.8H251.6z"/>
	<path class="st0" d="M237.1,82.9l0.5,0.1l3.8,0.3l1.2,0.1l2.8,0.2l3.8,0.1h0.2l2.2,0.1l0.9,0.1l2.8,0.1l1.3,0.1l2.7,0.1l1.5,0.1
		l-0.5,20.7l-23.7-0.9L237.1,82.9z"/>
	<path class="st0" d="M220.6,81.6l1.7,0.1l2.7,0.3l1.6,0.1l0.7,0.1l1.7,0.1l1.3,0.1l6.9,0.6l-0.8,21l-0.1,1.5l-1-1.4l-3.7,0.1
		L231,102l-2.7,1l-1.9-1.3l-1.7,2.6l-4.6-2.2l-7.7,2.9l0.3-6.5l-5.5-5.7l-0.6-3.2l4.3-8.3l3.1,0.3l0.6,0.1l0,0h0.1l1.9-0.1l1.7,0.1
		h0.1h0.6L220.6,81.6z"/>
	<path class="st0" d="M76,138l4.2,2.1l-1.2,2.1l2.4,6.7l-1.8,2.7l-2.8-0.9l-4.8,4.1l-1.9-0.3l0.4,10L51,166.8l-0.2-3.3l3.9-1.6
		l2-6.2l-20.9-3.3l1.6-0.8l0.3,0.1l3.6-3.3l0.3,0.1l4.8-2.7l6.2-0.1l6.3,0.8l0.7-0.1l3.8-1.2l0.2-0.1l0,0l1.8-1.7l0.5,0.2l0.6-0.1
		l0.6-0.4l0.3-0.2l2.3-1.2l0.5-0.6l0,0l3.2-0.4l0.3-0.1L76,138L76,138z"/>
	<path class="st0" d="M104.6,159.7l7,9.1l2.5,11.8l-0.3,0.2l-3.4,0.8l-0.2-0.1l-0.6,0.3l-0.1,0.2l-1.3-0.3l-0.2-0.1l-0.6,0.9
		l0.1,0.1l0,0l0.1,0.4l-0.1,0.2l-0.3,0.4l-0.2,0.1l-3.8,1.9l-0.3,0.2l-0.4,0.1l-0.3-0.2l0.2-0.5l0.1-0.2l-0.2-0.6l-0.1-0.1l-0.3,0.1
		l-6.3,1.8l-5.9,1.6l-0.5,0.2l-2.7-2.1l4.8-5.5l-1.1-2.3l4.1-5.1l0.5-4.1l5.1-1.7L104.6,159.7z"/>
	<path class="st0" d="M470.7,126.7l8.6-3.4l8.7-0.6l2.8,2.3l1.1,4.1l-0.9,16.9l-8.4-1.8l-2.3,7.3l-4.8-0.7l1.4-5.9l-7.3-0.3
		l-0.7-6.5l2.7-5.3l-1.7-3.8L470.7,126.7z"/>
	<path class="st0" d="M233,182l3.8,1.8l9.4-2.3l-2.4,27.7l-4.6-0.2l-2.1-0.1l-0.8-0.1h-0.2l-2-0.1h-0.3l-0.4-0.1l-3.6-0.1l-3.4-0.1
		l-1.4-0.1l-2.1-0.1h-0.6h-0.2h-0.3l-4.3-0.2l-1.5-0.1l0.1-0.9v-0.3l0.1-1.3l0.7-5.9l-1.4-2l-0.9-1.2l-1.1-1.6l16.8-14.6L233,182z"
		/>
	<path class="st0" d="M357.4,84.9l2.9,17.2l-1.6,2.9l-1.7,2.3l-2.3-0.1l-2.4,5.1l-4.3-0.8l-1.1-20.2l0.7-4.4l2.3-2h1.2L357.4,84.9z"
		/>
	<path class="st0" d="M345.2,122.7l11.2,6.5l5.8,8.2l-12.3,8.2l-13.4,13.5l-11.9-4.7l-4.7-1.9l4.9-18.6l4.2,0.1l1.6-4.4l2.7,0.7
		l1.6-2l1.7-4.9l-3.1-1.4l0.2-2.8l3.8-0.2L345.2,122.7z"/>
	<path class="st0" d="M361.8,84.9L361.8,84.9h6.4l0,0h1.1l3.5-0.1h0.4h0.4l8-0.1l0.2,2.7l-0.6,9l-5.2,13.1l-5.5-0.4l-4.1-3.3
		l-7.7-0.8l1.6-2.9l-2.9-17.2h1.1L361.8,84.9z"/>
	<path class="st0" d="M451.9,127.1l9.4-0.2l7.4-3.1l2,2.8l-0.8,2.2l1.7,3.8l-2.7,5.3l0.8,6.5l-14-0.2l-11.9,0.3l4.5-11.6
		L451.9,127.1z"/>
	<path class="st0" d="M163.7,91.8l5.3,3.4l4,5.8l5,2.6l0.7,3.7l-4.6,5.1l-15.1-0.2l-0.9-4.2l-4.4-3.6l0.9-3.6L153,99l0.6-1.1
		l1.7-0.8l0.2-0.2l0.1-0.2l0.7-0.8l0,0l0.3-0.3l0.4-0.2l0.3-0.2l0.3-0.2l0.4-0.3l0.6-0.1l1.2-0.6h0.1h0.2l0.2,0.4v0.1v0.1l0.2,0.2
		l1.8,0.9h0.4h0.2l0.3-0.1l1.9,0.2l0.1-0.2L163.7,91.8L163.7,91.8z"/>
	<path class="st0" d="M373.5,154.2l13.9,0.8l1.4,14.6l-1.3,13.9l-3.3,2.3l-7.5-3.3l-3.3,1.4l-5-1l-4.9-2.7l-3.4-4.3l2.1-2.8l6.5-1.9
		l-0.2-4.9L373.5,154.2z"/>
	<path class="st0" d="M207.1,92.8l5.5,5.7l-0.3,6.5l-0.6,13.1l-8.4,0.4l-9.9,0.3l-7.2,2.7l-4.6-5.7l-7.7-3.6l4.6-5.1l-0.7-3.7
		l3.7-3.8l2.6,0.8l0.6-6l6.2,0.6l4.9-5.2l1.2,1.4l3.5-0.9l3.1,4.4l2.7,0.1L207.1,92.8z"/>
	<path class="st0" d="M386.7,133.8l4.5,2.8l2,7l3.5,3.8l-2.2,1.8l-7,5.9l-13.9-0.8L370,153l-2.3-8l-1.7-1.2l16.8-8.3l3.1,0.4
		L386.7,133.8z"/>
	<path class="st0" d="M236.3,105.4l0.7,7.4L233,115l0.6,4.4l-11.2-0.7l-10.8-0.7l0.6-13.1l7.7-2.9l4.6,2.2l1.7-2.6l1.9,1.3l2.7-1
		l0.6,1.9l3.7-0.1L236.3,105.4z"/>
	<path class="st0" d="M124.4,113.2l3.7-0.7l0.7,4l2.2-1l2.6,4.3l0.1-1.4l3.1-0.3l-0.1,4.5l2.8,1.6l0.7,7.9l-3.5,6.3l-4.8,2.1
		l-3.3-3.4l-0.7-4.7l-3.4-0.6l-2.1-5.9l-2.6-1.1l0.9-2.8l-1.4-2.1l0.3-0.4l0.5-0.4l0.2-0.2l0.2-0.1l1.2-0.9l0.2-0.1l0.1-0.2l1.4-2.4
		L124.4,113.2L124.4,113.2z"/>
</g>
</svg>
