<svg xmlns="http://www.w3.org/2000/svg" viewBox="0 0 117 112.21" width="180.98" height="173.57"><defs><style>.cls-1{fill:#5aa3d2;}</style></defs><title>Asset 1</title><g id="Layer_2" data-name="Layer 2"><g id="Layer_1-2" data-name="Layer 1"><path class="cls-1" d="M5.63,51.25v6.81H3.48V51.25H1V49.44H7.86l.3,1.81Z"/><path class="cls-1" d="M14.56,58.06v-3.5h-3v3.5H9.43V49.44h2.14V52.7h3V49.44H16.7v8.62Z"/><path class="cls-1" d="M18.69,58.06V49.44h5.38v1.72H20.79v1.63h2.5l.28,1.71H20.79v1.82h3.39v1.74Z"/><path class="cls-1" d="M32.46,58.21c-2.58,0-4.14-1.72-4.14-4.45s1.64-4.47,4.24-4.47a4.41,4.41,0,0,1,2.27.56l-.3,1.93a3,3,0,0,0-1.86-.7c-1.35,0-2.21,1-2.21,2.67s.91,2.67,2.26,2.67a3.65,3.65,0,0,0,2-.66L35,57.55A4.83,4.83,0,0,1,32.46,58.21Z"/><path class="cls-1" d="M36.51,58.06V49.44h5.37v1.72H38.61v1.63h2.5l.27,1.71H38.61v1.82H42v1.74Z"/><path class="cls-1" d="M47.26,58.21c-2.58,0-4.14-1.72-4.14-4.45s1.64-4.47,4.24-4.47a4.41,4.41,0,0,1,2.27.56l-.3,1.93a3,3,0,0,0-1.86-.7c-1.35,0-2.21,1-2.21,2.67s.91,2.67,2.26,2.67a3.65,3.65,0,0,0,2-.66l.28,1.79A4.83,4.83,0,0,1,47.26,58.21Z"/><path class="cls-1" d="M51.33,58.06V49.44h2.14v8.62Z"/><path class="cls-1" d="M55.47,58.06V49.44H57.6v6.77h2.65l.29,1.85Z"/><path class="cls-1" d="M68.24,58.22c-2.74,0-4.25-1.8-4.25-4.46a4.12,4.12,0,0,1,4.3-4.48,5.45,5.45,0,0,1,2.64.63l-.29,1.87a4.2,4.2,0,0,0-2.3-.74c-1.49,0-2.21,1.1-2.21,2.71s.75,2.76,2.24,2.76a2.48,2.48,0,0,0,1.16-.27V54.7H68l-.25-1.59h3.61v4.2A5.65,5.65,0,0,1,68.24,58.22Z"/><path class="cls-1" d="M72.72,58.06V55.91h2v2.15Z"/><path class="cls-1" d="M81,58.16a7.06,7.06,0,0,1-3-.65l.31-1.82a6.21,6.21,0,0,0,2.74.8c.61,0,1-.27,1-.78s-.24-.71-1.46-1.17c-1.72-.67-2.47-1.23-2.47-2.65,0-1.66,1.3-2.55,2.95-2.55a5.53,5.53,0,0,1,2.6.57l-.33,1.8a4.71,4.71,0,0,0-2.25-.7c-.65,0-1,.28-1,.68s.24.65,1.31,1.06c1.89.69,2.63,1.34,2.63,2.71C84.13,57.34,82.75,58.16,81,58.16Z"/><path class="cls-1" d="M90.81,58.06v-3.5h-3v3.5H85.68V49.44h2.14V52.7h3V49.44H93v8.62Z"/><path class="cls-1" d="M95,58.06V49.44h5.37v1.72H97.05v1.63h2.5l.27,1.71H97.05v1.82h3.38v1.74Z"/><path class="cls-1" d="M104.79,55.2h-.55v2.86H102.1V49.44h2.78c2.1,0,3.39.94,3.39,2.81S106.88,55.2,104.79,55.2Zm0-4.15h-.53v2.54h.5c1,0,1.47-.41,1.47-1.3S105.7,51.05,104.75,51.05Z"/><path class="cls-1" d="M112.33,58.16a7.09,7.09,0,0,1-3-.65l.31-1.82a6.21,6.21,0,0,0,2.74.8c.61,0,1-.27,1-.78s-.25-.71-1.47-1.17c-1.72-.67-2.47-1.23-2.47-2.65,0-1.66,1.3-2.55,3-2.55a5.53,5.53,0,0,1,2.6.57l-.33,1.8a4.68,4.68,0,0,0-2.25-.7c-.64,0-1,.28-1,.68s.24.65,1.31,1.06c1.89.69,2.63,1.34,2.63,2.71C115.42,57.34,114,58.16,112.33,58.16Z"/><path class="cls-1" d="M26,76.21c-2.58,0-4.14-1.72-4.14-4.45s1.64-4.47,4.24-4.47a4.41,4.41,0,0,1,2.27.56l-.3,1.93a3,3,0,0,0-1.86-.7c-1.35,0-2.21,1-2.21,2.67s.91,2.67,2.26,2.67a3.65,3.65,0,0,0,2-.66l.28,1.79A4.83,4.83,0,0,1,26,76.21Z"/><path class="cls-1" d="M30.07,76.06V67.44h5.37v1.72H32.17v1.63h2.5l.27,1.71H32.17v1.82h3.38v1.74Z"/><path class="cls-1" d="M42.61,76.06l-3.4-5.16v5.16h-2V67.44H39.3l3.17,4.82V67.44h2v8.62Z"/><path class="cls-1" d="M50.38,69.25v6.81H48.23V69.25H45.8V67.44h6.82l.3,1.81Z"/><path class="cls-1" d="M54.19,76.06V67.44h5.37v1.72H56.29v1.63h2.5l.27,1.71H56.29v1.82h3.38v1.74Z"/><path class="cls-1" d="M65.89,76.15,64,73.1h-.53v3H61.34V67.44h3c2.09,0,3.32,1,3.32,2.72A2.5,2.5,0,0,1,66,72.61l2.11,3.18Zm-1.75-7.1h-.69v2.51h.67c.92,0,1.45-.45,1.45-1.27S65.07,69.05,64.14,69.05Z"/><path class="cls-1" d="M74.4,69.23V71h2.25l.3,1.78H74.4v3.29H72.28V67.44h5.16v1.79Z"/><path class="cls-1" d="M82.46,76.22c-2.48,0-4.1-1.8-4.1-4.46s1.62-4.48,4.12-4.48,4.11,1.8,4.11,4.46S85,76.22,82.46,76.22Zm0-7.27c-1.24,0-2,1.09-2,2.8s.73,2.8,2,2.8,2-1.09,2-2.8S83.72,69,82.47,69Z"/><path class="cls-1" d="M92.76,76.15,90.87,73.1h-.54v3H88.21V67.44h3c2.09,0,3.31,1,3.31,2.72a2.5,2.5,0,0,1-1.62,2.45L95,75.79ZM91,69.05h-.69v2.51H91c.93,0,1.45-.45,1.45-1.27S91.93,69.05,91,69.05Z"/><path class="cls-1" d="M10.11,94.06v-3.5h-3v3.5H5V85.44H7.12V88.7h3V85.44h2.15v8.62Z"/><path class="cls-1" d="M14.25,94.06V85.44h5.37v1.72H16.35v1.63h2.5l.27,1.71H16.35v1.82h3.38v1.74Z"/><path class="cls-1" d="M23.91,85.4h2.35l3,8.4-2.16.35-.64-1.88h-3l-.57,1.79h-2.1ZM24,90.6h1.93l-1-3Z"/><path class="cls-1" d="M30.52,94.06V85.44h2.14v6.77h2.65l.29,1.85Z"/><path class="cls-1" d="M40,87.25v6.81H37.86V87.25H35.42V85.44h6.83l.3,1.81Z"/><path class="cls-1" d="M48.94,94.06v-3.5H46v3.5H43.81V85.44H46V88.7h3V85.44h2.15v8.62Z"/><path class="cls-1" d="M58.55,94.16a7.06,7.06,0,0,1-3-.65l.31-1.82a6.21,6.21,0,0,0,2.74.8c.61,0,1-.27,1-.78s-.25-.71-1.47-1.17c-1.72-.67-2.47-1.23-2.47-2.65,0-1.66,1.3-2.55,3-2.55a5.53,5.53,0,0,1,2.6.57l-.33,1.8a4.68,4.68,0,0,0-2.25-.7c-.65,0-1,.28-1,.68s.24.65,1.31,1.06c1.89.69,2.63,1.34,2.63,2.71C61.64,93.34,60.26,94.16,58.55,94.16Z"/><path class="cls-1" d="M63.2,94.06V85.44h5.37v1.72H65.3v1.63h2.5l.27,1.71H65.3v1.82h3.38v1.74Z"/><path class="cls-1" d="M74.9,94.15,73,91.1h-.53v3H70.35V85.44h3c2.09,0,3.32,1,3.32,2.72a2.5,2.5,0,0,1-1.63,2.45l2.11,3.18Zm-1.75-7.1h-.69v2.51h.67c.92,0,1.45-.45,1.45-1.27S74.08,87.05,73.15,87.05Z"/><path class="cls-1" d="M82.82,94.11h-2.3l-3-8.41,2.29-.35,2,6.05,1.86-6h2.23Z"/><path class="cls-1" d="M87.16,94.06V85.44H89.3v8.62Z"/><path class="cls-1" d="M95.07,94.21c-2.57,0-4.14-1.72-4.14-4.45s1.64-4.47,4.24-4.47a4.41,4.41,0,0,1,2.27.56l-.3,1.93a3,3,0,0,0-1.86-.7c-1.35,0-2.21,1-2.21,2.67s.91,2.67,2.26,2.67a3.63,3.63,0,0,0,2-.66l.28,1.79A4.83,4.83,0,0,1,95.07,94.21Z"/><path class="cls-1" d="M99.12,94.06V85.44h5.38v1.72h-3.28v1.63h2.5L104,90.5h-2.78v1.82h3.39v1.74Z"/><path class="cls-1" d="M108.86,94.16a7.09,7.09,0,0,1-3-.65l.31-1.82a6.21,6.21,0,0,0,2.74.8c.61,0,1-.27,1-.78s-.25-.71-1.46-1.17c-1.73-.67-2.48-1.23-2.48-2.65,0-1.66,1.3-2.55,3-2.55a5.5,5.5,0,0,1,2.6.57l-.32,1.8A4.74,4.74,0,0,0,109,87c-.65,0-1,.28-1,.68s.24.65,1.32,1.06c1.88.69,2.62,1.34,2.62,2.71C112,93.34,110.58,94.16,108.86,94.16Z"/><path class="cls-1" d="M31.92,112.15,30,109.1H29.5v3H27.37v-8.62h3c2.08,0,3.31,1,3.31,2.72a2.5,2.5,0,0,1-1.63,2.45l2.11,3.18Zm-1.75-7.1h-.68v2.51h.66c.92,0,1.45-.45,1.45-1.27S31.1,105.05,30.17,105.05Z"/><path class="cls-1" d="M35.45,112.06v-8.62h5.37v1.72H37.55v1.63h2.5l.27,1.71H37.55v1.82h3.38v1.74Z"/><path class="cls-1" d="M45.19,112.16a7.06,7.06,0,0,1-3-.65l.31-1.82a6.21,6.21,0,0,0,2.74.8c.61,0,1-.27,1-.78S46,109,44.8,108.54c-1.72-.67-2.47-1.23-2.47-2.65,0-1.66,1.3-2.55,3-2.55a5.53,5.53,0,0,1,2.6.57l-.33,1.8a4.68,4.68,0,0,0-2.25-.7c-.65,0-1,.28-1,.68s.24.65,1.31,1.06c1.89.69,2.63,1.34,2.63,2.71C48.28,111.34,46.9,112.16,45.19,112.16Z"/><path class="cls-1" d="M49.84,112.06v-8.62h5.37v1.72H51.93v1.63h2.5l.28,1.71H51.93v1.82h3.39v1.74Z"/><path class="cls-1" d="M59.5,103.4h2.35l3,8.4-2.16.35-.63-1.88h-3l-.57,1.79H56.4Zm.08,5.2h1.94l-1-3Z"/><path class="cls-1" d="M70.66,112.15l-1.89-3.05h-.54v3H66.11v-8.62h3c2.09,0,3.31,1,3.31,2.72a2.5,2.5,0,0,1-1.62,2.45l2.11,3.18Zm-1.75-7.1h-.69v2.51h.66c.93,0,1.45-.45,1.45-1.27S69.83,105.05,68.91,105.05Z"/><path class="cls-1" d="M77.84,112.21c-2.58,0-4.14-1.72-4.14-4.45s1.64-4.47,4.24-4.47a4.41,4.41,0,0,1,2.27.56l-.3,1.93a3,3,0,0,0-1.86-.7c-1.35,0-2.21,1-2.21,2.67s.91,2.67,2.26,2.67a3.65,3.65,0,0,0,2-.66l.28,1.79A4.83,4.83,0,0,1,77.84,112.21Z"/><path class="cls-1" d="M87,112.06v-3.5H84v3.5H81.89v-8.62H84v3.26h3v-3.26h2.15v8.62Z"/><rect class="cls-1" y="38.78" width="117" height="0.4"/><path class="cls-1" d="M11.92,6.42c.05,0,.08,0,.08,0,4-.16,6.22,1.35,6.41,2L20,8.4l.49-1.07a.34.34,0,0,0,0-.25C20,6.55,16,5.42,11.21,5.42c-5.12,0-8.37,1-9,1.51A.38.38,0,0,0,2,7.18a1.11,1.11,0,0,0,.1.27l.14.3c0,.09.1.08.21,0s.09,0,.11-.09,0-.17,0-.17c-.11-.21,0-.23,0-.24l.29-.13c.14,0,.16,0,.21.14s.05.16.09.18a6.13,6.13,0,0,0,1-.26.68.68,0,0,0,.17,0c.06,0,0-.26,0-.26s-.08-.24.17-.28l.44-.08c.2-.06.22,0,.24.17A1,1,0,0,0,5.23,7c.06.09.16-.06,1.5-.2,0,0,.19,0,.23-.07a.43.43,0,0,0,0-.23c0-.16-.07-.28.23-.3l.59-.05c.43-.07.36.07.38.23a.63.63,0,0,0,0,.21s.17,0,.17,0c.75-.08,1.17-.07,2-.11a.27.27,0,0,0,.15,0,.13.13,0,0,0,0-.1c0-.09,0-.23,0-.29s.17,0,.27,0h.67c.1,0,.31,0,.37,0s0,.33,0,.33a.11.11,0,0,0,0,.07Z"/><path class="cls-1" d="M11.24,0C7.38,0,5,1.24,3.48,2.73a.17.17,0,0,0,0,.07c0,.07,0,.19.12.13,3.31-1.38,6.93-.52,8.08.79,0,.07,0,.08,0,.08a25.88,25.88,0,0,0-4.3.25,27.17,27.17,0,0,0-3.07.56,10.47,10.47,0,0,0-3,1.22.47.47,0,0,0-.27.29c-.07.19-.06.18-.1.31a3.93,3.93,0,0,0-.12.48c0,.14.14.09.22,0A4.91,4.91,0,0,1,2.27,6a14.15,14.15,0,0,1,3.17-.94,33.07,33.07,0,0,1,5.66-.52,29.85,29.85,0,0,1,5.81.54,16.32,16.32,0,0,1,3.85,1.2,3.71,3.71,0,0,1,.9.6c.21.22.22,0,.22,0a3.32,3.32,0,0,0-.4-1A11.18,11.18,0,0,0,11.24,0"/><path class="cls-1" d="M0,25.85c0,.89,3.73,2.73,11.45,2.73,7.49,0,11.44-1.84,11.44-2.73l0-1.38s0-.09,0-.06c0-.25-.41-.3-1.62-.31l0-.77c0,.08-.25.25-.41.34-1,.57-4.76,1.41-9.47,1.41C5.87,25.08,2,24,1.44,23.33v1.18c1.8,1.28,7.33,2.44,12.92,1.84a1,1,0,0,1,.39,0s.2.15-.1.26C11.4,27.69,3.39,27.45,0,24.88l0,1"/><path class="cls-1" d="M16,8.07h0Z"/><path class="cls-1" d="M15.9,8.35V8.13h0v.21Z"/><polygon class="cls-1" points="15.9 8.37 15.9 8.37 15.9 8.13 15.9 8.13 15.9 8.37 15.9 8.37"/><path class="cls-1" d="M13.86,8a0,0,0,0,1,0,0h0Z"/><path class="cls-1" d="M16,7.51H13.93c-.11,0-.15,0-.15.15V7.9c0,.11,0,.16.16.16h.65c.06,0,.08,0,.08,0s-.1.11-.14.14l-.32.21a.24.24,0,0,0-.09.21V23.78c0,.27.45.29.91.29s.85,0,.9-.28c0,0,0-14.4,0-15.64a.08.08,0,0,1,0-.08H16c.09,0,.14-.05.14-.15V7.66A.14.14,0,0,0,16,7.51Z"/><path class="cls-1" d="M12.57,18l0-.1h.14v-.09H9.83v.09H10l0,.1.18.36a.15.15,0,0,0,.07.05.35.35,0,0,0,.14,0h.72c.06,0,.14,0,.17,0a.13.13,0,0,1-.06.2l-.86.57a.19.19,0,0,0-.11.11.16.16,0,0,0,0,.1v2.85l-.25.09s-.08.57,0,.63a18.08,18.08,0,0,0,2.55,0c.08,0,0-.64,0-.64l-.25-.08V18.52l.24-.49Z"/><path class="cls-1" d="M20.13,8.34H18c-.1,0-.15.05-.15.15v.23c0,.12.05.16.16.17h.65c.06,0,.08,0,.08,0s-.09.12-.14.15l-.32.21s-.08.08-.08.2l0,13.64c0,.26.46.28.92.28s.84,0,.89-.28c0,0,0-12.9,0-14.15,0-.05,0-.07,0-.07l.08,0a.13.13,0,0,0,.15-.14V8.48a.14.14,0,0,0-.15-.14Z"/><path class="cls-1" d="M8.6,7.51H6.49a.14.14,0,0,0-.16.16V7.9a.14.14,0,0,0,.16.16h.66a.08.08,0,0,1,.08,0c0,.06-.1.12-.14.14l-.32.21a.22.22,0,0,0-.09.21V23.78c0,.27.45.29.91.29s.85,0,.9-.28c0,0,0-14.4,0-15.64,0-.06,0-.07,0-.08h.08a.13.13,0,0,0,.15-.15V7.66a.14.14,0,0,0-.14-.15Z"/><path class="cls-1" d="M4.49,8.38H2.38c-.11,0-.15.06-.15.16v.23c0,.12,0,.16.15.16H3a.07.07,0,0,1,.08,0c0,.06-.1.12-.14.15l-.32.21c-.05,0-.09.08-.09.2V23.15c0,.27.45.3.91.29s.85,0,.9-.28c0,0,0-12.9,0-14.15a.08.08,0,0,1,0-.07l.08,0c.1,0,.15-.05.15-.14V8.52a.13.13,0,0,0-.14-.14Z"/><path class="cls-1" d="M115,8.29a10,10,0,0,0-9.75-6.58c-7.14,0-11.58,5.17-11.58,12.35,0,7.73,5.56,13.42,12.05,13.42,3.38,0,7.53-1.16,10.43-6.33H117a29,29,0,0,1-2.73,6.24c-2.74-.38-4.62,1.16-9.66,1.16-8.68,0-14.92-5.73-14.92-13.64C89.69,6.62,96.1.64,105,.64c5.38,0,7.69,1.71,9,1.71.47,0,.69-.13.77-.26h.64l.39,6.2Z"/><path class="cls-1" d="M79.52,1.28v.81c3.42.09,4.19.56,4.19,3.16v17l-20.13-21H47.51v.81c3.55.17,4.19.9,4.19,5v10c0,7.26-4.92,9.27-9.74,9.27-6.37,0-9.75-3.46-9.75-9.23V5.21c0-2.48,1-3.12,3.38-3.12H36V1.28H25v.81c2.9.05,3.67.47,3.67,3.21V17.78c0,6.11,4.19,10.77,12.35,10.77,9.28,0,12.65-5.69,12.65-11V6c0-3.17,1.52-3.93,3.51-3.93a5.7,5.7,0,0,1,3.29,1v21c0,2-.86,2.86-3.51,2.86h-.17v.81H66.7v-.81c-3.63,0-4.32-.64-4.32-3.72V5L84.52,28.17h1.11V4.31c0-1.66.69-2.22,3.9-2.22V1.28Z"/></g></g></svg>