<svg width="2240" height="1136" xmlns="http://www.w3.org/2000/svg" xmlns:xlink="http://www.w3.org/1999/xlink" xml:space="preserve" overflow="hidden"><g transform="translate(1 1)"><rect x="0" y="0" width="2237" height="1133" fill="#FFFFFF"/><g><path d="M209.5 783.526 2186.5 783.526M209.5 636.521 2186.5 636.521M209.5 490.516 2186.5 490.516M209.5 343.511 2186.5 343.511M209.5 197.507 2186.5 197.507M209.5 50.5 2186.5 50.5" stroke="#D9D9D9" stroke-width="3.4375" stroke-linejoin="round" stroke-miterlimit="10" fill="none"/></g><g><path d="M209.5 930.5 2186.5 930.5" stroke="#D9D9D9" stroke-width="3.4375" stroke-linejoin="round" stroke-miterlimit="10" fill="none" fill-rule="evenodd"/></g><g><path d="M299 148 479.016 107.004 658.022 84.9999 838.027 91.003 1018.03 144.005 1198.04 130.004 1377.05 130.004 1557.05 116.004 1737.06 137.004 1917.06 117.004 2096 126.004" stroke="#156082" stroke-width="10.3125" stroke-linecap="round" stroke-linejoin="round" stroke-miterlimit="10" fill="none"/></g><g><path d="M310.499 147.5C310.499 153.575 305.574 158.499 299.5 158.499 293.425 158.499 288.5 153.575 288.5 147.5 288.5 141.425 293.425 136.5 299.5 136.5 305.574 136.5 310.499 141.425 310.499 147.5Z" stroke="#156082" stroke-width="3.4375" stroke-linejoin="round" stroke-miterlimit="10" fill="#156082"/><path d="M489.499 106.5C489.499 112.575 484.575 117.499 478.5 117.499 472.425 117.499 467.5 112.575 467.5 106.5 467.5 100.425 472.425 95.5001 478.5 95.5001 484.575 95.5001 489.499 100.425 489.499 106.5Z" stroke="#156082" stroke-width="3.4375" stroke-linejoin="round" stroke-miterlimit="10" fill="#156082"/><path d="M669.499 84.4997C669.499 90.5746 664.575 95.4993 658.5 95.4993 652.425 95.4993 647.5 90.5746 647.5 84.4997 647.5 78.4248 652.425 73.5001 658.5 73.5001 664.575 73.5001 669.499 78.4248 669.499 84.4997Z" stroke="#156082" stroke-width="3.4375" stroke-linejoin="round" stroke-miterlimit="10" fill="#156082"/><path d="M849.499 90.4995C849.499 96.5745 844.574 101.499 838.5 101.499 832.425 101.499 827.5 96.5745 827.5 90.4995 827.5 84.4246 832.425 79.4999 838.5 79.4999 844.574 79.4999 849.499 84.4246 849.499 90.4995Z" stroke="#156082" stroke-width="3.4375" stroke-linejoin="round" stroke-miterlimit="10" fill="#156082"/><path d="M1028.5 143.5C1028.5 149.575 1023.57 154.499 1017.5 154.499 1011.42 154.499 1006.5 149.575 1006.5 143.5 1006.5 137.425 1011.42 132.5 1017.5 132.5 1023.57 132.5 1028.5 137.425 1028.5 143.5Z" stroke="#156082" stroke-width="3.4375" stroke-linejoin="round" stroke-miterlimit="10" fill="#156082"/><path d="M1208.5 129.5C1208.5 135.575 1203.57 140.499 1197.5 140.499 1191.42 140.499 1186.5 135.575 1186.5 129.5 1186.5 123.425 1191.42 118.5 1197.5 118.5 1203.57 118.5 1208.5 123.425 1208.5 129.5Z" stroke="#156082" stroke-width="3.4375" stroke-linejoin="round" stroke-miterlimit="10" fill="#156082"/><path d="M1388.5 129.5C1388.5 135.575 1383.57 140.499 1377.5 140.499 1371.42 140.499 1366.5 135.575 1366.5 129.5 1366.5 123.425 1371.42 118.5 1377.5 118.5 1383.57 118.5 1388.5 123.425 1388.5 129.5Z" stroke="#156082" stroke-width="3.4375" stroke-linejoin="round" stroke-miterlimit="10" fill="#156082"/><path d="M1568.5 116.5C1568.5 122.575 1563.57 127.499 1557.5 127.499 1551.42 127.499 1546.5 122.575 1546.5 116.5 1546.5 110.425 1551.42 105.5 1557.5 105.5 1563.57 105.5 1568.5 110.425 1568.5 116.5Z" stroke="#156082" stroke-width="3.4375" stroke-linejoin="round" stroke-miterlimit="10" fill="#156082"/><path d="M1747.5 136.5C1747.5 142.575 1742.57 147.499 1736.5 147.499 1730.42 147.499 1725.5 142.575 1725.5 136.5 1725.5 130.425 1730.42 125.5 1736.5 125.5 1742.57 125.5 1747.5 130.425 1747.5 136.5Z" stroke="#156082" stroke-width="3.4375" stroke-linejoin="round" stroke-miterlimit="10" fill="#156082"/><path d="M1927.5 117.5C1927.5 123.575 1922.57 128.499 1916.5 128.499 1910.42 128.499 1905.5 123.575 1905.5 117.5 1905.5 111.425 1910.42 106.5 1916.5 106.5 1922.57 106.5 1927.5 111.425 1927.5 117.5Z" stroke="#156082" stroke-width="3.4375" stroke-linejoin="round" stroke-miterlimit="10" fill="#156082"/><path d="M2107.5 125.5C2107.5 131.575 2102.57 136.499 2096.5 136.499 2090.42 136.499 2085.5 131.575 2085.5 125.5 2085.5 119.425 2090.42 114.5 2096.5 114.5 2102.57 114.5 2107.5 119.425 2107.5 125.5Z" stroke="#156082" stroke-width="3.4375" stroke-linejoin="round" stroke-miterlimit="10" fill="#156082"/></g><g><text fill="#595959" font-family="Aptos,Aptos_MSFontService,sans-serif" font-weight="400" font-size="41" transform="matrix(1 0 0 1 149.027 942)">0</text></g><g><text fill="#595959" font-family="Aptos,Aptos_MSFontService,sans-serif" font-weight="400" font-size="41" transform="matrix(1 0 0 1 149.027 795)">2</text></g><g><text fill="#595959" font-family="Aptos,Aptos_MSFontService,sans-serif" font-weight="400" font-size="41" transform="matrix(1 0 0 1 149.027 648)">4</text></g><g><text fill="#595959" font-family="Aptos,Aptos_MSFontService,sans-serif" font-weight="400" font-size="41" transform="matrix(1 0 0 1 149.027 502)">6</text></g><g><text fill="#595959" font-family="Aptos,Aptos_MSFontService,sans-serif" font-weight="400" font-size="41" transform="matrix(1 0 0 1 149.027 355)">8</text></g><g><text fill="#595959" font-family="Aptos,Aptos_MSFontService,sans-serif" font-weight="400" font-size="41" transform="matrix(1 0 0 1 126.981 209)">10</text></g><g><text fill="#595959" font-family="Aptos,Aptos_MSFontService,sans-serif" font-weight="400" font-size="41" transform="matrix(1 0 0 1 126.981 62)">12</text></g><g><text fill="#595959" font-family="Aptos,Aptos_MSFontService,sans-serif" font-weight="400" font-size="41" transform="matrix(1 0 0 1 254.933 995)">2014</text></g><g><text fill="#595959" font-family="Aptos,Aptos_MSFontService,sans-serif" font-weight="400" font-size="41" transform="matrix(1 0 0 1 434.669 995)">2015</text></g><g><text fill="#595959" font-family="Aptos,Aptos_MSFontService,sans-serif" font-weight="400" font-size="41" transform="matrix(1 0 0 1 614.404 995)">2016</text></g><g><text fill="#595959" font-family="Aptos,Aptos_MSFontService,sans-serif" font-weight="400" font-size="41" transform="matrix(1 0 0 1 794.14 995)">2017</text></g><g><text fill="#595959" font-family="Aptos,Aptos_MSFontService,sans-serif" font-weight="400" font-size="41" transform="matrix(1 0 0 1 973.876 995)">2018</text></g><g><text fill="#595959" font-family="Aptos,Aptos_MSFontService,sans-serif" font-weight="400" font-size="41" transform="matrix(1 0 0 1 1153.61 995)">2019</text></g><g><text fill="#595959" font-family="Aptos,Aptos_MSFontService,sans-serif" font-weight="400" font-size="41" transform="matrix(1 0 0 1 1333.35 995)">2020</text></g><g><text fill="#595959" font-family="Aptos,Aptos_MSFontService,sans-serif" font-weight="400" font-size="41" transform="matrix(1 0 0 1 1513.08 995)">2021</text></g><g><text fill="#595959" font-family="Aptos,Aptos_MSFontService,sans-serif" font-weight="400" font-size="41" transform="matrix(1 0 0 1 1692.82 995)">2022</text></g><g><text fill="#595959" font-family="Aptos,Aptos_MSFontService,sans-serif" font-weight="400" font-size="41" transform="matrix(1 0 0 1 1872.55 995)">2023</text></g><g><text fill="#595959" font-family="Aptos,Aptos_MSFontService,sans-serif" font-weight="400" font-size="41" transform="matrix(1 0 0 1 2052.29 995)">2024</text></g><g><text fill="#595959" font-family="Aptos,Aptos_MSFontService,sans-serif" font-weight="400" font-size="46" transform="matrix(6.12323e-17 -1 1 6.12323e-17 100.283 613)">Rate per 10k</text></g><g><text fill="#595959" font-family="Aptos,Aptos_MSFontService,sans-serif" font-weight="400" font-size="46" transform="matrix(1 0 0 1 1153.42 1063)">Year</text></g><rect x="0.499836" y="0.499836" width="2237" height="1133" stroke="#D9D9D9" stroke-width="3.4375" stroke-linejoin="round" stroke-miterlimit="10" fill="none"/></g></svg>